G04 (created by PCBNEW (2013-07-07 BZR 4022)-stable) date 9/25/2014 9:45:49 PM*
%MOIN*%
G04 Gerber Fmt 3.4, Leading zero omitted, Abs format*
%FSLAX34Y34*%
G01*
G70*
G90*
G04 APERTURE LIST*
%ADD10C,0.00590551*%
%ADD11C,0.011811*%
%ADD12C,0.00738189*%
%ADD13C,0.00787402*%
%ADD14C,0.005*%
%ADD15C,0.012*%
%ADD16C,0.008*%
%ADD17C,0.01*%
%ADD18C,0.006*%
%ADD19C,0.015*%
G04 APERTURE END LIST*
G54D10*
G54D11*
X64639Y-38046D02*
X64357Y-38243D01*
X64639Y-38384D02*
X64048Y-38384D01*
X64048Y-38159D01*
X64076Y-38103D01*
X64104Y-38074D01*
X64160Y-38046D01*
X64245Y-38046D01*
X64301Y-38074D01*
X64329Y-38103D01*
X64357Y-38159D01*
X64357Y-38384D01*
X64329Y-37793D02*
X64329Y-37596D01*
X64639Y-37512D02*
X64639Y-37793D01*
X64048Y-37793D01*
X64048Y-37512D01*
X64610Y-37287D02*
X64639Y-37203D01*
X64639Y-37062D01*
X64610Y-37006D01*
X64582Y-36978D01*
X64526Y-36950D01*
X64470Y-36950D01*
X64414Y-36978D01*
X64385Y-37006D01*
X64357Y-37062D01*
X64329Y-37175D01*
X64301Y-37231D01*
X64273Y-37259D01*
X64217Y-37287D01*
X64160Y-37287D01*
X64104Y-37259D01*
X64076Y-37231D01*
X64048Y-37175D01*
X64048Y-37034D01*
X64076Y-36950D01*
X64639Y-36387D02*
X64639Y-36725D01*
X64639Y-36556D02*
X64048Y-36556D01*
X64132Y-36612D01*
X64189Y-36668D01*
X64217Y-36725D01*
X49964Y-30039D02*
X49964Y-29448D01*
X50189Y-29448D01*
X50245Y-29476D01*
X50273Y-29504D01*
X50301Y-29560D01*
X50301Y-29645D01*
X50273Y-29701D01*
X50245Y-29729D01*
X50189Y-29757D01*
X49964Y-29757D01*
X50835Y-29448D02*
X50554Y-29448D01*
X50526Y-29729D01*
X50554Y-29701D01*
X50610Y-29673D01*
X50751Y-29673D01*
X50807Y-29701D01*
X50835Y-29729D01*
X50864Y-29785D01*
X50864Y-29926D01*
X50835Y-29982D01*
X50807Y-30010D01*
X50751Y-30039D01*
X50610Y-30039D01*
X50554Y-30010D01*
X50526Y-29982D01*
X41864Y-31039D02*
X41864Y-30448D01*
X42089Y-30448D01*
X42145Y-30476D01*
X42173Y-30504D01*
X42201Y-30560D01*
X42201Y-30645D01*
X42173Y-30701D01*
X42145Y-30729D01*
X42089Y-30757D01*
X41864Y-30757D01*
X42398Y-30448D02*
X42764Y-30448D01*
X42567Y-30673D01*
X42651Y-30673D01*
X42707Y-30701D01*
X42735Y-30729D01*
X42764Y-30785D01*
X42764Y-30926D01*
X42735Y-30982D01*
X42707Y-31010D01*
X42651Y-31039D01*
X42482Y-31039D01*
X42426Y-31010D01*
X42398Y-30982D01*
X49901Y-32682D02*
X49873Y-32710D01*
X49789Y-32739D01*
X49732Y-32739D01*
X49648Y-32710D01*
X49592Y-32654D01*
X49564Y-32598D01*
X49535Y-32485D01*
X49535Y-32401D01*
X49564Y-32289D01*
X49592Y-32232D01*
X49648Y-32176D01*
X49732Y-32148D01*
X49789Y-32148D01*
X49873Y-32176D01*
X49901Y-32204D01*
X50126Y-32204D02*
X50154Y-32176D01*
X50210Y-32148D01*
X50351Y-32148D01*
X50407Y-32176D01*
X50435Y-32204D01*
X50464Y-32260D01*
X50464Y-32317D01*
X50435Y-32401D01*
X50098Y-32739D01*
X50464Y-32739D01*
G54D12*
X59782Y-33819D02*
X59782Y-33524D01*
X59894Y-33524D01*
X59922Y-33538D01*
X59936Y-33552D01*
X59950Y-33580D01*
X59950Y-33622D01*
X59936Y-33650D01*
X59922Y-33664D01*
X59894Y-33678D01*
X59782Y-33678D01*
X60063Y-33552D02*
X60077Y-33538D01*
X60105Y-33524D01*
X60175Y-33524D01*
X60203Y-33538D01*
X60217Y-33552D01*
X60232Y-33580D01*
X60232Y-33608D01*
X60217Y-33650D01*
X60049Y-33819D01*
X60232Y-33819D01*
G54D10*
X55820Y-29859D02*
X55820Y-30050D01*
X55831Y-30073D01*
X55842Y-30084D01*
X55865Y-30095D01*
X55910Y-30095D01*
X55932Y-30084D01*
X55943Y-30073D01*
X55955Y-30050D01*
X55955Y-29859D01*
X56044Y-29859D02*
X56191Y-29859D01*
X56112Y-29949D01*
X56146Y-29949D01*
X56168Y-29960D01*
X56179Y-29971D01*
X56191Y-29994D01*
X56191Y-30050D01*
X56179Y-30073D01*
X56168Y-30084D01*
X56146Y-30095D01*
X56078Y-30095D01*
X56056Y-30084D01*
X56044Y-30073D01*
X54320Y-29859D02*
X54320Y-30050D01*
X54331Y-30073D01*
X54342Y-30084D01*
X54365Y-30095D01*
X54410Y-30095D01*
X54432Y-30084D01*
X54443Y-30073D01*
X54455Y-30050D01*
X54455Y-29859D01*
X54556Y-29881D02*
X54567Y-29870D01*
X54589Y-29859D01*
X54646Y-29859D01*
X54668Y-29870D01*
X54679Y-29881D01*
X54691Y-29904D01*
X54691Y-29926D01*
X54679Y-29960D01*
X54544Y-30095D01*
X54691Y-30095D01*
X52820Y-29859D02*
X52820Y-30050D01*
X52831Y-30073D01*
X52842Y-30084D01*
X52865Y-30095D01*
X52910Y-30095D01*
X52932Y-30084D01*
X52943Y-30073D01*
X52955Y-30050D01*
X52955Y-29859D01*
X53191Y-30095D02*
X53056Y-30095D01*
X53123Y-30095D02*
X53123Y-29859D01*
X53101Y-29893D01*
X53078Y-29915D01*
X53056Y-29926D01*
G54D12*
X52679Y-29105D02*
X52721Y-29119D01*
X52791Y-29119D01*
X52819Y-29105D01*
X52833Y-29091D01*
X52847Y-29063D01*
X52847Y-29035D01*
X52833Y-29007D01*
X52819Y-28992D01*
X52791Y-28978D01*
X52735Y-28964D01*
X52707Y-28950D01*
X52693Y-28936D01*
X52679Y-28908D01*
X52679Y-28880D01*
X52693Y-28852D01*
X52707Y-28838D01*
X52735Y-28824D01*
X52805Y-28824D01*
X52847Y-28838D01*
X52974Y-29119D02*
X52974Y-28824D01*
X53143Y-29119D01*
X53143Y-28824D01*
X53255Y-28824D02*
X53452Y-28824D01*
X53325Y-29119D01*
X53691Y-28922D02*
X53691Y-29119D01*
X53621Y-28810D02*
X53550Y-29021D01*
X53733Y-29021D01*
X53986Y-29119D02*
X53846Y-29119D01*
X53846Y-28824D01*
X54043Y-28824D02*
X54141Y-29119D01*
X54239Y-28824D01*
X54507Y-29091D02*
X54492Y-29105D01*
X54450Y-29119D01*
X54422Y-29119D01*
X54380Y-29105D01*
X54352Y-29077D01*
X54338Y-29049D01*
X54324Y-28992D01*
X54324Y-28950D01*
X54338Y-28894D01*
X54352Y-28866D01*
X54380Y-28838D01*
X54422Y-28824D01*
X54450Y-28824D01*
X54492Y-28838D01*
X54507Y-28852D01*
X54788Y-29119D02*
X54619Y-29119D01*
X54703Y-29119D02*
X54703Y-28824D01*
X54675Y-28866D01*
X54647Y-28894D01*
X54619Y-28908D01*
X54872Y-28824D02*
X55041Y-28824D01*
X54956Y-29119D02*
X54956Y-28824D01*
X55266Y-28922D02*
X55266Y-29119D01*
X55196Y-28810D02*
X55125Y-29021D01*
X55308Y-29021D01*
X55561Y-28824D02*
X55420Y-28824D01*
X55406Y-28964D01*
X55420Y-28950D01*
X55449Y-28936D01*
X55519Y-28936D01*
X55547Y-28950D01*
X55561Y-28964D01*
X55575Y-28992D01*
X55575Y-29063D01*
X55561Y-29091D01*
X55547Y-29105D01*
X55519Y-29119D01*
X55449Y-29119D01*
X55420Y-29105D01*
X55406Y-29091D01*
X55899Y-29119D02*
X56053Y-28922D01*
X55899Y-28922D02*
X56053Y-29119D01*
X56138Y-28824D02*
X56320Y-28824D01*
X56222Y-28936D01*
X56264Y-28936D01*
X56292Y-28950D01*
X56306Y-28964D01*
X56320Y-28992D01*
X56320Y-29063D01*
X56306Y-29091D01*
X56292Y-29105D01*
X56264Y-29119D01*
X56180Y-29119D01*
X56152Y-29105D01*
X56138Y-29091D01*
G54D11*
X61764Y-29339D02*
X61764Y-28748D01*
X61989Y-28748D01*
X62045Y-28776D01*
X62073Y-28804D01*
X62101Y-28860D01*
X62101Y-28945D01*
X62073Y-29001D01*
X62045Y-29029D01*
X61989Y-29057D01*
X61764Y-29057D01*
X62664Y-29339D02*
X62326Y-29339D01*
X62495Y-29339D02*
X62495Y-28748D01*
X62439Y-28832D01*
X62382Y-28889D01*
X62326Y-28917D01*
X64039Y-32076D02*
X63448Y-32076D01*
X63982Y-31457D02*
X64010Y-31485D01*
X64039Y-31570D01*
X64039Y-31626D01*
X64010Y-31710D01*
X63954Y-31767D01*
X63898Y-31795D01*
X63785Y-31823D01*
X63701Y-31823D01*
X63589Y-31795D01*
X63532Y-31767D01*
X63476Y-31710D01*
X63448Y-31626D01*
X63448Y-31570D01*
X63476Y-31485D01*
X63504Y-31457D01*
X63448Y-31260D02*
X63448Y-30895D01*
X63673Y-31092D01*
X63673Y-31007D01*
X63701Y-30951D01*
X63729Y-30923D01*
X63785Y-30895D01*
X63926Y-30895D01*
X63982Y-30923D01*
X64010Y-30951D01*
X64039Y-31007D01*
X64039Y-31176D01*
X64010Y-31232D01*
X63982Y-31260D01*
X64927Y-33215D02*
X64955Y-33243D01*
X64983Y-33327D01*
X64983Y-33384D01*
X64955Y-33468D01*
X64899Y-33524D01*
X64843Y-33552D01*
X64730Y-33580D01*
X64646Y-33580D01*
X64533Y-33552D01*
X64477Y-33524D01*
X64421Y-33468D01*
X64393Y-33384D01*
X64393Y-33327D01*
X64421Y-33243D01*
X64449Y-33215D01*
X64815Y-32990D02*
X64815Y-32709D01*
X64983Y-33046D02*
X64393Y-32849D01*
X64983Y-32652D01*
X64393Y-32540D02*
X64393Y-32203D01*
X64983Y-32371D02*
X64393Y-32371D01*
X64449Y-32034D02*
X64421Y-32006D01*
X64393Y-31949D01*
X64393Y-31809D01*
X64421Y-31753D01*
X64449Y-31724D01*
X64505Y-31696D01*
X64562Y-31696D01*
X64646Y-31724D01*
X64983Y-32062D01*
X64983Y-31696D01*
X64590Y-31190D02*
X64983Y-31190D01*
X64365Y-31331D02*
X64787Y-31471D01*
X64787Y-31106D01*
X64927Y-30543D02*
X64955Y-30571D01*
X64983Y-30656D01*
X64983Y-30712D01*
X64955Y-30796D01*
X64899Y-30853D01*
X64843Y-30881D01*
X64730Y-30909D01*
X64646Y-30909D01*
X64533Y-30881D01*
X64477Y-30853D01*
X64421Y-30796D01*
X64393Y-30712D01*
X64393Y-30656D01*
X64421Y-30571D01*
X64449Y-30543D01*
X64393Y-30347D02*
X64393Y-29981D01*
X64618Y-30178D01*
X64618Y-30093D01*
X64646Y-30037D01*
X64674Y-30009D01*
X64730Y-29981D01*
X64871Y-29981D01*
X64927Y-30009D01*
X64955Y-30037D01*
X64983Y-30093D01*
X64983Y-30262D01*
X64955Y-30318D01*
X64927Y-30347D01*
X64449Y-29756D02*
X64421Y-29728D01*
X64393Y-29672D01*
X64393Y-29531D01*
X64421Y-29475D01*
X64449Y-29447D01*
X64505Y-29419D01*
X64562Y-29419D01*
X64646Y-29447D01*
X64983Y-29784D01*
X64983Y-29419D01*
X51123Y-37239D02*
X51123Y-36648D01*
X51742Y-37182D02*
X51714Y-37210D01*
X51629Y-37239D01*
X51573Y-37239D01*
X51489Y-37210D01*
X51432Y-37154D01*
X51404Y-37098D01*
X51376Y-36985D01*
X51376Y-36901D01*
X51404Y-36789D01*
X51432Y-36732D01*
X51489Y-36676D01*
X51573Y-36648D01*
X51629Y-36648D01*
X51714Y-36676D01*
X51742Y-36704D01*
X52304Y-37239D02*
X51967Y-37239D01*
X52135Y-37239D02*
X52135Y-36648D01*
X52079Y-36732D01*
X52023Y-36789D01*
X51967Y-36817D01*
X48100Y-38015D02*
X48381Y-38015D01*
X48044Y-38183D02*
X48241Y-37593D01*
X48437Y-38183D01*
X48550Y-37593D02*
X48887Y-37593D01*
X48719Y-38183D02*
X48719Y-37593D01*
X49084Y-38183D02*
X49084Y-37593D01*
X49281Y-38015D01*
X49478Y-37593D01*
X49478Y-38183D01*
X49759Y-37874D02*
X49956Y-37874D01*
X50040Y-38183D02*
X49759Y-38183D01*
X49759Y-37593D01*
X50040Y-37593D01*
X50603Y-37621D02*
X50547Y-37593D01*
X50462Y-37593D01*
X50378Y-37621D01*
X50322Y-37677D01*
X50293Y-37733D01*
X50265Y-37846D01*
X50265Y-37930D01*
X50293Y-38043D01*
X50322Y-38099D01*
X50378Y-38155D01*
X50462Y-38183D01*
X50518Y-38183D01*
X50603Y-38155D01*
X50631Y-38127D01*
X50631Y-37930D01*
X50518Y-37930D01*
X50856Y-38015D02*
X51137Y-38015D01*
X50800Y-38183D02*
X50996Y-37593D01*
X51193Y-38183D01*
X51700Y-38183D02*
X51362Y-38183D01*
X51531Y-38183D02*
X51531Y-37593D01*
X51475Y-37677D01*
X51418Y-37733D01*
X51362Y-37762D01*
X51924Y-37649D02*
X51953Y-37621D01*
X52009Y-37593D01*
X52149Y-37593D01*
X52206Y-37621D01*
X52234Y-37649D01*
X52262Y-37705D01*
X52262Y-37762D01*
X52234Y-37846D01*
X51896Y-38183D01*
X52262Y-38183D01*
X52599Y-37846D02*
X52543Y-37818D01*
X52515Y-37790D01*
X52487Y-37733D01*
X52487Y-37705D01*
X52515Y-37649D01*
X52543Y-37621D01*
X52599Y-37593D01*
X52712Y-37593D01*
X52768Y-37621D01*
X52796Y-37649D01*
X52824Y-37705D01*
X52824Y-37733D01*
X52796Y-37790D01*
X52768Y-37818D01*
X52712Y-37846D01*
X52599Y-37846D01*
X52543Y-37874D01*
X52515Y-37902D01*
X52487Y-37958D01*
X52487Y-38071D01*
X52515Y-38127D01*
X52543Y-38155D01*
X52599Y-38183D01*
X52712Y-38183D01*
X52768Y-38155D01*
X52796Y-38127D01*
X52824Y-38071D01*
X52824Y-37958D01*
X52796Y-37902D01*
X52768Y-37874D01*
X52712Y-37846D01*
X53331Y-37790D02*
X53331Y-38183D01*
X53190Y-37565D02*
X53049Y-37987D01*
X53415Y-37987D01*
X53640Y-38183D02*
X53640Y-37593D01*
X53865Y-37593D01*
X53921Y-37621D01*
X53949Y-37649D01*
X53977Y-37705D01*
X53977Y-37790D01*
X53949Y-37846D01*
X53921Y-37874D01*
X53865Y-37902D01*
X53640Y-37902D01*
X54230Y-37958D02*
X54680Y-37958D01*
X54962Y-38183D02*
X54962Y-37593D01*
X55187Y-37593D01*
X55243Y-37621D01*
X55271Y-37649D01*
X55299Y-37705D01*
X55299Y-37790D01*
X55271Y-37846D01*
X55243Y-37874D01*
X55187Y-37902D01*
X54962Y-37902D01*
X42050Y-41639D02*
X41853Y-41357D01*
X41713Y-41639D02*
X41713Y-41048D01*
X41938Y-41048D01*
X41994Y-41076D01*
X42022Y-41104D01*
X42050Y-41160D01*
X42050Y-41245D01*
X42022Y-41301D01*
X41994Y-41329D01*
X41938Y-41357D01*
X41713Y-41357D01*
X42556Y-41639D02*
X42556Y-41329D01*
X42528Y-41273D01*
X42472Y-41245D01*
X42359Y-41245D01*
X42303Y-41273D01*
X42556Y-41610D02*
X42500Y-41639D01*
X42359Y-41639D01*
X42303Y-41610D01*
X42275Y-41554D01*
X42275Y-41498D01*
X42303Y-41442D01*
X42359Y-41414D01*
X42500Y-41414D01*
X42556Y-41385D01*
X42837Y-41245D02*
X42837Y-41639D01*
X42837Y-41301D02*
X42866Y-41273D01*
X42922Y-41245D01*
X43006Y-41245D01*
X43062Y-41273D01*
X43091Y-41329D01*
X43091Y-41639D01*
X43625Y-41610D02*
X43569Y-41639D01*
X43456Y-41639D01*
X43400Y-41610D01*
X43372Y-41582D01*
X43344Y-41526D01*
X43344Y-41357D01*
X43372Y-41301D01*
X43400Y-41273D01*
X43456Y-41245D01*
X43569Y-41245D01*
X43625Y-41273D01*
X43878Y-41639D02*
X43878Y-41048D01*
X44131Y-41639D02*
X44131Y-41329D01*
X44103Y-41273D01*
X44047Y-41245D01*
X43962Y-41245D01*
X43906Y-41273D01*
X43878Y-41301D01*
X44497Y-41639D02*
X44440Y-41610D01*
X44412Y-41582D01*
X44384Y-41526D01*
X44384Y-41357D01*
X44412Y-41301D01*
X44440Y-41273D01*
X44497Y-41245D01*
X44581Y-41245D01*
X44637Y-41273D01*
X44665Y-41301D01*
X44693Y-41357D01*
X44693Y-41526D01*
X44665Y-41582D01*
X44637Y-41610D01*
X44581Y-41639D01*
X44497Y-41639D01*
X45396Y-41639D02*
X45396Y-41048D01*
X45396Y-41329D02*
X45734Y-41329D01*
X45734Y-41639D02*
X45734Y-41048D01*
X45959Y-41245D02*
X46100Y-41639D01*
X46240Y-41245D02*
X46100Y-41639D01*
X46043Y-41779D01*
X46015Y-41807D01*
X45959Y-41835D01*
X46465Y-41639D02*
X46465Y-41245D01*
X46465Y-41357D02*
X46493Y-41301D01*
X46521Y-41273D01*
X46578Y-41245D01*
X46634Y-41245D01*
X47084Y-41639D02*
X47084Y-41048D01*
X47084Y-41610D02*
X47028Y-41639D01*
X46915Y-41639D01*
X46859Y-41610D01*
X46831Y-41582D01*
X46803Y-41526D01*
X46803Y-41357D01*
X46831Y-41301D01*
X46859Y-41273D01*
X46915Y-41245D01*
X47028Y-41245D01*
X47084Y-41273D01*
X47449Y-41639D02*
X47393Y-41610D01*
X47365Y-41582D01*
X47337Y-41526D01*
X47337Y-41357D01*
X47365Y-41301D01*
X47393Y-41273D01*
X47449Y-41245D01*
X47534Y-41245D01*
X47590Y-41273D01*
X47618Y-41301D01*
X47646Y-41357D01*
X47646Y-41526D01*
X47618Y-41582D01*
X47590Y-41610D01*
X47534Y-41639D01*
X47449Y-41639D01*
X47899Y-41245D02*
X47899Y-41835D01*
X47899Y-41273D02*
X47956Y-41245D01*
X48068Y-41245D01*
X48124Y-41273D01*
X48152Y-41301D01*
X48180Y-41357D01*
X48180Y-41526D01*
X48152Y-41582D01*
X48124Y-41610D01*
X48068Y-41639D01*
X47956Y-41639D01*
X47899Y-41610D01*
X48518Y-41639D02*
X48462Y-41610D01*
X48434Y-41582D01*
X48405Y-41526D01*
X48405Y-41357D01*
X48434Y-41301D01*
X48462Y-41273D01*
X48518Y-41245D01*
X48602Y-41245D01*
X48659Y-41273D01*
X48687Y-41301D01*
X48715Y-41357D01*
X48715Y-41526D01*
X48687Y-41582D01*
X48659Y-41610D01*
X48602Y-41639D01*
X48518Y-41639D01*
X48968Y-41245D02*
X48968Y-41639D01*
X48968Y-41301D02*
X48996Y-41273D01*
X49052Y-41245D01*
X49137Y-41245D01*
X49193Y-41273D01*
X49221Y-41329D01*
X49221Y-41639D01*
X49502Y-41639D02*
X49502Y-41245D01*
X49502Y-41048D02*
X49474Y-41076D01*
X49502Y-41104D01*
X49530Y-41076D01*
X49502Y-41048D01*
X49502Y-41104D01*
X50037Y-41610D02*
X49980Y-41639D01*
X49868Y-41639D01*
X49812Y-41610D01*
X49783Y-41582D01*
X49755Y-41526D01*
X49755Y-41357D01*
X49783Y-41301D01*
X49812Y-41273D01*
X49868Y-41245D01*
X49980Y-41245D01*
X50037Y-41273D01*
X50261Y-41610D02*
X50318Y-41639D01*
X50430Y-41639D01*
X50486Y-41610D01*
X50515Y-41554D01*
X50515Y-41526D01*
X50486Y-41470D01*
X50430Y-41442D01*
X50346Y-41442D01*
X50290Y-41414D01*
X50261Y-41357D01*
X50261Y-41329D01*
X50290Y-41273D01*
X50346Y-41245D01*
X50430Y-41245D01*
X50486Y-41273D01*
X43400Y-42583D02*
X43400Y-41993D01*
X43400Y-42274D02*
X43737Y-42274D01*
X43737Y-42583D02*
X43737Y-41993D01*
X43962Y-42190D02*
X44103Y-42583D01*
X44243Y-42190D02*
X44103Y-42583D01*
X44047Y-42724D01*
X44019Y-42752D01*
X43962Y-42780D01*
X44722Y-42583D02*
X44722Y-41993D01*
X44722Y-42555D02*
X44665Y-42583D01*
X44553Y-42583D01*
X44497Y-42555D01*
X44468Y-42527D01*
X44440Y-42471D01*
X44440Y-42302D01*
X44468Y-42246D01*
X44497Y-42218D01*
X44553Y-42190D01*
X44665Y-42190D01*
X44722Y-42218D01*
X45003Y-42583D02*
X45003Y-42190D01*
X45003Y-42302D02*
X45031Y-42246D01*
X45059Y-42218D01*
X45115Y-42190D01*
X45171Y-42190D01*
X45453Y-42583D02*
X45396Y-42555D01*
X45368Y-42527D01*
X45340Y-42471D01*
X45340Y-42302D01*
X45368Y-42246D01*
X45396Y-42218D01*
X45453Y-42190D01*
X45537Y-42190D01*
X45593Y-42218D01*
X45621Y-42246D01*
X45650Y-42302D01*
X45650Y-42471D01*
X45621Y-42527D01*
X45593Y-42555D01*
X45537Y-42583D01*
X45453Y-42583D01*
X45903Y-42583D02*
X45903Y-41993D01*
X45903Y-42274D02*
X46240Y-42274D01*
X46240Y-42583D02*
X46240Y-41993D01*
X46493Y-42415D02*
X46774Y-42415D01*
X46437Y-42583D02*
X46634Y-41993D01*
X46831Y-42583D01*
X46943Y-41993D02*
X47281Y-41993D01*
X47112Y-42583D02*
X47112Y-41993D01*
X48265Y-42583D02*
X48068Y-42302D01*
X47927Y-42583D02*
X47927Y-41993D01*
X48152Y-41993D01*
X48209Y-42021D01*
X48237Y-42049D01*
X48265Y-42105D01*
X48265Y-42190D01*
X48237Y-42246D01*
X48209Y-42274D01*
X48152Y-42302D01*
X47927Y-42302D01*
X48827Y-42583D02*
X48490Y-42583D01*
X48659Y-42583D02*
X48659Y-41993D01*
X48602Y-42077D01*
X48546Y-42133D01*
X48490Y-42162D01*
X59801Y-43382D02*
X59773Y-43410D01*
X59689Y-43439D01*
X59632Y-43439D01*
X59548Y-43410D01*
X59492Y-43354D01*
X59464Y-43298D01*
X59435Y-43185D01*
X59435Y-43101D01*
X59464Y-42989D01*
X59492Y-42932D01*
X59548Y-42876D01*
X59632Y-42848D01*
X59689Y-42848D01*
X59773Y-42876D01*
X59801Y-42904D01*
X60307Y-43045D02*
X60307Y-43439D01*
X60167Y-42820D02*
X60026Y-43242D01*
X60392Y-43242D01*
X56464Y-42539D02*
X56464Y-41948D01*
X56689Y-41948D01*
X56745Y-41976D01*
X56773Y-42004D01*
X56801Y-42060D01*
X56801Y-42145D01*
X56773Y-42201D01*
X56745Y-42229D01*
X56689Y-42257D01*
X56464Y-42257D01*
X57307Y-41948D02*
X57195Y-41948D01*
X57139Y-41976D01*
X57110Y-42004D01*
X57054Y-42089D01*
X57026Y-42201D01*
X57026Y-42426D01*
X57054Y-42482D01*
X57082Y-42510D01*
X57139Y-42539D01*
X57251Y-42539D01*
X57307Y-42510D01*
X57335Y-42482D01*
X57364Y-42426D01*
X57364Y-42285D01*
X57335Y-42229D01*
X57307Y-42201D01*
X57251Y-42173D01*
X57139Y-42173D01*
X57082Y-42201D01*
X57054Y-42229D01*
X57026Y-42285D01*
X46292Y-47039D02*
X45954Y-47039D01*
X46123Y-47039D02*
X46123Y-46448D01*
X46067Y-46532D01*
X46011Y-46589D01*
X45954Y-46617D01*
X46657Y-46448D02*
X46714Y-46448D01*
X46770Y-46476D01*
X46798Y-46504D01*
X46826Y-46560D01*
X46854Y-46673D01*
X46854Y-46814D01*
X46826Y-46926D01*
X46798Y-46982D01*
X46770Y-47010D01*
X46714Y-47039D01*
X46657Y-47039D01*
X46601Y-47010D01*
X46573Y-46982D01*
X46545Y-46926D01*
X46517Y-46814D01*
X46517Y-46673D01*
X46545Y-46560D01*
X46573Y-46504D01*
X46601Y-46476D01*
X46657Y-46448D01*
X47107Y-47039D02*
X47107Y-46448D01*
X47445Y-47039D02*
X47192Y-46701D01*
X47445Y-46448D02*
X47107Y-46785D01*
X49664Y-45739D02*
X49664Y-45148D01*
X49889Y-45148D01*
X49945Y-45176D01*
X49973Y-45204D01*
X50001Y-45260D01*
X50001Y-45345D01*
X49973Y-45401D01*
X49945Y-45429D01*
X49889Y-45457D01*
X49664Y-45457D01*
X50507Y-45345D02*
X50507Y-45739D01*
X50367Y-45120D02*
X50226Y-45542D01*
X50592Y-45542D01*
X52212Y-42610D02*
X52296Y-42639D01*
X52437Y-42639D01*
X52493Y-42610D01*
X52521Y-42582D01*
X52550Y-42526D01*
X52550Y-42470D01*
X52521Y-42414D01*
X52493Y-42385D01*
X52437Y-42357D01*
X52325Y-42329D01*
X52268Y-42301D01*
X52240Y-42273D01*
X52212Y-42217D01*
X52212Y-42160D01*
X52240Y-42104D01*
X52268Y-42076D01*
X52325Y-42048D01*
X52465Y-42048D01*
X52550Y-42076D01*
X52746Y-42048D02*
X52887Y-42639D01*
X53000Y-42217D01*
X53112Y-42639D01*
X53253Y-42048D01*
X53787Y-42639D02*
X53449Y-42639D01*
X53618Y-42639D02*
X53618Y-42048D01*
X53562Y-42132D01*
X53506Y-42189D01*
X53449Y-42217D01*
X52101Y-46782D02*
X52073Y-46810D01*
X51989Y-46839D01*
X51932Y-46839D01*
X51848Y-46810D01*
X51792Y-46754D01*
X51764Y-46698D01*
X51735Y-46585D01*
X51735Y-46501D01*
X51764Y-46389D01*
X51792Y-46332D01*
X51848Y-46276D01*
X51932Y-46248D01*
X51989Y-46248D01*
X52073Y-46276D01*
X52101Y-46304D01*
X52664Y-46839D02*
X52326Y-46839D01*
X52495Y-46839D02*
X52495Y-46248D01*
X52439Y-46332D01*
X52382Y-46389D01*
X52326Y-46417D01*
X57803Y-44548D02*
X57803Y-44970D01*
X57775Y-45054D01*
X57718Y-45110D01*
X57634Y-45139D01*
X57578Y-45139D01*
X58393Y-45139D02*
X58056Y-45139D01*
X58224Y-45139D02*
X58224Y-44548D01*
X58168Y-44632D01*
X58112Y-44689D01*
X58056Y-44717D01*
X62839Y-43576D02*
X62248Y-43576D01*
X62782Y-42957D02*
X62810Y-42985D01*
X62839Y-43070D01*
X62839Y-43126D01*
X62810Y-43210D01*
X62754Y-43267D01*
X62698Y-43295D01*
X62585Y-43323D01*
X62501Y-43323D01*
X62389Y-43295D01*
X62332Y-43267D01*
X62276Y-43210D01*
X62248Y-43126D01*
X62248Y-43070D01*
X62276Y-42985D01*
X62304Y-42957D01*
X62304Y-42732D02*
X62276Y-42704D01*
X62248Y-42648D01*
X62248Y-42507D01*
X62276Y-42451D01*
X62304Y-42423D01*
X62360Y-42395D01*
X62417Y-42395D01*
X62501Y-42423D01*
X62839Y-42760D01*
X62839Y-42395D01*
X63474Y-44518D02*
X63474Y-44715D01*
X63783Y-44715D02*
X63193Y-44715D01*
X63193Y-44434D01*
X63193Y-44293D02*
X63193Y-43956D01*
X63783Y-44124D02*
X63193Y-44124D01*
X63249Y-43787D02*
X63221Y-43759D01*
X63193Y-43703D01*
X63193Y-43562D01*
X63221Y-43506D01*
X63249Y-43478D01*
X63305Y-43449D01*
X63362Y-43449D01*
X63446Y-43478D01*
X63783Y-43815D01*
X63783Y-43449D01*
X63193Y-43253D02*
X63193Y-42887D01*
X63418Y-43084D01*
X63418Y-43000D01*
X63446Y-42943D01*
X63474Y-42915D01*
X63530Y-42887D01*
X63671Y-42887D01*
X63727Y-42915D01*
X63755Y-42943D01*
X63783Y-43000D01*
X63783Y-43168D01*
X63755Y-43224D01*
X63727Y-43253D01*
X63249Y-42662D02*
X63221Y-42634D01*
X63193Y-42578D01*
X63193Y-42437D01*
X63221Y-42381D01*
X63249Y-42353D01*
X63305Y-42325D01*
X63362Y-42325D01*
X63446Y-42353D01*
X63783Y-42690D01*
X63783Y-42325D01*
X63783Y-41734D02*
X63502Y-41931D01*
X63783Y-42071D02*
X63193Y-42071D01*
X63193Y-41847D01*
X63221Y-41790D01*
X63249Y-41762D01*
X63305Y-41734D01*
X63390Y-41734D01*
X63446Y-41762D01*
X63474Y-41790D01*
X63502Y-41847D01*
X63502Y-42071D01*
X63783Y-41200D02*
X63783Y-41481D01*
X63193Y-41481D01*
X65801Y-42382D02*
X65773Y-42410D01*
X65689Y-42439D01*
X65632Y-42439D01*
X65548Y-42410D01*
X65492Y-42354D01*
X65464Y-42298D01*
X65435Y-42185D01*
X65435Y-42101D01*
X65464Y-41989D01*
X65492Y-41932D01*
X65548Y-41876D01*
X65632Y-41848D01*
X65689Y-41848D01*
X65773Y-41876D01*
X65801Y-41904D01*
X65998Y-41848D02*
X66364Y-41848D01*
X66167Y-42073D01*
X66251Y-42073D01*
X66307Y-42101D01*
X66335Y-42129D01*
X66364Y-42185D01*
X66364Y-42326D01*
X66335Y-42382D01*
X66307Y-42410D01*
X66251Y-42439D01*
X66082Y-42439D01*
X66026Y-42410D01*
X65998Y-42382D01*
G54D13*
X62000Y-31000D02*
X58000Y-31000D01*
X62000Y-34000D02*
X62000Y-31000D01*
X58000Y-34000D02*
X62000Y-34000D01*
X58000Y-31000D02*
X58000Y-34000D01*
G54D11*
X59423Y-31839D02*
X59423Y-31248D01*
X59676Y-31304D02*
X59704Y-31276D01*
X59760Y-31248D01*
X59901Y-31248D01*
X59957Y-31276D01*
X59985Y-31304D01*
X60014Y-31360D01*
X60014Y-31417D01*
X59985Y-31501D01*
X59648Y-31839D01*
X60014Y-31839D01*
X60604Y-31782D02*
X60576Y-31810D01*
X60492Y-31839D01*
X60435Y-31839D01*
X60351Y-31810D01*
X60295Y-31754D01*
X60267Y-31698D01*
X60239Y-31585D01*
X60239Y-31501D01*
X60267Y-31389D01*
X60295Y-31332D01*
X60351Y-31276D01*
X60435Y-31248D01*
X60492Y-31248D01*
X60576Y-31276D01*
X60604Y-31304D01*
X44847Y-30945D02*
X44847Y-31339D01*
X44706Y-30720D02*
X44565Y-31142D01*
X44931Y-31142D01*
X45156Y-31339D02*
X45156Y-30748D01*
X45296Y-30748D01*
X45381Y-30776D01*
X45437Y-30832D01*
X45465Y-30889D01*
X45493Y-31001D01*
X45493Y-31085D01*
X45465Y-31198D01*
X45437Y-31254D01*
X45381Y-31310D01*
X45296Y-31339D01*
X45156Y-31339D01*
X46168Y-31310D02*
X46253Y-31339D01*
X46393Y-31339D01*
X46449Y-31310D01*
X46478Y-31282D01*
X46506Y-31226D01*
X46506Y-31170D01*
X46478Y-31114D01*
X46449Y-31085D01*
X46393Y-31057D01*
X46281Y-31029D01*
X46224Y-31001D01*
X46196Y-30973D01*
X46168Y-30917D01*
X46168Y-30860D01*
X46196Y-30804D01*
X46224Y-30776D01*
X46281Y-30748D01*
X46421Y-30748D01*
X46506Y-30776D01*
X46703Y-30945D02*
X46843Y-31339D01*
X46984Y-30945D02*
X46843Y-31339D01*
X46787Y-31479D01*
X46759Y-31507D01*
X46703Y-31535D01*
X47181Y-31310D02*
X47237Y-31339D01*
X47349Y-31339D01*
X47406Y-31310D01*
X47434Y-31254D01*
X47434Y-31226D01*
X47406Y-31170D01*
X47349Y-31142D01*
X47265Y-31142D01*
X47209Y-31114D01*
X47181Y-31057D01*
X47181Y-31029D01*
X47209Y-30973D01*
X47265Y-30945D01*
X47349Y-30945D01*
X47406Y-30973D01*
X42304Y-33139D02*
X42107Y-32857D01*
X41967Y-33139D02*
X41967Y-32548D01*
X42192Y-32548D01*
X42248Y-32576D01*
X42276Y-32604D01*
X42304Y-32660D01*
X42304Y-32745D01*
X42276Y-32801D01*
X42248Y-32829D01*
X42192Y-32857D01*
X41967Y-32857D01*
X42557Y-33139D02*
X42557Y-32548D01*
X42782Y-32548D01*
X42839Y-32576D01*
X42867Y-32604D01*
X42895Y-32660D01*
X42895Y-32745D01*
X42867Y-32801D01*
X42839Y-32829D01*
X42782Y-32857D01*
X42557Y-32857D01*
X43148Y-33139D02*
X43148Y-32745D01*
X43148Y-32548D02*
X43120Y-32576D01*
X43148Y-32604D01*
X43176Y-32576D01*
X43148Y-32548D01*
X43148Y-32604D01*
X43879Y-33139D02*
X43879Y-32548D01*
X44132Y-32604D02*
X44160Y-32576D01*
X44217Y-32548D01*
X44357Y-32548D01*
X44413Y-32576D01*
X44442Y-32604D01*
X44470Y-32660D01*
X44470Y-32717D01*
X44442Y-32801D01*
X44104Y-33139D01*
X44470Y-33139D01*
X45060Y-33082D02*
X45032Y-33110D01*
X44948Y-33139D01*
X44892Y-33139D01*
X44807Y-33110D01*
X44751Y-33054D01*
X44723Y-32998D01*
X44695Y-32885D01*
X44695Y-32801D01*
X44723Y-32689D01*
X44751Y-32632D01*
X44807Y-32576D01*
X44892Y-32548D01*
X44948Y-32548D01*
X45032Y-32576D01*
X45060Y-32604D01*
G54D10*
X53787Y-44000D02*
G75*
G03X53787Y-44000I-787J0D01*
G74*
G01*
X51818Y-42818D02*
X54181Y-42818D01*
X54181Y-42818D02*
X54181Y-45181D01*
X54181Y-45181D02*
X51818Y-45181D01*
X51818Y-45181D02*
X51818Y-42818D01*
G54D14*
X63991Y-45050D02*
G75*
G03X63991Y-45050I-141J0D01*
G74*
G01*
X62750Y-45250D02*
X62750Y-44950D01*
X62750Y-44950D02*
X63250Y-44950D01*
X63250Y-44950D02*
X63250Y-45250D01*
X64050Y-41200D02*
X64050Y-45250D01*
X61950Y-45250D02*
X61950Y-41200D01*
X61950Y-45250D02*
X64050Y-45250D01*
X61950Y-41200D02*
X64050Y-41200D01*
X56200Y-29700D02*
X56500Y-29900D01*
X55500Y-29700D02*
X56525Y-29700D01*
X56525Y-29700D02*
X56525Y-30300D01*
X56525Y-30300D02*
X55500Y-30300D01*
X55500Y-30300D02*
X55500Y-29700D01*
X54700Y-29700D02*
X55000Y-29900D01*
X54000Y-29700D02*
X55025Y-29700D01*
X55025Y-29700D02*
X55025Y-30300D01*
X55025Y-30300D02*
X54000Y-30300D01*
X54000Y-30300D02*
X54000Y-29700D01*
X53200Y-29700D02*
X53500Y-29900D01*
X52500Y-29700D02*
X53525Y-29700D01*
X53525Y-29700D02*
X53525Y-30300D01*
X53525Y-30300D02*
X52500Y-30300D01*
X52500Y-30300D02*
X52500Y-29700D01*
G54D15*
X62900Y-35900D02*
X63900Y-35900D01*
X63900Y-35900D02*
X63900Y-38900D01*
X63900Y-38900D02*
X62900Y-38900D01*
X62900Y-38900D02*
X62900Y-35900D01*
X63900Y-36900D02*
X62900Y-36900D01*
G54D16*
X45200Y-45900D02*
X45400Y-45900D01*
X48200Y-45900D02*
X48000Y-45900D01*
X48000Y-45900D02*
X48000Y-45500D01*
X48000Y-45500D02*
X45400Y-45500D01*
X45400Y-45500D02*
X45400Y-46300D01*
X45400Y-46300D02*
X48000Y-46300D01*
X48000Y-46300D02*
X48000Y-45900D01*
X45400Y-45700D02*
X45600Y-45500D01*
G54D15*
X44700Y-29200D02*
X44700Y-30200D01*
X49700Y-30200D02*
X49700Y-29200D01*
X44700Y-29200D02*
X49700Y-29200D01*
X49700Y-30200D02*
X44700Y-30200D01*
G54D17*
X58900Y-43800D02*
X54900Y-43800D01*
X58900Y-42800D02*
X54900Y-42800D01*
X54900Y-42800D02*
X54900Y-43800D01*
X58900Y-43800D02*
X58900Y-42800D01*
G54D18*
X61500Y-32400D02*
X61500Y-33400D01*
X61500Y-33400D02*
X58500Y-33400D01*
X58500Y-33400D02*
X58500Y-32400D01*
X58500Y-32400D02*
X61500Y-32400D01*
X60500Y-33400D02*
X60500Y-32400D01*
X44000Y-32300D02*
X43000Y-32300D01*
X43000Y-32300D02*
X43000Y-29300D01*
X43000Y-29300D02*
X44000Y-29300D01*
X44000Y-29300D02*
X44000Y-32300D01*
X43000Y-31300D02*
X44000Y-31300D01*
G54D15*
X63740Y-28559D02*
X43740Y-28559D01*
X63740Y-26559D02*
X43740Y-26559D01*
X63740Y-26559D02*
X63740Y-28559D01*
X43740Y-26559D02*
X43740Y-28559D01*
G54D10*
X41000Y-43000D02*
X41000Y-45000D01*
X41000Y-45000D02*
X51000Y-45000D01*
X51000Y-45000D02*
X51000Y-43000D01*
X51000Y-43000D02*
X41000Y-43000D01*
G54D17*
X64800Y-29500D02*
X64800Y-30000D01*
X64800Y-30000D02*
X63800Y-30000D01*
X63800Y-30000D02*
X63800Y-29500D01*
X65300Y-29500D02*
X65300Y-33500D01*
X65300Y-33500D02*
X63300Y-33500D01*
X63300Y-33500D02*
X63300Y-29500D01*
X63300Y-29500D02*
X65300Y-29500D01*
G54D19*
X41500Y-37000D02*
X42000Y-37000D01*
X42000Y-37000D02*
X42000Y-38000D01*
X42000Y-38000D02*
X41500Y-38000D01*
X41500Y-35000D02*
X62500Y-35000D01*
X62500Y-35000D02*
X62500Y-40000D01*
X62500Y-40000D02*
X41500Y-40000D01*
X41500Y-40000D02*
X41500Y-35000D01*
G54D15*
X66400Y-42620D02*
X66400Y-44600D01*
X66400Y-44600D02*
X65400Y-44600D01*
X65400Y-44600D02*
X65400Y-42600D01*
X65400Y-42600D02*
X66400Y-42600D01*
X66150Y-42600D02*
X66400Y-42850D01*
X50980Y-31900D02*
X49000Y-31900D01*
X49000Y-31900D02*
X49000Y-30900D01*
X49000Y-30900D02*
X51000Y-30900D01*
X51000Y-30900D02*
X51000Y-31900D01*
X51000Y-31650D02*
X50750Y-31900D01*
X58920Y-41600D02*
X60900Y-41600D01*
X60900Y-41600D02*
X60900Y-42600D01*
X60900Y-42600D02*
X58900Y-42600D01*
X58900Y-42600D02*
X58900Y-41600D01*
X58900Y-41850D02*
X59150Y-41600D01*
X53230Y-48000D02*
X51250Y-48000D01*
X51250Y-48000D02*
X51250Y-47000D01*
X51250Y-47000D02*
X53250Y-47000D01*
X53250Y-47000D02*
X53250Y-48000D01*
X53250Y-47750D02*
X53000Y-48000D01*
G54D10*
X60370Y-48568D02*
X60370Y-44399D01*
X55629Y-48568D02*
X55629Y-44399D01*
X60893Y-44397D02*
X60893Y-48570D01*
X60893Y-48570D02*
X55106Y-48570D01*
X55106Y-48570D02*
X55106Y-44397D01*
X55106Y-44397D02*
X60893Y-44397D01*
M02*
