G04 (created by PCBNEW (2013-07-07 BZR 4022)-stable) date 9/25/2014 9:45:49 PM*
%MOIN*%
G04 Gerber Fmt 3.4, Leading zero omitted, Abs format*
%FSLAX34Y34*%
G01*
G70*
G90*
G04 APERTURE LIST*
%ADD10C,0.00590551*%
%ADD11C,0.0590551*%
%ADD12R,0.055X0.055*%
%ADD13C,0.055*%
%ADD14R,0.06X0.06*%
%ADD15C,0.06*%
%ADD16R,0.0590551X0.0590551*%
%ADD17C,0.11811*%
%ADD18C,0.244094*%
%ADD19C,0.035*%
%ADD20C,0.01*%
G04 APERTURE END LIST*
G54D10*
G54D11*
X54279Y-43114D03*
X54279Y-44885D03*
X51720Y-44885D03*
X51720Y-43114D03*
G54D12*
X63400Y-36400D03*
G54D13*
X63400Y-37400D03*
X63400Y-38400D03*
X45200Y-45900D03*
X48200Y-45900D03*
G54D14*
X45200Y-29700D03*
G54D15*
X46200Y-29700D03*
X47200Y-29700D03*
X48200Y-29700D03*
X49200Y-29700D03*
G54D14*
X55400Y-43300D03*
G54D15*
X56400Y-43300D03*
X57400Y-43300D03*
X58400Y-43300D03*
G54D14*
X61000Y-32900D03*
G54D15*
X60000Y-32900D03*
X59000Y-32900D03*
G54D14*
X43500Y-31800D03*
G54D15*
X43500Y-30800D03*
X43500Y-29800D03*
G54D14*
X44240Y-28059D03*
G54D15*
X44240Y-27059D03*
X49240Y-28059D03*
X45240Y-27059D03*
X50240Y-28059D03*
X46240Y-27059D03*
X51240Y-28059D03*
X47240Y-27059D03*
X52240Y-28059D03*
X48240Y-27059D03*
X53240Y-28059D03*
X49240Y-27059D03*
X54240Y-28059D03*
X50240Y-27059D03*
X55240Y-28059D03*
X51240Y-27059D03*
X56240Y-28059D03*
X52240Y-27059D03*
X57240Y-28059D03*
X53240Y-27059D03*
X58240Y-28059D03*
X54240Y-27059D03*
X59240Y-28059D03*
X55240Y-27059D03*
X56240Y-27059D03*
X60240Y-28059D03*
X57240Y-27059D03*
X59240Y-27059D03*
X60240Y-27059D03*
X61240Y-27059D03*
X62240Y-27059D03*
X61240Y-28059D03*
X62240Y-28059D03*
X45240Y-28059D03*
X46240Y-28059D03*
X47240Y-28059D03*
X48240Y-28059D03*
X63240Y-28059D03*
X63240Y-27059D03*
X58240Y-27059D03*
G54D16*
X41500Y-44500D03*
G54D11*
X42500Y-43500D03*
X43500Y-43500D03*
X44500Y-44500D03*
X44500Y-43500D03*
X45500Y-44500D03*
X45500Y-43500D03*
X46500Y-44500D03*
X46500Y-43500D03*
X47500Y-44500D03*
X47500Y-43500D03*
X48500Y-44500D03*
X48500Y-43500D03*
X49500Y-44500D03*
X49500Y-43500D03*
X50500Y-44500D03*
X50500Y-43500D03*
X41500Y-43500D03*
X42500Y-44500D03*
X43500Y-44500D03*
G54D12*
X62800Y-30000D03*
G54D13*
X62800Y-31000D03*
X62800Y-32000D03*
X62800Y-33000D03*
X65800Y-33000D03*
X65800Y-32000D03*
X65800Y-31000D03*
X65800Y-30000D03*
G54D12*
X42500Y-40500D03*
G54D13*
X43500Y-40500D03*
X44500Y-40500D03*
X45500Y-40500D03*
X46500Y-40500D03*
X47500Y-40500D03*
X48500Y-40500D03*
X49500Y-40500D03*
X50500Y-40500D03*
X51500Y-40500D03*
X52500Y-40500D03*
X53500Y-40500D03*
X54500Y-40500D03*
X55500Y-40500D03*
X56500Y-40500D03*
X57500Y-40500D03*
X58500Y-40500D03*
X59500Y-40500D03*
X60500Y-40500D03*
X61500Y-40500D03*
X61500Y-34500D03*
X60500Y-34500D03*
X59500Y-34500D03*
X58500Y-34500D03*
X57500Y-34500D03*
X56500Y-34500D03*
X55500Y-34500D03*
X54500Y-34500D03*
X53500Y-34500D03*
X52500Y-34500D03*
X51500Y-34500D03*
X50500Y-34500D03*
X49500Y-34500D03*
X48500Y-34500D03*
X47500Y-34500D03*
X46500Y-34500D03*
X45500Y-34500D03*
X44500Y-34500D03*
X43500Y-34500D03*
X42500Y-34500D03*
X65900Y-43100D03*
X65900Y-44100D03*
X50500Y-31400D03*
X49500Y-31400D03*
X59400Y-42100D03*
X60400Y-42100D03*
X52750Y-47500D03*
X51750Y-47500D03*
G54D17*
X60370Y-46750D03*
X55629Y-46750D03*
G54D11*
X58492Y-45844D03*
X57507Y-45844D03*
X57507Y-47124D03*
X58492Y-47124D03*
G54D18*
X42322Y-46653D03*
X42322Y-27559D03*
X65157Y-27559D03*
X65157Y-46653D03*
G54D19*
X63500Y-43000D03*
X58500Y-41500D03*
X57500Y-41500D03*
X50500Y-35800D03*
X63250Y-44250D03*
X60250Y-43000D03*
X56299Y-31299D03*
X53346Y-31299D03*
G54D20*
X45500Y-40500D02*
X45500Y-43500D01*
X44500Y-43500D02*
X44500Y-40500D01*
X43500Y-40500D02*
X43500Y-43500D01*
X42500Y-43500D02*
X42500Y-40500D01*
X65900Y-43100D02*
X63600Y-43100D01*
X63600Y-43100D02*
X63500Y-43000D01*
X62800Y-33000D02*
X62000Y-33800D01*
X60900Y-33800D02*
X60000Y-32900D01*
X62000Y-33800D02*
X60900Y-33800D01*
X63400Y-37400D02*
X62400Y-37400D01*
X60000Y-35000D02*
X60000Y-32900D01*
X62400Y-37400D02*
X60000Y-35000D01*
X55629Y-46750D02*
X54279Y-45399D01*
X54279Y-45399D02*
X54279Y-44885D01*
X58492Y-47124D02*
X58492Y-47750D01*
X58492Y-47750D02*
X58500Y-47750D01*
X54279Y-44885D02*
X54279Y-45399D01*
X59370Y-47750D02*
X60370Y-46750D01*
X56629Y-47750D02*
X58500Y-47750D01*
X58500Y-47750D02*
X59370Y-47750D01*
X54279Y-45399D02*
X56629Y-47750D01*
X52500Y-40500D02*
X52000Y-41000D01*
X51000Y-35000D02*
X51500Y-34500D01*
X51000Y-41000D02*
X51000Y-35000D01*
X52000Y-41000D02*
X51000Y-41000D01*
X57240Y-27059D02*
X57700Y-27518D01*
X65300Y-31500D02*
X65800Y-32000D01*
X59400Y-31500D02*
X65300Y-31500D01*
X57700Y-29800D02*
X59400Y-31500D01*
X57700Y-27518D02*
X57700Y-29800D01*
X57240Y-28059D02*
X57240Y-29740D01*
X65300Y-32500D02*
X65800Y-33000D01*
X62200Y-32500D02*
X65300Y-32500D01*
X61600Y-31900D02*
X62200Y-32500D01*
X59400Y-31900D02*
X61600Y-31900D01*
X57240Y-29740D02*
X59400Y-31900D01*
X43500Y-31800D02*
X44100Y-31800D01*
X45700Y-28599D02*
X46240Y-28059D01*
X45700Y-30200D02*
X45700Y-28599D01*
X44100Y-31800D02*
X45700Y-30200D01*
X42500Y-34500D02*
X42000Y-35000D01*
X42000Y-44000D02*
X42500Y-44500D01*
X42000Y-35000D02*
X42000Y-44000D01*
X43500Y-44500D02*
X43000Y-44000D01*
X43000Y-35000D02*
X43500Y-34500D01*
X43000Y-44000D02*
X43000Y-35000D01*
X44500Y-34500D02*
X44000Y-35000D01*
X44000Y-44000D02*
X44500Y-44500D01*
X44000Y-35000D02*
X44000Y-44000D01*
X45500Y-44500D02*
X45000Y-44000D01*
X45000Y-35000D02*
X45500Y-34500D01*
X45000Y-44000D02*
X45000Y-35000D01*
X46500Y-44500D02*
X46000Y-44000D01*
X46000Y-35000D02*
X46500Y-34500D01*
X46000Y-44000D02*
X46000Y-35000D01*
X47500Y-44500D02*
X47000Y-44000D01*
X47000Y-35000D02*
X47500Y-34500D01*
X47000Y-44000D02*
X47000Y-35000D01*
X48500Y-44500D02*
X48000Y-44000D01*
X48000Y-35000D02*
X48500Y-34500D01*
X48000Y-44000D02*
X48000Y-35000D01*
X58500Y-41500D02*
X58500Y-40500D01*
X57500Y-41500D02*
X57500Y-40500D01*
X49500Y-44500D02*
X49000Y-44000D01*
X49000Y-35000D02*
X49500Y-34500D01*
X49000Y-44000D02*
X49000Y-35000D01*
X50500Y-40500D02*
X50500Y-35800D01*
X48240Y-27059D02*
X47700Y-27599D01*
X47700Y-29200D02*
X48200Y-29700D01*
X47700Y-27599D02*
X47700Y-29200D01*
X47240Y-27059D02*
X46700Y-27599D01*
X46700Y-29200D02*
X47200Y-29700D01*
X46700Y-27599D02*
X46700Y-29200D01*
X63250Y-44250D02*
X65750Y-44250D01*
X65750Y-44250D02*
X65900Y-44100D01*
X55400Y-43300D02*
X55400Y-42600D01*
X60250Y-43000D02*
X59850Y-42600D01*
X52200Y-39800D02*
X51500Y-40500D01*
X52700Y-39800D02*
X52200Y-39800D01*
X53000Y-40100D02*
X52700Y-39800D01*
X53000Y-41000D02*
X53000Y-40100D01*
X54600Y-42600D02*
X53000Y-41000D01*
X54700Y-42600D02*
X54600Y-42600D01*
X59850Y-42600D02*
X55400Y-42600D01*
X55400Y-42600D02*
X54700Y-42600D01*
X45200Y-45900D02*
X44300Y-45000D01*
X42000Y-45000D02*
X41500Y-44500D01*
X44300Y-45000D02*
X42000Y-45000D01*
X49200Y-29700D02*
X50200Y-30700D01*
X52199Y-31299D02*
X53346Y-31299D01*
X51600Y-30700D02*
X52199Y-31299D01*
X50200Y-30700D02*
X51600Y-30700D01*
X45240Y-27059D02*
X45799Y-26500D01*
X48700Y-29200D02*
X49200Y-29700D01*
X48700Y-26800D02*
X48700Y-29200D01*
X48400Y-26500D02*
X48700Y-26800D01*
X45799Y-26500D02*
X48400Y-26500D01*
X60250Y-43000D02*
X61500Y-44250D01*
X61500Y-44250D02*
X63250Y-44250D01*
X53346Y-31299D02*
X56299Y-31299D01*
X52500Y-34500D02*
X52500Y-32145D01*
X52500Y-32145D02*
X53346Y-31299D01*
X41500Y-44500D02*
X41500Y-43500D01*
X41500Y-43500D02*
X41500Y-34500D01*
X41500Y-34500D02*
X42500Y-33500D01*
X42500Y-33500D02*
X51500Y-33500D01*
X51500Y-33500D02*
X52500Y-34500D01*
X51500Y-40500D02*
X51500Y-39750D01*
X51500Y-38000D02*
X52500Y-37000D01*
X52500Y-37000D02*
X52500Y-34500D01*
X51500Y-39750D02*
X51500Y-38000D01*
G54D10*
G36*
X41853Y-45256D02*
X41490Y-45406D01*
X41250Y-45646D01*
X41250Y-45045D01*
X41254Y-45045D01*
X41621Y-45045D01*
X41787Y-45212D01*
X41787Y-45212D01*
X41853Y-45256D01*
X41853Y-45256D01*
G37*
G54D20*
X41853Y-45256D02*
X41490Y-45406D01*
X41250Y-45646D01*
X41250Y-45045D01*
X41254Y-45045D01*
X41621Y-45045D01*
X41787Y-45212D01*
X41787Y-45212D01*
X41853Y-45256D01*
G54D10*
G36*
X41975Y-34449D02*
X41974Y-34600D01*
X41800Y-34775D01*
X41800Y-34624D01*
X41975Y-34449D01*
X41975Y-34449D01*
G37*
G54D20*
X41975Y-34449D02*
X41974Y-34600D01*
X41800Y-34775D01*
X41800Y-34624D01*
X41975Y-34449D01*
G54D10*
G36*
X42703Y-34984D02*
X42700Y-35000D01*
X42700Y-39974D01*
X42300Y-39974D01*
X42300Y-35124D01*
X42399Y-35024D01*
X42603Y-35025D01*
X42703Y-34984D01*
X42703Y-34984D01*
G37*
G54D20*
X42703Y-34984D02*
X42700Y-35000D01*
X42700Y-39974D01*
X42300Y-39974D01*
X42300Y-35124D01*
X42399Y-35024D01*
X42603Y-35025D01*
X42703Y-34984D01*
G54D10*
G36*
X43703Y-34984D02*
X43700Y-35000D01*
X43700Y-40014D01*
X43604Y-39975D01*
X43396Y-39974D01*
X43300Y-40014D01*
X43300Y-35124D01*
X43399Y-35024D01*
X43603Y-35025D01*
X43703Y-34984D01*
X43703Y-34984D01*
G37*
G54D20*
X43703Y-34984D02*
X43700Y-35000D01*
X43700Y-40014D01*
X43604Y-39975D01*
X43396Y-39974D01*
X43300Y-40014D01*
X43300Y-35124D01*
X43399Y-35024D01*
X43603Y-35025D01*
X43703Y-34984D01*
G54D10*
G36*
X43912Y-27509D02*
X43890Y-27509D01*
X43798Y-27546D01*
X43793Y-27552D01*
X43793Y-27390D01*
X43912Y-27509D01*
X43912Y-27509D01*
G37*
G54D20*
X43912Y-27509D02*
X43890Y-27509D01*
X43798Y-27546D01*
X43793Y-27552D01*
X43793Y-27390D01*
X43912Y-27509D01*
G54D10*
G36*
X44703Y-34984D02*
X44700Y-35000D01*
X44700Y-40014D01*
X44604Y-39975D01*
X44396Y-39974D01*
X44300Y-40014D01*
X44300Y-35124D01*
X44399Y-35024D01*
X44603Y-35025D01*
X44703Y-34984D01*
X44703Y-34984D01*
G37*
G54D20*
X44703Y-34984D02*
X44700Y-35000D01*
X44700Y-40014D01*
X44604Y-39975D01*
X44396Y-39974D01*
X44300Y-40014D01*
X44300Y-35124D01*
X44399Y-35024D01*
X44603Y-35025D01*
X44703Y-34984D01*
G54D10*
G36*
X45010Y-27559D02*
X44929Y-27592D01*
X44790Y-27731D01*
X44790Y-27709D01*
X44752Y-27617D01*
X44681Y-27547D01*
X44590Y-27509D01*
X44567Y-27509D01*
X44706Y-27371D01*
X44740Y-27289D01*
X44773Y-27370D01*
X44928Y-27525D01*
X45010Y-27559D01*
X45010Y-27559D01*
G37*
G54D20*
X45010Y-27559D02*
X44929Y-27592D01*
X44790Y-27731D01*
X44790Y-27709D01*
X44752Y-27617D01*
X44681Y-27547D01*
X44590Y-27509D01*
X44567Y-27509D01*
X44706Y-27371D01*
X44740Y-27289D01*
X44773Y-27370D01*
X44928Y-27525D01*
X45010Y-27559D01*
G54D10*
G36*
X45643Y-26250D02*
X45587Y-26287D01*
X45361Y-26513D01*
X45350Y-26509D01*
X45131Y-26508D01*
X44929Y-26592D01*
X44774Y-26747D01*
X44740Y-26828D01*
X44706Y-26747D01*
X44552Y-26593D01*
X44350Y-26509D01*
X44131Y-26508D01*
X43929Y-26592D01*
X43774Y-26747D01*
X43690Y-26949D01*
X43690Y-27017D01*
X43570Y-26727D01*
X43156Y-26313D01*
X43004Y-26250D01*
X45643Y-26250D01*
X45643Y-26250D01*
G37*
G54D20*
X45643Y-26250D02*
X45587Y-26287D01*
X45361Y-26513D01*
X45350Y-26509D01*
X45131Y-26508D01*
X44929Y-26592D01*
X44774Y-26747D01*
X44740Y-26828D01*
X44706Y-26747D01*
X44552Y-26593D01*
X44350Y-26509D01*
X44131Y-26508D01*
X43929Y-26592D01*
X43774Y-26747D01*
X43690Y-26949D01*
X43690Y-27017D01*
X43570Y-26727D01*
X43156Y-26313D01*
X43004Y-26250D01*
X45643Y-26250D01*
G54D10*
G36*
X45703Y-34984D02*
X45700Y-35000D01*
X45700Y-40014D01*
X45604Y-39975D01*
X45396Y-39974D01*
X45300Y-40014D01*
X45300Y-35124D01*
X45399Y-35024D01*
X45603Y-35025D01*
X45703Y-34984D01*
X45703Y-34984D01*
G37*
G54D20*
X45703Y-34984D02*
X45700Y-35000D01*
X45700Y-40014D01*
X45604Y-39975D01*
X45396Y-39974D01*
X45300Y-40014D01*
X45300Y-35124D01*
X45399Y-35024D01*
X45603Y-35025D01*
X45703Y-34984D01*
G54D10*
G36*
X46010Y-27559D02*
X45929Y-27592D01*
X45774Y-27747D01*
X45740Y-27828D01*
X45706Y-27747D01*
X45552Y-27593D01*
X45470Y-27559D01*
X45551Y-27525D01*
X45706Y-27371D01*
X45740Y-27289D01*
X45773Y-27370D01*
X45928Y-27525D01*
X46010Y-27559D01*
X46010Y-27559D01*
G37*
G54D20*
X46010Y-27559D02*
X45929Y-27592D01*
X45774Y-27747D01*
X45740Y-27828D01*
X45706Y-27747D01*
X45552Y-27593D01*
X45470Y-27559D01*
X45551Y-27525D01*
X45706Y-27371D01*
X45740Y-27289D01*
X45773Y-27370D01*
X45928Y-27525D01*
X46010Y-27559D01*
G54D10*
G36*
X46400Y-29187D02*
X46309Y-29150D01*
X46091Y-29149D01*
X46000Y-29187D01*
X46000Y-28723D01*
X46119Y-28604D01*
X46130Y-28608D01*
X46349Y-28609D01*
X46400Y-28588D01*
X46400Y-29187D01*
X46400Y-29187D01*
G37*
G54D20*
X46400Y-29187D02*
X46309Y-29150D01*
X46091Y-29149D01*
X46000Y-29187D01*
X46000Y-28723D01*
X46119Y-28604D01*
X46130Y-28608D01*
X46349Y-28609D01*
X46400Y-28588D01*
X46400Y-29187D01*
G54D10*
G36*
X46700Y-42992D02*
X46608Y-42954D01*
X46392Y-42954D01*
X46300Y-42992D01*
X46300Y-40985D01*
X46395Y-41024D01*
X46603Y-41025D01*
X46700Y-40985D01*
X46700Y-42992D01*
X46700Y-42992D01*
G37*
G54D20*
X46700Y-42992D02*
X46608Y-42954D01*
X46392Y-42954D01*
X46300Y-42992D01*
X46300Y-40985D01*
X46395Y-41024D01*
X46603Y-41025D01*
X46700Y-40985D01*
X46700Y-42992D01*
G54D10*
G36*
X46703Y-34984D02*
X46700Y-35000D01*
X46700Y-40014D01*
X46604Y-39975D01*
X46396Y-39974D01*
X46300Y-40014D01*
X46300Y-35124D01*
X46399Y-35024D01*
X46603Y-35025D01*
X46703Y-34984D01*
X46703Y-34984D01*
G37*
G54D20*
X46703Y-34984D02*
X46700Y-35000D01*
X46700Y-40014D01*
X46604Y-39975D01*
X46396Y-39974D01*
X46300Y-40014D01*
X46300Y-35124D01*
X46399Y-35024D01*
X46603Y-35025D01*
X46703Y-34984D01*
G54D10*
G36*
X46752Y-26800D02*
X46740Y-26828D01*
X46728Y-26800D01*
X46752Y-26800D01*
X46752Y-26800D01*
G37*
G54D20*
X46752Y-26800D02*
X46740Y-26828D01*
X46728Y-26800D01*
X46752Y-26800D01*
G54D10*
G36*
X47400Y-29187D02*
X47309Y-29150D01*
X47091Y-29149D01*
X47079Y-29154D01*
X47000Y-29075D01*
X47000Y-28554D01*
X47130Y-28608D01*
X47349Y-28609D01*
X47400Y-28588D01*
X47400Y-29187D01*
X47400Y-29187D01*
G37*
G54D20*
X47400Y-29187D02*
X47309Y-29150D01*
X47091Y-29149D01*
X47079Y-29154D01*
X47000Y-29075D01*
X47000Y-28554D01*
X47130Y-28608D01*
X47349Y-28609D01*
X47400Y-28588D01*
X47400Y-29187D01*
G54D10*
G36*
X47700Y-42992D02*
X47608Y-42954D01*
X47392Y-42954D01*
X47300Y-42992D01*
X47300Y-40985D01*
X47395Y-41024D01*
X47603Y-41025D01*
X47700Y-40985D01*
X47700Y-42992D01*
X47700Y-42992D01*
G37*
G54D20*
X47700Y-42992D02*
X47608Y-42954D01*
X47392Y-42954D01*
X47300Y-42992D01*
X47300Y-40985D01*
X47395Y-41024D01*
X47603Y-41025D01*
X47700Y-40985D01*
X47700Y-42992D01*
G54D10*
G36*
X47703Y-34984D02*
X47700Y-35000D01*
X47700Y-40014D01*
X47604Y-39975D01*
X47396Y-39974D01*
X47300Y-40014D01*
X47300Y-35124D01*
X47399Y-35024D01*
X47603Y-35025D01*
X47703Y-34984D01*
X47703Y-34984D01*
G37*
G54D20*
X47703Y-34984D02*
X47700Y-35000D01*
X47700Y-40014D01*
X47604Y-39975D01*
X47396Y-39974D01*
X47300Y-40014D01*
X47300Y-35124D01*
X47399Y-35024D01*
X47603Y-35025D01*
X47703Y-34984D01*
G54D10*
G36*
X47752Y-26800D02*
X47740Y-26828D01*
X47728Y-26800D01*
X47752Y-26800D01*
X47752Y-26800D01*
G37*
G54D20*
X47752Y-26800D02*
X47740Y-26828D01*
X47728Y-26800D01*
X47752Y-26800D01*
G54D10*
G36*
X48400Y-29187D02*
X48309Y-29150D01*
X48091Y-29149D01*
X48079Y-29154D01*
X48000Y-29075D01*
X48000Y-28554D01*
X48130Y-28608D01*
X48349Y-28609D01*
X48400Y-28588D01*
X48400Y-29187D01*
X48400Y-29187D01*
G37*
G54D20*
X48400Y-29187D02*
X48309Y-29150D01*
X48091Y-29149D01*
X48079Y-29154D01*
X48000Y-29075D01*
X48000Y-28554D01*
X48130Y-28608D01*
X48349Y-28609D01*
X48400Y-28588D01*
X48400Y-29187D01*
G54D10*
G36*
X48700Y-42992D02*
X48608Y-42954D01*
X48392Y-42954D01*
X48300Y-42992D01*
X48300Y-40985D01*
X48395Y-41024D01*
X48603Y-41025D01*
X48700Y-40985D01*
X48700Y-42992D01*
X48700Y-42992D01*
G37*
G54D20*
X48700Y-42992D02*
X48608Y-42954D01*
X48392Y-42954D01*
X48300Y-42992D01*
X48300Y-40985D01*
X48395Y-41024D01*
X48603Y-41025D01*
X48700Y-40985D01*
X48700Y-42992D01*
G54D10*
G36*
X48703Y-34984D02*
X48700Y-35000D01*
X48700Y-40014D01*
X48604Y-39975D01*
X48396Y-39974D01*
X48300Y-40014D01*
X48300Y-35124D01*
X48399Y-35024D01*
X48603Y-35025D01*
X48703Y-34984D01*
X48703Y-34984D01*
G37*
G54D20*
X48703Y-34984D02*
X48700Y-35000D01*
X48700Y-40014D01*
X48604Y-39975D01*
X48396Y-39974D01*
X48300Y-40014D01*
X48300Y-35124D01*
X48399Y-35024D01*
X48603Y-35025D01*
X48703Y-34984D01*
G54D10*
G36*
X49010Y-27559D02*
X49000Y-27563D01*
X49000Y-27554D01*
X49010Y-27559D01*
X49010Y-27559D01*
G37*
G54D20*
X49010Y-27559D02*
X49000Y-27563D01*
X49000Y-27554D01*
X49010Y-27559D01*
G54D10*
G36*
X50010Y-27559D02*
X49929Y-27592D01*
X49774Y-27747D01*
X49740Y-27828D01*
X49706Y-27747D01*
X49552Y-27593D01*
X49470Y-27559D01*
X49551Y-27525D01*
X49706Y-27371D01*
X49740Y-27289D01*
X49773Y-27370D01*
X49928Y-27525D01*
X50010Y-27559D01*
X50010Y-27559D01*
G37*
G54D20*
X50010Y-27559D02*
X49929Y-27592D01*
X49774Y-27747D01*
X49740Y-27828D01*
X49706Y-27747D01*
X49552Y-27593D01*
X49470Y-27559D01*
X49551Y-27525D01*
X49706Y-27371D01*
X49740Y-27289D01*
X49773Y-27370D01*
X49928Y-27525D01*
X50010Y-27559D01*
G54D10*
G36*
X50282Y-43999D02*
X50191Y-44037D01*
X50038Y-44190D01*
X50000Y-44282D01*
X49962Y-44191D01*
X49809Y-44038D01*
X49717Y-44000D01*
X49808Y-43962D01*
X49961Y-43809D01*
X49999Y-43717D01*
X50037Y-43808D01*
X50190Y-43961D01*
X50282Y-43999D01*
X50282Y-43999D01*
G37*
G54D20*
X50282Y-43999D02*
X50191Y-44037D01*
X50038Y-44190D01*
X50000Y-44282D01*
X49962Y-44191D01*
X49809Y-44038D01*
X49717Y-44000D01*
X49808Y-43962D01*
X49961Y-43809D01*
X49999Y-43717D01*
X50037Y-43808D01*
X50190Y-43961D01*
X50282Y-43999D01*
G54D10*
G36*
X50703Y-34984D02*
X50700Y-35000D01*
X50700Y-35422D01*
X50584Y-35375D01*
X50415Y-35374D01*
X50259Y-35439D01*
X50139Y-35558D01*
X50075Y-35715D01*
X50074Y-35884D01*
X50139Y-36040D01*
X50200Y-36101D01*
X50200Y-40057D01*
X50055Y-40202D01*
X49999Y-40335D01*
X49945Y-40203D01*
X49797Y-40055D01*
X49604Y-39975D01*
X49396Y-39974D01*
X49300Y-40014D01*
X49300Y-35124D01*
X49399Y-35024D01*
X49603Y-35025D01*
X49797Y-34945D01*
X49944Y-34797D01*
X50000Y-34664D01*
X50054Y-34797D01*
X50202Y-34944D01*
X50395Y-35024D01*
X50603Y-35025D01*
X50703Y-34984D01*
X50703Y-34984D01*
G37*
G54D20*
X50703Y-34984D02*
X50700Y-35000D01*
X50700Y-35422D01*
X50584Y-35375D01*
X50415Y-35374D01*
X50259Y-35439D01*
X50139Y-35558D01*
X50075Y-35715D01*
X50074Y-35884D01*
X50139Y-36040D01*
X50200Y-36101D01*
X50200Y-40057D01*
X50055Y-40202D01*
X49999Y-40335D01*
X49945Y-40203D01*
X49797Y-40055D01*
X49604Y-39975D01*
X49396Y-39974D01*
X49300Y-40014D01*
X49300Y-35124D01*
X49399Y-35024D01*
X49603Y-35025D01*
X49797Y-34945D01*
X49944Y-34797D01*
X50000Y-34664D01*
X50054Y-34797D01*
X50202Y-34944D01*
X50395Y-35024D01*
X50603Y-35025D01*
X50703Y-34984D01*
G54D10*
G36*
X51010Y-27559D02*
X50929Y-27592D01*
X50774Y-27747D01*
X50740Y-27828D01*
X50706Y-27747D01*
X50552Y-27593D01*
X50470Y-27559D01*
X50551Y-27525D01*
X50706Y-27371D01*
X50740Y-27289D01*
X50773Y-27370D01*
X50928Y-27525D01*
X51010Y-27559D01*
X51010Y-27559D01*
G37*
G54D20*
X51010Y-27559D02*
X50929Y-27592D01*
X50774Y-27747D01*
X50740Y-27828D01*
X50706Y-27747D01*
X50552Y-27593D01*
X50470Y-27559D01*
X50551Y-27525D01*
X50706Y-27371D01*
X50740Y-27289D01*
X50773Y-27370D01*
X50928Y-27525D01*
X51010Y-27559D01*
G54D10*
G36*
X51550Y-33975D02*
X51396Y-33974D01*
X51203Y-34054D01*
X51055Y-34202D01*
X50999Y-34335D01*
X50945Y-34203D01*
X50797Y-34055D01*
X50604Y-33975D01*
X50396Y-33974D01*
X50203Y-34054D01*
X50055Y-34202D01*
X49999Y-34335D01*
X49945Y-34203D01*
X49797Y-34055D01*
X49604Y-33975D01*
X49396Y-33974D01*
X49203Y-34054D01*
X49055Y-34202D01*
X48999Y-34335D01*
X48945Y-34203D01*
X48797Y-34055D01*
X48604Y-33975D01*
X48396Y-33974D01*
X48203Y-34054D01*
X48055Y-34202D01*
X47999Y-34335D01*
X47945Y-34203D01*
X47797Y-34055D01*
X47604Y-33975D01*
X47396Y-33974D01*
X47203Y-34054D01*
X47055Y-34202D01*
X46999Y-34335D01*
X46945Y-34203D01*
X46797Y-34055D01*
X46604Y-33975D01*
X46396Y-33974D01*
X46203Y-34054D01*
X46055Y-34202D01*
X45999Y-34335D01*
X45945Y-34203D01*
X45797Y-34055D01*
X45604Y-33975D01*
X45396Y-33974D01*
X45203Y-34054D01*
X45055Y-34202D01*
X44999Y-34335D01*
X44945Y-34203D01*
X44797Y-34055D01*
X44604Y-33975D01*
X44396Y-33974D01*
X44203Y-34054D01*
X44055Y-34202D01*
X43999Y-34335D01*
X43945Y-34203D01*
X43797Y-34055D01*
X43604Y-33975D01*
X43396Y-33974D01*
X43203Y-34054D01*
X43055Y-34202D01*
X42999Y-34335D01*
X42945Y-34203D01*
X42797Y-34055D01*
X42604Y-33975D01*
X42449Y-33974D01*
X42624Y-33800D01*
X51375Y-33800D01*
X51550Y-33975D01*
X51550Y-33975D01*
G37*
G54D20*
X51550Y-33975D02*
X51396Y-33974D01*
X51203Y-34054D01*
X51055Y-34202D01*
X50999Y-34335D01*
X50945Y-34203D01*
X50797Y-34055D01*
X50604Y-33975D01*
X50396Y-33974D01*
X50203Y-34054D01*
X50055Y-34202D01*
X49999Y-34335D01*
X49945Y-34203D01*
X49797Y-34055D01*
X49604Y-33975D01*
X49396Y-33974D01*
X49203Y-34054D01*
X49055Y-34202D01*
X48999Y-34335D01*
X48945Y-34203D01*
X48797Y-34055D01*
X48604Y-33975D01*
X48396Y-33974D01*
X48203Y-34054D01*
X48055Y-34202D01*
X47999Y-34335D01*
X47945Y-34203D01*
X47797Y-34055D01*
X47604Y-33975D01*
X47396Y-33974D01*
X47203Y-34054D01*
X47055Y-34202D01*
X46999Y-34335D01*
X46945Y-34203D01*
X46797Y-34055D01*
X46604Y-33975D01*
X46396Y-33974D01*
X46203Y-34054D01*
X46055Y-34202D01*
X45999Y-34335D01*
X45945Y-34203D01*
X45797Y-34055D01*
X45604Y-33975D01*
X45396Y-33974D01*
X45203Y-34054D01*
X45055Y-34202D01*
X44999Y-34335D01*
X44945Y-34203D01*
X44797Y-34055D01*
X44604Y-33975D01*
X44396Y-33974D01*
X44203Y-34054D01*
X44055Y-34202D01*
X43999Y-34335D01*
X43945Y-34203D01*
X43797Y-34055D01*
X43604Y-33975D01*
X43396Y-33974D01*
X43203Y-34054D01*
X43055Y-34202D01*
X42999Y-34335D01*
X42945Y-34203D01*
X42797Y-34055D01*
X42604Y-33975D01*
X42449Y-33974D01*
X42624Y-33800D01*
X51375Y-33800D01*
X51550Y-33975D01*
G54D10*
G36*
X52010Y-27559D02*
X51929Y-27592D01*
X51774Y-27747D01*
X51740Y-27828D01*
X51706Y-27747D01*
X51552Y-27593D01*
X51470Y-27559D01*
X51551Y-27525D01*
X51706Y-27371D01*
X51740Y-27289D01*
X51773Y-27370D01*
X51928Y-27525D01*
X52010Y-27559D01*
X52010Y-27559D01*
G37*
G54D20*
X52010Y-27559D02*
X51929Y-27592D01*
X51774Y-27747D01*
X51740Y-27828D01*
X51706Y-27747D01*
X51552Y-27593D01*
X51470Y-27559D01*
X51551Y-27525D01*
X51706Y-27371D01*
X51740Y-27289D01*
X51773Y-27370D01*
X51928Y-27525D01*
X52010Y-27559D01*
G54D10*
G36*
X52200Y-36875D02*
X51300Y-37775D01*
X51300Y-35124D01*
X51399Y-35024D01*
X51603Y-35025D01*
X51797Y-34945D01*
X51944Y-34797D01*
X52000Y-34664D01*
X52054Y-34797D01*
X52200Y-34942D01*
X52200Y-36875D01*
X52200Y-36875D01*
G37*
G54D20*
X52200Y-36875D02*
X51300Y-37775D01*
X51300Y-35124D01*
X51399Y-35024D01*
X51603Y-35025D01*
X51797Y-34945D01*
X51944Y-34797D01*
X52000Y-34664D01*
X52054Y-34797D01*
X52200Y-34942D01*
X52200Y-36875D01*
G54D10*
G36*
X52288Y-47757D02*
X52211Y-47757D01*
X52250Y-47664D01*
X52288Y-47757D01*
X52288Y-47757D01*
G37*
G54D20*
X52288Y-47757D02*
X52211Y-47757D01*
X52250Y-47664D01*
X52288Y-47757D01*
G54D10*
G36*
X52622Y-31599D02*
X52287Y-31933D01*
X52222Y-32030D01*
X52200Y-32145D01*
X52200Y-33775D01*
X51712Y-33287D01*
X51614Y-33222D01*
X51500Y-33200D01*
X42500Y-33200D01*
X42385Y-33222D01*
X42287Y-33287D01*
X41287Y-34287D01*
X41250Y-34344D01*
X41250Y-28565D01*
X41488Y-28804D01*
X42029Y-29029D01*
X42614Y-29029D01*
X43154Y-28806D01*
X43568Y-28393D01*
X43690Y-28100D01*
X43690Y-28408D01*
X43728Y-28500D01*
X43798Y-28570D01*
X43890Y-28609D01*
X43989Y-28609D01*
X44589Y-28609D01*
X44681Y-28571D01*
X44751Y-28500D01*
X44790Y-28409D01*
X44790Y-28386D01*
X44928Y-28525D01*
X45130Y-28608D01*
X45349Y-28609D01*
X45402Y-28587D01*
X45400Y-28599D01*
X45400Y-29149D01*
X44850Y-29149D01*
X44758Y-29187D01*
X44688Y-29258D01*
X44650Y-29350D01*
X44649Y-29449D01*
X44649Y-30049D01*
X44687Y-30141D01*
X44758Y-30211D01*
X44850Y-30249D01*
X44949Y-30250D01*
X45225Y-30250D01*
X44042Y-31432D01*
X44012Y-31358D01*
X43941Y-31288D01*
X43849Y-31250D01*
X43827Y-31250D01*
X43965Y-31111D01*
X44049Y-30909D01*
X44050Y-30691D01*
X43966Y-30488D01*
X43811Y-30334D01*
X43730Y-30300D01*
X43811Y-30266D01*
X43965Y-30111D01*
X44049Y-29909D01*
X44050Y-29691D01*
X43966Y-29488D01*
X43811Y-29334D01*
X43609Y-29250D01*
X43391Y-29249D01*
X43188Y-29333D01*
X43034Y-29488D01*
X42950Y-29690D01*
X42949Y-29908D01*
X43033Y-30111D01*
X43188Y-30265D01*
X43269Y-30299D01*
X43188Y-30333D01*
X43034Y-30488D01*
X42950Y-30690D01*
X42949Y-30908D01*
X43033Y-31111D01*
X43172Y-31249D01*
X43150Y-31249D01*
X43058Y-31287D01*
X42988Y-31358D01*
X42950Y-31450D01*
X42949Y-31549D01*
X42949Y-32149D01*
X42987Y-32241D01*
X43058Y-32311D01*
X43150Y-32349D01*
X43249Y-32350D01*
X43849Y-32350D01*
X43941Y-32312D01*
X44011Y-32241D01*
X44049Y-32149D01*
X44049Y-32100D01*
X44100Y-32100D01*
X44100Y-32099D01*
X44214Y-32077D01*
X44214Y-32077D01*
X44312Y-32012D01*
X45912Y-30412D01*
X45912Y-30412D01*
X45977Y-30314D01*
X45997Y-30211D01*
X46090Y-30249D01*
X46308Y-30250D01*
X46511Y-30166D01*
X46665Y-30011D01*
X46699Y-29930D01*
X46733Y-30011D01*
X46888Y-30165D01*
X47090Y-30249D01*
X47308Y-30250D01*
X47511Y-30166D01*
X47665Y-30011D01*
X47699Y-29930D01*
X47733Y-30011D01*
X47888Y-30165D01*
X48090Y-30249D01*
X48308Y-30250D01*
X48511Y-30166D01*
X48665Y-30011D01*
X48699Y-29930D01*
X48733Y-30011D01*
X48888Y-30165D01*
X49090Y-30249D01*
X49308Y-30250D01*
X49320Y-30245D01*
X49987Y-30912D01*
X49987Y-30912D01*
X50085Y-30977D01*
X50164Y-30992D01*
X50055Y-31102D01*
X49999Y-31235D01*
X49945Y-31103D01*
X49797Y-30955D01*
X49604Y-30875D01*
X49396Y-30874D01*
X49203Y-30954D01*
X49055Y-31102D01*
X48975Y-31295D01*
X48974Y-31503D01*
X49054Y-31697D01*
X49202Y-31844D01*
X49395Y-31924D01*
X49603Y-31925D01*
X49797Y-31845D01*
X49944Y-31697D01*
X50000Y-31564D01*
X50054Y-31697D01*
X50202Y-31844D01*
X50395Y-31924D01*
X50603Y-31925D01*
X50797Y-31845D01*
X50944Y-31697D01*
X51024Y-31504D01*
X51025Y-31296D01*
X50945Y-31103D01*
X50842Y-31000D01*
X51475Y-31000D01*
X51987Y-31511D01*
X52084Y-31576D01*
X52199Y-31599D01*
X52622Y-31599D01*
X52622Y-31599D01*
G37*
G54D20*
X52622Y-31599D02*
X52287Y-31933D01*
X52222Y-32030D01*
X52200Y-32145D01*
X52200Y-33775D01*
X51712Y-33287D01*
X51614Y-33222D01*
X51500Y-33200D01*
X42500Y-33200D01*
X42385Y-33222D01*
X42287Y-33287D01*
X41287Y-34287D01*
X41250Y-34344D01*
X41250Y-28565D01*
X41488Y-28804D01*
X42029Y-29029D01*
X42614Y-29029D01*
X43154Y-28806D01*
X43568Y-28393D01*
X43690Y-28100D01*
X43690Y-28408D01*
X43728Y-28500D01*
X43798Y-28570D01*
X43890Y-28609D01*
X43989Y-28609D01*
X44589Y-28609D01*
X44681Y-28571D01*
X44751Y-28500D01*
X44790Y-28409D01*
X44790Y-28386D01*
X44928Y-28525D01*
X45130Y-28608D01*
X45349Y-28609D01*
X45402Y-28587D01*
X45400Y-28599D01*
X45400Y-29149D01*
X44850Y-29149D01*
X44758Y-29187D01*
X44688Y-29258D01*
X44650Y-29350D01*
X44649Y-29449D01*
X44649Y-30049D01*
X44687Y-30141D01*
X44758Y-30211D01*
X44850Y-30249D01*
X44949Y-30250D01*
X45225Y-30250D01*
X44042Y-31432D01*
X44012Y-31358D01*
X43941Y-31288D01*
X43849Y-31250D01*
X43827Y-31250D01*
X43965Y-31111D01*
X44049Y-30909D01*
X44050Y-30691D01*
X43966Y-30488D01*
X43811Y-30334D01*
X43730Y-30300D01*
X43811Y-30266D01*
X43965Y-30111D01*
X44049Y-29909D01*
X44050Y-29691D01*
X43966Y-29488D01*
X43811Y-29334D01*
X43609Y-29250D01*
X43391Y-29249D01*
X43188Y-29333D01*
X43034Y-29488D01*
X42950Y-29690D01*
X42949Y-29908D01*
X43033Y-30111D01*
X43188Y-30265D01*
X43269Y-30299D01*
X43188Y-30333D01*
X43034Y-30488D01*
X42950Y-30690D01*
X42949Y-30908D01*
X43033Y-31111D01*
X43172Y-31249D01*
X43150Y-31249D01*
X43058Y-31287D01*
X42988Y-31358D01*
X42950Y-31450D01*
X42949Y-31549D01*
X42949Y-32149D01*
X42987Y-32241D01*
X43058Y-32311D01*
X43150Y-32349D01*
X43249Y-32350D01*
X43849Y-32350D01*
X43941Y-32312D01*
X44011Y-32241D01*
X44049Y-32149D01*
X44049Y-32100D01*
X44100Y-32100D01*
X44100Y-32099D01*
X44214Y-32077D01*
X44214Y-32077D01*
X44312Y-32012D01*
X45912Y-30412D01*
X45912Y-30412D01*
X45977Y-30314D01*
X45997Y-30211D01*
X46090Y-30249D01*
X46308Y-30250D01*
X46511Y-30166D01*
X46665Y-30011D01*
X46699Y-29930D01*
X46733Y-30011D01*
X46888Y-30165D01*
X47090Y-30249D01*
X47308Y-30250D01*
X47511Y-30166D01*
X47665Y-30011D01*
X47699Y-29930D01*
X47733Y-30011D01*
X47888Y-30165D01*
X48090Y-30249D01*
X48308Y-30250D01*
X48511Y-30166D01*
X48665Y-30011D01*
X48699Y-29930D01*
X48733Y-30011D01*
X48888Y-30165D01*
X49090Y-30249D01*
X49308Y-30250D01*
X49320Y-30245D01*
X49987Y-30912D01*
X49987Y-30912D01*
X50085Y-30977D01*
X50164Y-30992D01*
X50055Y-31102D01*
X49999Y-31235D01*
X49945Y-31103D01*
X49797Y-30955D01*
X49604Y-30875D01*
X49396Y-30874D01*
X49203Y-30954D01*
X49055Y-31102D01*
X48975Y-31295D01*
X48974Y-31503D01*
X49054Y-31697D01*
X49202Y-31844D01*
X49395Y-31924D01*
X49603Y-31925D01*
X49797Y-31845D01*
X49944Y-31697D01*
X50000Y-31564D01*
X50054Y-31697D01*
X50202Y-31844D01*
X50395Y-31924D01*
X50603Y-31925D01*
X50797Y-31845D01*
X50944Y-31697D01*
X51024Y-31504D01*
X51025Y-31296D01*
X50945Y-31103D01*
X50842Y-31000D01*
X51475Y-31000D01*
X51987Y-31511D01*
X52084Y-31576D01*
X52199Y-31599D01*
X52622Y-31599D01*
G54D10*
G36*
X53010Y-27559D02*
X52929Y-27592D01*
X52774Y-27747D01*
X52740Y-27828D01*
X52706Y-27747D01*
X52552Y-27593D01*
X52470Y-27559D01*
X52551Y-27525D01*
X52706Y-27371D01*
X52740Y-27289D01*
X52773Y-27370D01*
X52928Y-27525D01*
X53010Y-27559D01*
X53010Y-27559D01*
G37*
G54D20*
X53010Y-27559D02*
X52929Y-27592D01*
X52774Y-27747D01*
X52740Y-27828D01*
X52706Y-27747D01*
X52552Y-27593D01*
X52470Y-27559D01*
X52551Y-27525D01*
X52706Y-27371D01*
X52740Y-27289D01*
X52773Y-27370D01*
X52928Y-27525D01*
X53010Y-27559D01*
G54D10*
G36*
X54010Y-27559D02*
X53929Y-27592D01*
X53774Y-27747D01*
X53740Y-27828D01*
X53706Y-27747D01*
X53552Y-27593D01*
X53470Y-27559D01*
X53551Y-27525D01*
X53706Y-27371D01*
X53740Y-27289D01*
X53773Y-27370D01*
X53928Y-27525D01*
X54010Y-27559D01*
X54010Y-27559D01*
G37*
G54D20*
X54010Y-27559D02*
X53929Y-27592D01*
X53774Y-27747D01*
X53740Y-27828D01*
X53706Y-27747D01*
X53552Y-27593D01*
X53470Y-27559D01*
X53551Y-27525D01*
X53706Y-27371D01*
X53740Y-27289D01*
X53773Y-27370D01*
X53928Y-27525D01*
X54010Y-27559D01*
G54D10*
G36*
X55010Y-27559D02*
X54929Y-27592D01*
X54774Y-27747D01*
X54740Y-27828D01*
X54706Y-27747D01*
X54552Y-27593D01*
X54470Y-27559D01*
X54551Y-27525D01*
X54706Y-27371D01*
X54740Y-27289D01*
X54773Y-27370D01*
X54928Y-27525D01*
X55010Y-27559D01*
X55010Y-27559D01*
G37*
G54D20*
X55010Y-27559D02*
X54929Y-27592D01*
X54774Y-27747D01*
X54740Y-27828D01*
X54706Y-27747D01*
X54552Y-27593D01*
X54470Y-27559D01*
X54551Y-27525D01*
X54706Y-27371D01*
X54740Y-27289D01*
X54773Y-27370D01*
X54928Y-27525D01*
X55010Y-27559D01*
G54D10*
G36*
X56010Y-27559D02*
X55929Y-27592D01*
X55774Y-27747D01*
X55740Y-27828D01*
X55706Y-27747D01*
X55552Y-27593D01*
X55470Y-27559D01*
X55551Y-27525D01*
X55706Y-27371D01*
X55740Y-27289D01*
X55773Y-27370D01*
X55928Y-27525D01*
X56010Y-27559D01*
X56010Y-27559D01*
G37*
G54D20*
X56010Y-27559D02*
X55929Y-27592D01*
X55774Y-27747D01*
X55740Y-27828D01*
X55706Y-27747D01*
X55552Y-27593D01*
X55470Y-27559D01*
X55551Y-27525D01*
X55706Y-27371D01*
X55740Y-27289D01*
X55773Y-27370D01*
X55928Y-27525D01*
X56010Y-27559D01*
G54D10*
G36*
X56022Y-42900D02*
X55950Y-42972D01*
X55950Y-42950D01*
X55929Y-42900D01*
X56022Y-42900D01*
X56022Y-42900D01*
G37*
G54D20*
X56022Y-42900D02*
X55950Y-42972D01*
X55950Y-42950D01*
X55929Y-42900D01*
X56022Y-42900D01*
G54D10*
G36*
X57010Y-27559D02*
X56929Y-27592D01*
X56774Y-27747D01*
X56740Y-27828D01*
X56706Y-27747D01*
X56552Y-27593D01*
X56470Y-27559D01*
X56551Y-27525D01*
X56706Y-27371D01*
X56740Y-27289D01*
X56773Y-27370D01*
X56928Y-27525D01*
X57010Y-27559D01*
X57010Y-27559D01*
G37*
G54D20*
X57010Y-27559D02*
X56929Y-27592D01*
X56774Y-27747D01*
X56740Y-27828D01*
X56706Y-27747D01*
X56552Y-27593D01*
X56470Y-27559D01*
X56551Y-27525D01*
X56706Y-27371D01*
X56740Y-27289D01*
X56773Y-27370D01*
X56928Y-27525D01*
X57010Y-27559D01*
G54D10*
G36*
X57022Y-42900D02*
X56934Y-42988D01*
X56900Y-43069D01*
X56866Y-42988D01*
X56777Y-42900D01*
X57022Y-42900D01*
X57022Y-42900D01*
G37*
G54D20*
X57022Y-42900D02*
X56934Y-42988D01*
X56900Y-43069D01*
X56866Y-42988D01*
X56777Y-42900D01*
X57022Y-42900D01*
G54D10*
G36*
X58010Y-27559D02*
X58000Y-27563D01*
X58000Y-27554D01*
X58010Y-27559D01*
X58010Y-27559D01*
G37*
G54D20*
X58010Y-27559D02*
X58000Y-27563D01*
X58000Y-27554D01*
X58010Y-27559D01*
G54D10*
G36*
X58022Y-42900D02*
X57934Y-42988D01*
X57900Y-43069D01*
X57866Y-42988D01*
X57777Y-42900D01*
X58022Y-42900D01*
X58022Y-42900D01*
G37*
G54D20*
X58022Y-42900D02*
X57934Y-42988D01*
X57900Y-43069D01*
X57866Y-42988D01*
X57777Y-42900D01*
X58022Y-42900D01*
G54D10*
G36*
X58047Y-47450D02*
X57953Y-47450D01*
X57969Y-47433D01*
X57999Y-47360D01*
X58029Y-47432D01*
X58047Y-47450D01*
X58047Y-47450D01*
G37*
G54D20*
X58047Y-47450D02*
X57953Y-47450D01*
X57969Y-47433D01*
X57999Y-47360D01*
X58029Y-47432D01*
X58047Y-47450D01*
G54D10*
G36*
X59010Y-27559D02*
X58929Y-27592D01*
X58774Y-27747D01*
X58740Y-27828D01*
X58706Y-27747D01*
X58552Y-27593D01*
X58470Y-27559D01*
X58551Y-27525D01*
X58706Y-27371D01*
X58740Y-27289D01*
X58773Y-27370D01*
X58928Y-27525D01*
X59010Y-27559D01*
X59010Y-27559D01*
G37*
G54D20*
X59010Y-27559D02*
X58929Y-27592D01*
X58774Y-27747D01*
X58740Y-27828D01*
X58706Y-27747D01*
X58552Y-27593D01*
X58470Y-27559D01*
X58551Y-27525D01*
X58706Y-27371D01*
X58740Y-27289D01*
X58773Y-27370D01*
X58928Y-27525D01*
X59010Y-27559D01*
G54D10*
G36*
X59920Y-42313D02*
X59882Y-42306D01*
X59900Y-42264D01*
X59920Y-42313D01*
X59920Y-42313D01*
G37*
G54D20*
X59920Y-42313D02*
X59882Y-42306D01*
X59900Y-42264D01*
X59920Y-42313D01*
G54D10*
G36*
X60010Y-27559D02*
X59929Y-27592D01*
X59774Y-27747D01*
X59740Y-27828D01*
X59706Y-27747D01*
X59552Y-27593D01*
X59470Y-27559D01*
X59551Y-27525D01*
X59706Y-27371D01*
X59740Y-27289D01*
X59773Y-27370D01*
X59928Y-27525D01*
X60010Y-27559D01*
X60010Y-27559D01*
G37*
G54D20*
X60010Y-27559D02*
X59929Y-27592D01*
X59774Y-27747D01*
X59740Y-27828D01*
X59706Y-27747D01*
X59552Y-27593D01*
X59470Y-27559D01*
X59551Y-27525D01*
X59706Y-27371D01*
X59740Y-27289D01*
X59773Y-27370D01*
X59928Y-27525D01*
X60010Y-27559D01*
G54D10*
G36*
X60683Y-34007D02*
X60604Y-33975D01*
X60396Y-33974D01*
X60300Y-34014D01*
X60300Y-33624D01*
X60683Y-34007D01*
X60683Y-34007D01*
G37*
G54D20*
X60683Y-34007D02*
X60604Y-33975D01*
X60396Y-33974D01*
X60300Y-34014D01*
X60300Y-33624D01*
X60683Y-34007D01*
G54D10*
G36*
X61010Y-27559D02*
X60929Y-27592D01*
X60774Y-27747D01*
X60740Y-27828D01*
X60706Y-27747D01*
X60552Y-27593D01*
X60470Y-27559D01*
X60551Y-27525D01*
X60706Y-27371D01*
X60740Y-27289D01*
X60773Y-27370D01*
X60928Y-27525D01*
X61010Y-27559D01*
X61010Y-27559D01*
G37*
G54D20*
X61010Y-27559D02*
X60929Y-27592D01*
X60774Y-27747D01*
X60740Y-27828D01*
X60706Y-27747D01*
X60552Y-27593D01*
X60470Y-27559D01*
X60551Y-27525D01*
X60706Y-27371D01*
X60740Y-27289D01*
X60773Y-27370D01*
X60928Y-27525D01*
X61010Y-27559D01*
G54D10*
G36*
X61157Y-34100D02*
X61055Y-34202D01*
X60999Y-34335D01*
X60945Y-34203D01*
X60828Y-34085D01*
X60900Y-34100D01*
X61157Y-34100D01*
X61157Y-34100D01*
G37*
G54D20*
X61157Y-34100D02*
X61055Y-34202D01*
X60999Y-34335D01*
X60945Y-34203D01*
X60828Y-34085D01*
X60900Y-34100D01*
X61157Y-34100D01*
G54D10*
G36*
X62010Y-27559D02*
X61929Y-27592D01*
X61774Y-27747D01*
X61740Y-27828D01*
X61706Y-27747D01*
X61552Y-27593D01*
X61470Y-27559D01*
X61551Y-27525D01*
X61706Y-27371D01*
X61740Y-27289D01*
X61773Y-27370D01*
X61928Y-27525D01*
X62010Y-27559D01*
X62010Y-27559D01*
G37*
G54D20*
X62010Y-27559D02*
X61929Y-27592D01*
X61774Y-27747D01*
X61740Y-27828D01*
X61706Y-27747D01*
X61552Y-27593D01*
X61470Y-27559D01*
X61551Y-27525D01*
X61706Y-27371D01*
X61740Y-27289D01*
X61773Y-27370D01*
X61928Y-27525D01*
X62010Y-27559D01*
G54D10*
G36*
X62314Y-31800D02*
X62275Y-31895D01*
X62274Y-32103D01*
X62307Y-32183D01*
X61924Y-31800D01*
X62314Y-31800D01*
X62314Y-31800D01*
G37*
G54D20*
X62314Y-31800D02*
X62275Y-31895D01*
X62274Y-32103D01*
X62307Y-32183D01*
X61924Y-31800D01*
X62314Y-31800D01*
G54D10*
G36*
X62314Y-32800D02*
X62275Y-32895D01*
X62274Y-33100D01*
X61875Y-33500D01*
X61024Y-33500D01*
X60974Y-33450D01*
X61349Y-33450D01*
X61441Y-33412D01*
X61511Y-33341D01*
X61549Y-33249D01*
X61550Y-33150D01*
X61550Y-32550D01*
X61512Y-32458D01*
X61441Y-32388D01*
X61349Y-32350D01*
X61250Y-32349D01*
X60650Y-32349D01*
X60558Y-32387D01*
X60488Y-32458D01*
X60450Y-32550D01*
X60450Y-32572D01*
X60311Y-32434D01*
X60109Y-32350D01*
X59891Y-32349D01*
X59688Y-32433D01*
X59534Y-32588D01*
X59500Y-32669D01*
X59466Y-32588D01*
X59311Y-32434D01*
X59109Y-32350D01*
X58891Y-32349D01*
X58688Y-32433D01*
X58534Y-32588D01*
X58450Y-32790D01*
X58449Y-33008D01*
X58533Y-33211D01*
X58688Y-33365D01*
X58890Y-33449D01*
X59108Y-33450D01*
X59311Y-33366D01*
X59465Y-33211D01*
X59499Y-33130D01*
X59533Y-33211D01*
X59688Y-33365D01*
X59700Y-33370D01*
X59700Y-34014D01*
X59604Y-33975D01*
X59396Y-33974D01*
X59203Y-34054D01*
X59055Y-34202D01*
X58999Y-34335D01*
X58945Y-34203D01*
X58797Y-34055D01*
X58604Y-33975D01*
X58396Y-33974D01*
X58203Y-34054D01*
X58055Y-34202D01*
X57999Y-34335D01*
X57945Y-34203D01*
X57797Y-34055D01*
X57604Y-33975D01*
X57396Y-33974D01*
X57203Y-34054D01*
X57055Y-34202D01*
X56999Y-34335D01*
X56945Y-34203D01*
X56797Y-34055D01*
X56604Y-33975D01*
X56396Y-33974D01*
X56203Y-34054D01*
X56055Y-34202D01*
X55999Y-34335D01*
X55945Y-34203D01*
X55797Y-34055D01*
X55604Y-33975D01*
X55396Y-33974D01*
X55203Y-34054D01*
X55055Y-34202D01*
X54999Y-34335D01*
X54945Y-34203D01*
X54797Y-34055D01*
X54604Y-33975D01*
X54396Y-33974D01*
X54203Y-34054D01*
X54055Y-34202D01*
X53999Y-34335D01*
X53945Y-34203D01*
X53797Y-34055D01*
X53604Y-33975D01*
X53396Y-33974D01*
X53203Y-34054D01*
X53055Y-34202D01*
X52999Y-34335D01*
X52945Y-34203D01*
X52800Y-34057D01*
X52800Y-32269D01*
X53345Y-31724D01*
X53430Y-31724D01*
X53586Y-31659D01*
X53647Y-31599D01*
X55998Y-31599D01*
X56058Y-31659D01*
X56214Y-31724D01*
X56383Y-31724D01*
X56539Y-31659D01*
X56659Y-31540D01*
X56724Y-31384D01*
X56724Y-31215D01*
X56659Y-31058D01*
X56540Y-30939D01*
X56384Y-30874D01*
X56215Y-30874D01*
X56058Y-30938D01*
X55998Y-30999D01*
X53647Y-30999D01*
X53587Y-30939D01*
X53431Y-30874D01*
X53262Y-30874D01*
X53106Y-30938D01*
X53045Y-30999D01*
X52323Y-30999D01*
X51812Y-30487D01*
X51714Y-30422D01*
X51600Y-30400D01*
X50324Y-30400D01*
X49745Y-29821D01*
X49749Y-29809D01*
X49750Y-29591D01*
X49666Y-29388D01*
X49511Y-29234D01*
X49309Y-29150D01*
X49091Y-29149D01*
X49079Y-29154D01*
X49000Y-29075D01*
X49000Y-28554D01*
X49130Y-28608D01*
X49349Y-28609D01*
X49551Y-28525D01*
X49706Y-28371D01*
X49740Y-28289D01*
X49773Y-28370D01*
X49928Y-28525D01*
X50130Y-28608D01*
X50349Y-28609D01*
X50551Y-28525D01*
X50706Y-28371D01*
X50740Y-28289D01*
X50773Y-28370D01*
X50928Y-28525D01*
X51130Y-28608D01*
X51349Y-28609D01*
X51551Y-28525D01*
X51706Y-28371D01*
X51740Y-28289D01*
X51773Y-28370D01*
X51928Y-28525D01*
X52130Y-28608D01*
X52349Y-28609D01*
X52551Y-28525D01*
X52706Y-28371D01*
X52740Y-28289D01*
X52773Y-28370D01*
X52928Y-28525D01*
X53130Y-28608D01*
X53349Y-28609D01*
X53551Y-28525D01*
X53706Y-28371D01*
X53740Y-28289D01*
X53773Y-28370D01*
X53928Y-28525D01*
X54130Y-28608D01*
X54349Y-28609D01*
X54551Y-28525D01*
X54706Y-28371D01*
X54740Y-28289D01*
X54773Y-28370D01*
X54928Y-28525D01*
X55130Y-28608D01*
X55349Y-28609D01*
X55551Y-28525D01*
X55706Y-28371D01*
X55740Y-28289D01*
X55773Y-28370D01*
X55928Y-28525D01*
X56130Y-28608D01*
X56349Y-28609D01*
X56551Y-28525D01*
X56706Y-28371D01*
X56740Y-28289D01*
X56773Y-28370D01*
X56928Y-28525D01*
X56940Y-28530D01*
X56940Y-29740D01*
X56962Y-29854D01*
X57028Y-29952D01*
X59187Y-32112D01*
X59187Y-32112D01*
X59285Y-32177D01*
X59400Y-32200D01*
X61475Y-32200D01*
X61987Y-32712D01*
X61987Y-32712D01*
X62085Y-32777D01*
X62200Y-32800D01*
X62314Y-32800D01*
X62314Y-32800D01*
G37*
G54D20*
X62314Y-32800D02*
X62275Y-32895D01*
X62274Y-33100D01*
X61875Y-33500D01*
X61024Y-33500D01*
X60974Y-33450D01*
X61349Y-33450D01*
X61441Y-33412D01*
X61511Y-33341D01*
X61549Y-33249D01*
X61550Y-33150D01*
X61550Y-32550D01*
X61512Y-32458D01*
X61441Y-32388D01*
X61349Y-32350D01*
X61250Y-32349D01*
X60650Y-32349D01*
X60558Y-32387D01*
X60488Y-32458D01*
X60450Y-32550D01*
X60450Y-32572D01*
X60311Y-32434D01*
X60109Y-32350D01*
X59891Y-32349D01*
X59688Y-32433D01*
X59534Y-32588D01*
X59500Y-32669D01*
X59466Y-32588D01*
X59311Y-32434D01*
X59109Y-32350D01*
X58891Y-32349D01*
X58688Y-32433D01*
X58534Y-32588D01*
X58450Y-32790D01*
X58449Y-33008D01*
X58533Y-33211D01*
X58688Y-33365D01*
X58890Y-33449D01*
X59108Y-33450D01*
X59311Y-33366D01*
X59465Y-33211D01*
X59499Y-33130D01*
X59533Y-33211D01*
X59688Y-33365D01*
X59700Y-33370D01*
X59700Y-34014D01*
X59604Y-33975D01*
X59396Y-33974D01*
X59203Y-34054D01*
X59055Y-34202D01*
X58999Y-34335D01*
X58945Y-34203D01*
X58797Y-34055D01*
X58604Y-33975D01*
X58396Y-33974D01*
X58203Y-34054D01*
X58055Y-34202D01*
X57999Y-34335D01*
X57945Y-34203D01*
X57797Y-34055D01*
X57604Y-33975D01*
X57396Y-33974D01*
X57203Y-34054D01*
X57055Y-34202D01*
X56999Y-34335D01*
X56945Y-34203D01*
X56797Y-34055D01*
X56604Y-33975D01*
X56396Y-33974D01*
X56203Y-34054D01*
X56055Y-34202D01*
X55999Y-34335D01*
X55945Y-34203D01*
X55797Y-34055D01*
X55604Y-33975D01*
X55396Y-33974D01*
X55203Y-34054D01*
X55055Y-34202D01*
X54999Y-34335D01*
X54945Y-34203D01*
X54797Y-34055D01*
X54604Y-33975D01*
X54396Y-33974D01*
X54203Y-34054D01*
X54055Y-34202D01*
X53999Y-34335D01*
X53945Y-34203D01*
X53797Y-34055D01*
X53604Y-33975D01*
X53396Y-33974D01*
X53203Y-34054D01*
X53055Y-34202D01*
X52999Y-34335D01*
X52945Y-34203D01*
X52800Y-34057D01*
X52800Y-32269D01*
X53345Y-31724D01*
X53430Y-31724D01*
X53586Y-31659D01*
X53647Y-31599D01*
X55998Y-31599D01*
X56058Y-31659D01*
X56214Y-31724D01*
X56383Y-31724D01*
X56539Y-31659D01*
X56659Y-31540D01*
X56724Y-31384D01*
X56724Y-31215D01*
X56659Y-31058D01*
X56540Y-30939D01*
X56384Y-30874D01*
X56215Y-30874D01*
X56058Y-30938D01*
X55998Y-30999D01*
X53647Y-30999D01*
X53587Y-30939D01*
X53431Y-30874D01*
X53262Y-30874D01*
X53106Y-30938D01*
X53045Y-30999D01*
X52323Y-30999D01*
X51812Y-30487D01*
X51714Y-30422D01*
X51600Y-30400D01*
X50324Y-30400D01*
X49745Y-29821D01*
X49749Y-29809D01*
X49750Y-29591D01*
X49666Y-29388D01*
X49511Y-29234D01*
X49309Y-29150D01*
X49091Y-29149D01*
X49079Y-29154D01*
X49000Y-29075D01*
X49000Y-28554D01*
X49130Y-28608D01*
X49349Y-28609D01*
X49551Y-28525D01*
X49706Y-28371D01*
X49740Y-28289D01*
X49773Y-28370D01*
X49928Y-28525D01*
X50130Y-28608D01*
X50349Y-28609D01*
X50551Y-28525D01*
X50706Y-28371D01*
X50740Y-28289D01*
X50773Y-28370D01*
X50928Y-28525D01*
X51130Y-28608D01*
X51349Y-28609D01*
X51551Y-28525D01*
X51706Y-28371D01*
X51740Y-28289D01*
X51773Y-28370D01*
X51928Y-28525D01*
X52130Y-28608D01*
X52349Y-28609D01*
X52551Y-28525D01*
X52706Y-28371D01*
X52740Y-28289D01*
X52773Y-28370D01*
X52928Y-28525D01*
X53130Y-28608D01*
X53349Y-28609D01*
X53551Y-28525D01*
X53706Y-28371D01*
X53740Y-28289D01*
X53773Y-28370D01*
X53928Y-28525D01*
X54130Y-28608D01*
X54349Y-28609D01*
X54551Y-28525D01*
X54706Y-28371D01*
X54740Y-28289D01*
X54773Y-28370D01*
X54928Y-28525D01*
X55130Y-28608D01*
X55349Y-28609D01*
X55551Y-28525D01*
X55706Y-28371D01*
X55740Y-28289D01*
X55773Y-28370D01*
X55928Y-28525D01*
X56130Y-28608D01*
X56349Y-28609D01*
X56551Y-28525D01*
X56706Y-28371D01*
X56740Y-28289D01*
X56773Y-28370D01*
X56928Y-28525D01*
X56940Y-28530D01*
X56940Y-29740D01*
X56962Y-29854D01*
X57028Y-29952D01*
X59187Y-32112D01*
X59187Y-32112D01*
X59285Y-32177D01*
X59400Y-32200D01*
X61475Y-32200D01*
X61987Y-32712D01*
X61987Y-32712D01*
X62085Y-32777D01*
X62200Y-32800D01*
X62314Y-32800D01*
G54D10*
G36*
X63010Y-27559D02*
X62929Y-27592D01*
X62774Y-27747D01*
X62740Y-27828D01*
X62706Y-27747D01*
X62552Y-27593D01*
X62470Y-27559D01*
X62551Y-27525D01*
X62706Y-27371D01*
X62740Y-27289D01*
X62773Y-27370D01*
X62928Y-27525D01*
X63010Y-27559D01*
X63010Y-27559D01*
G37*
G54D20*
X63010Y-27559D02*
X62929Y-27592D01*
X62774Y-27747D01*
X62740Y-27828D01*
X62706Y-27747D01*
X62552Y-27593D01*
X62470Y-27559D01*
X62551Y-27525D01*
X62706Y-27371D01*
X62740Y-27289D01*
X62773Y-27370D01*
X62928Y-27525D01*
X63010Y-27559D01*
G54D10*
G36*
X63687Y-27389D02*
X63686Y-27728D01*
X63552Y-27593D01*
X63470Y-27559D01*
X63551Y-27525D01*
X63687Y-27389D01*
X63687Y-27389D01*
G37*
G54D20*
X63687Y-27389D02*
X63686Y-27728D01*
X63552Y-27593D01*
X63470Y-27559D01*
X63551Y-27525D01*
X63687Y-27389D01*
G54D10*
G36*
X64474Y-26250D02*
X64325Y-26311D01*
X63911Y-26725D01*
X63790Y-27017D01*
X63790Y-26950D01*
X63706Y-26747D01*
X63552Y-26593D01*
X63350Y-26509D01*
X63131Y-26508D01*
X62929Y-26592D01*
X62774Y-26747D01*
X62740Y-26828D01*
X62706Y-26747D01*
X62552Y-26593D01*
X62350Y-26509D01*
X62131Y-26508D01*
X61929Y-26592D01*
X61774Y-26747D01*
X61740Y-26828D01*
X61706Y-26747D01*
X61552Y-26593D01*
X61350Y-26509D01*
X61131Y-26508D01*
X60929Y-26592D01*
X60774Y-26747D01*
X60740Y-26828D01*
X60706Y-26747D01*
X60552Y-26593D01*
X60350Y-26509D01*
X60131Y-26508D01*
X59929Y-26592D01*
X59774Y-26747D01*
X59740Y-26828D01*
X59706Y-26747D01*
X59552Y-26593D01*
X59350Y-26509D01*
X59131Y-26508D01*
X58929Y-26592D01*
X58774Y-26747D01*
X58740Y-26828D01*
X58706Y-26747D01*
X58552Y-26593D01*
X58350Y-26509D01*
X58131Y-26508D01*
X57929Y-26592D01*
X57774Y-26747D01*
X57740Y-26828D01*
X57706Y-26747D01*
X57552Y-26593D01*
X57350Y-26509D01*
X57131Y-26508D01*
X56929Y-26592D01*
X56774Y-26747D01*
X56740Y-26828D01*
X56706Y-26747D01*
X56552Y-26593D01*
X56350Y-26509D01*
X56131Y-26508D01*
X55929Y-26592D01*
X55774Y-26747D01*
X55740Y-26828D01*
X55706Y-26747D01*
X55552Y-26593D01*
X55350Y-26509D01*
X55131Y-26508D01*
X54929Y-26592D01*
X54774Y-26747D01*
X54740Y-26828D01*
X54706Y-26747D01*
X54552Y-26593D01*
X54350Y-26509D01*
X54131Y-26508D01*
X53929Y-26592D01*
X53774Y-26747D01*
X53740Y-26828D01*
X53706Y-26747D01*
X53552Y-26593D01*
X53350Y-26509D01*
X53131Y-26508D01*
X52929Y-26592D01*
X52774Y-26747D01*
X52740Y-26828D01*
X52706Y-26747D01*
X52552Y-26593D01*
X52350Y-26509D01*
X52131Y-26508D01*
X51929Y-26592D01*
X51774Y-26747D01*
X51740Y-26828D01*
X51706Y-26747D01*
X51552Y-26593D01*
X51350Y-26509D01*
X51131Y-26508D01*
X50929Y-26592D01*
X50774Y-26747D01*
X50740Y-26828D01*
X50706Y-26747D01*
X50552Y-26593D01*
X50350Y-26509D01*
X50131Y-26508D01*
X49929Y-26592D01*
X49774Y-26747D01*
X49740Y-26828D01*
X49706Y-26747D01*
X49552Y-26593D01*
X49350Y-26509D01*
X49131Y-26508D01*
X48929Y-26592D01*
X48920Y-26600D01*
X48912Y-26587D01*
X48912Y-26587D01*
X48612Y-26287D01*
X48555Y-26250D01*
X64474Y-26250D01*
X64474Y-26250D01*
G37*
G54D20*
X64474Y-26250D02*
X64325Y-26311D01*
X63911Y-26725D01*
X63790Y-27017D01*
X63790Y-26950D01*
X63706Y-26747D01*
X63552Y-26593D01*
X63350Y-26509D01*
X63131Y-26508D01*
X62929Y-26592D01*
X62774Y-26747D01*
X62740Y-26828D01*
X62706Y-26747D01*
X62552Y-26593D01*
X62350Y-26509D01*
X62131Y-26508D01*
X61929Y-26592D01*
X61774Y-26747D01*
X61740Y-26828D01*
X61706Y-26747D01*
X61552Y-26593D01*
X61350Y-26509D01*
X61131Y-26508D01*
X60929Y-26592D01*
X60774Y-26747D01*
X60740Y-26828D01*
X60706Y-26747D01*
X60552Y-26593D01*
X60350Y-26509D01*
X60131Y-26508D01*
X59929Y-26592D01*
X59774Y-26747D01*
X59740Y-26828D01*
X59706Y-26747D01*
X59552Y-26593D01*
X59350Y-26509D01*
X59131Y-26508D01*
X58929Y-26592D01*
X58774Y-26747D01*
X58740Y-26828D01*
X58706Y-26747D01*
X58552Y-26593D01*
X58350Y-26509D01*
X58131Y-26508D01*
X57929Y-26592D01*
X57774Y-26747D01*
X57740Y-26828D01*
X57706Y-26747D01*
X57552Y-26593D01*
X57350Y-26509D01*
X57131Y-26508D01*
X56929Y-26592D01*
X56774Y-26747D01*
X56740Y-26828D01*
X56706Y-26747D01*
X56552Y-26593D01*
X56350Y-26509D01*
X56131Y-26508D01*
X55929Y-26592D01*
X55774Y-26747D01*
X55740Y-26828D01*
X55706Y-26747D01*
X55552Y-26593D01*
X55350Y-26509D01*
X55131Y-26508D01*
X54929Y-26592D01*
X54774Y-26747D01*
X54740Y-26828D01*
X54706Y-26747D01*
X54552Y-26593D01*
X54350Y-26509D01*
X54131Y-26508D01*
X53929Y-26592D01*
X53774Y-26747D01*
X53740Y-26828D01*
X53706Y-26747D01*
X53552Y-26593D01*
X53350Y-26509D01*
X53131Y-26508D01*
X52929Y-26592D01*
X52774Y-26747D01*
X52740Y-26828D01*
X52706Y-26747D01*
X52552Y-26593D01*
X52350Y-26509D01*
X52131Y-26508D01*
X51929Y-26592D01*
X51774Y-26747D01*
X51740Y-26828D01*
X51706Y-26747D01*
X51552Y-26593D01*
X51350Y-26509D01*
X51131Y-26508D01*
X50929Y-26592D01*
X50774Y-26747D01*
X50740Y-26828D01*
X50706Y-26747D01*
X50552Y-26593D01*
X50350Y-26509D01*
X50131Y-26508D01*
X49929Y-26592D01*
X49774Y-26747D01*
X49740Y-26828D01*
X49706Y-26747D01*
X49552Y-26593D01*
X49350Y-26509D01*
X49131Y-26508D01*
X48929Y-26592D01*
X48920Y-26600D01*
X48912Y-26587D01*
X48912Y-26587D01*
X48612Y-26287D01*
X48555Y-26250D01*
X64474Y-26250D01*
G54D10*
G36*
X65315Y-32203D02*
X65300Y-32200D01*
X63285Y-32200D01*
X63324Y-32104D01*
X63325Y-31896D01*
X63285Y-31800D01*
X65175Y-31800D01*
X65275Y-31899D01*
X65274Y-32103D01*
X65315Y-32203D01*
X65315Y-32203D01*
G37*
G54D20*
X65315Y-32203D02*
X65300Y-32200D01*
X63285Y-32200D01*
X63324Y-32104D01*
X63325Y-31896D01*
X63285Y-31800D01*
X65175Y-31800D01*
X65275Y-31899D01*
X65274Y-32103D01*
X65315Y-32203D01*
G54D10*
G36*
X66301Y-29838D02*
X66245Y-29703D01*
X66097Y-29555D01*
X65904Y-29475D01*
X65696Y-29474D01*
X65503Y-29554D01*
X65355Y-29702D01*
X65275Y-29895D01*
X65274Y-30103D01*
X65354Y-30297D01*
X65502Y-30444D01*
X65635Y-30500D01*
X65503Y-30554D01*
X65355Y-30702D01*
X65275Y-30895D01*
X65274Y-31103D01*
X65315Y-31203D01*
X65300Y-31200D01*
X63285Y-31200D01*
X63324Y-31104D01*
X63325Y-30896D01*
X63245Y-30703D01*
X63097Y-30555D01*
X63025Y-30525D01*
X63124Y-30525D01*
X63216Y-30487D01*
X63286Y-30416D01*
X63324Y-30324D01*
X63325Y-30225D01*
X63325Y-29675D01*
X63287Y-29583D01*
X63216Y-29513D01*
X63124Y-29475D01*
X63025Y-29474D01*
X62475Y-29474D01*
X62383Y-29512D01*
X62313Y-29583D01*
X62275Y-29675D01*
X62274Y-29774D01*
X62274Y-30324D01*
X62312Y-30416D01*
X62383Y-30486D01*
X62475Y-30524D01*
X62574Y-30525D01*
X62574Y-30525D01*
X62503Y-30554D01*
X62355Y-30702D01*
X62275Y-30895D01*
X62274Y-31103D01*
X62314Y-31200D01*
X59524Y-31200D01*
X58000Y-29675D01*
X58000Y-28554D01*
X58130Y-28608D01*
X58349Y-28609D01*
X58551Y-28525D01*
X58706Y-28371D01*
X58740Y-28289D01*
X58773Y-28370D01*
X58928Y-28525D01*
X59130Y-28608D01*
X59349Y-28609D01*
X59551Y-28525D01*
X59706Y-28371D01*
X59740Y-28289D01*
X59773Y-28370D01*
X59928Y-28525D01*
X60130Y-28608D01*
X60349Y-28609D01*
X60551Y-28525D01*
X60706Y-28371D01*
X60740Y-28289D01*
X60773Y-28370D01*
X60928Y-28525D01*
X61130Y-28608D01*
X61349Y-28609D01*
X61551Y-28525D01*
X61706Y-28371D01*
X61740Y-28289D01*
X61773Y-28370D01*
X61928Y-28525D01*
X62130Y-28608D01*
X62349Y-28609D01*
X62551Y-28525D01*
X62706Y-28371D01*
X62740Y-28289D01*
X62773Y-28370D01*
X62928Y-28525D01*
X63130Y-28608D01*
X63349Y-28609D01*
X63551Y-28525D01*
X63706Y-28371D01*
X63790Y-28168D01*
X63790Y-28100D01*
X63910Y-28390D01*
X64323Y-28804D01*
X64863Y-29029D01*
X65448Y-29029D01*
X65989Y-28806D01*
X66301Y-28495D01*
X66301Y-29838D01*
X66301Y-29838D01*
G37*
G54D20*
X66301Y-29838D02*
X66245Y-29703D01*
X66097Y-29555D01*
X65904Y-29475D01*
X65696Y-29474D01*
X65503Y-29554D01*
X65355Y-29702D01*
X65275Y-29895D01*
X65274Y-30103D01*
X65354Y-30297D01*
X65502Y-30444D01*
X65635Y-30500D01*
X65503Y-30554D01*
X65355Y-30702D01*
X65275Y-30895D01*
X65274Y-31103D01*
X65315Y-31203D01*
X65300Y-31200D01*
X63285Y-31200D01*
X63324Y-31104D01*
X63325Y-30896D01*
X63245Y-30703D01*
X63097Y-30555D01*
X63025Y-30525D01*
X63124Y-30525D01*
X63216Y-30487D01*
X63286Y-30416D01*
X63324Y-30324D01*
X63325Y-30225D01*
X63325Y-29675D01*
X63287Y-29583D01*
X63216Y-29513D01*
X63124Y-29475D01*
X63025Y-29474D01*
X62475Y-29474D01*
X62383Y-29512D01*
X62313Y-29583D01*
X62275Y-29675D01*
X62274Y-29774D01*
X62274Y-30324D01*
X62312Y-30416D01*
X62383Y-30486D01*
X62475Y-30524D01*
X62574Y-30525D01*
X62574Y-30525D01*
X62503Y-30554D01*
X62355Y-30702D01*
X62275Y-30895D01*
X62274Y-31103D01*
X62314Y-31200D01*
X59524Y-31200D01*
X58000Y-29675D01*
X58000Y-28554D01*
X58130Y-28608D01*
X58349Y-28609D01*
X58551Y-28525D01*
X58706Y-28371D01*
X58740Y-28289D01*
X58773Y-28370D01*
X58928Y-28525D01*
X59130Y-28608D01*
X59349Y-28609D01*
X59551Y-28525D01*
X59706Y-28371D01*
X59740Y-28289D01*
X59773Y-28370D01*
X59928Y-28525D01*
X60130Y-28608D01*
X60349Y-28609D01*
X60551Y-28525D01*
X60706Y-28371D01*
X60740Y-28289D01*
X60773Y-28370D01*
X60928Y-28525D01*
X61130Y-28608D01*
X61349Y-28609D01*
X61551Y-28525D01*
X61706Y-28371D01*
X61740Y-28289D01*
X61773Y-28370D01*
X61928Y-28525D01*
X62130Y-28608D01*
X62349Y-28609D01*
X62551Y-28525D01*
X62706Y-28371D01*
X62740Y-28289D01*
X62773Y-28370D01*
X62928Y-28525D01*
X63130Y-28608D01*
X63349Y-28609D01*
X63551Y-28525D01*
X63706Y-28371D01*
X63790Y-28168D01*
X63790Y-28100D01*
X63910Y-28390D01*
X64323Y-28804D01*
X64863Y-29029D01*
X65448Y-29029D01*
X65989Y-28806D01*
X66301Y-28495D01*
X66301Y-29838D01*
G54D10*
G36*
X66301Y-30838D02*
X66245Y-30703D01*
X66097Y-30555D01*
X65964Y-30499D01*
X66097Y-30445D01*
X66244Y-30297D01*
X66301Y-30162D01*
X66301Y-30838D01*
X66301Y-30838D01*
G37*
G54D20*
X66301Y-30838D02*
X66245Y-30703D01*
X66097Y-30555D01*
X65964Y-30499D01*
X66097Y-30445D01*
X66244Y-30297D01*
X66301Y-30162D01*
X66301Y-30838D01*
G54D10*
G36*
X66301Y-31838D02*
X66245Y-31703D01*
X66097Y-31555D01*
X65964Y-31499D01*
X66097Y-31445D01*
X66244Y-31297D01*
X66301Y-31162D01*
X66301Y-31838D01*
X66301Y-31838D01*
G37*
G54D20*
X66301Y-31838D02*
X66245Y-31703D01*
X66097Y-31555D01*
X65964Y-31499D01*
X66097Y-31445D01*
X66244Y-31297D01*
X66301Y-31162D01*
X66301Y-31838D01*
G54D10*
G36*
X66301Y-32838D02*
X66245Y-32703D01*
X66097Y-32555D01*
X65964Y-32499D01*
X66097Y-32445D01*
X66244Y-32297D01*
X66301Y-32162D01*
X66301Y-32838D01*
X66301Y-32838D01*
G37*
G54D20*
X66301Y-32838D02*
X66245Y-32703D01*
X66097Y-32555D01*
X65964Y-32499D01*
X66097Y-32445D01*
X66244Y-32297D01*
X66301Y-32162D01*
X66301Y-32838D01*
G54D10*
G36*
X66301Y-42758D02*
X66197Y-42655D01*
X66004Y-42575D01*
X65796Y-42574D01*
X65603Y-42654D01*
X65457Y-42800D01*
X63877Y-42800D01*
X63860Y-42759D01*
X63741Y-42639D01*
X63584Y-42575D01*
X63415Y-42574D01*
X63259Y-42639D01*
X63139Y-42758D01*
X63075Y-42915D01*
X63074Y-43084D01*
X63139Y-43240D01*
X63258Y-43360D01*
X63415Y-43424D01*
X63584Y-43425D01*
X63644Y-43400D01*
X65457Y-43400D01*
X65602Y-43544D01*
X65735Y-43600D01*
X65603Y-43654D01*
X65455Y-43802D01*
X65393Y-43950D01*
X63551Y-43950D01*
X63491Y-43889D01*
X63334Y-43825D01*
X63165Y-43824D01*
X63009Y-43889D01*
X62948Y-43950D01*
X61624Y-43950D01*
X60674Y-43000D01*
X60675Y-42915D01*
X60610Y-42759D01*
X60491Y-42639D01*
X60455Y-42625D01*
X60503Y-42625D01*
X60697Y-42545D01*
X60844Y-42397D01*
X60924Y-42204D01*
X60925Y-41996D01*
X60845Y-41803D01*
X60697Y-41655D01*
X60504Y-41575D01*
X60296Y-41574D01*
X60103Y-41654D01*
X59955Y-41802D01*
X59899Y-41935D01*
X59845Y-41803D01*
X59697Y-41655D01*
X59504Y-41575D01*
X59296Y-41574D01*
X59103Y-41654D01*
X58955Y-41802D01*
X58875Y-41995D01*
X58874Y-42203D01*
X58914Y-42300D01*
X55400Y-42300D01*
X54724Y-42300D01*
X53449Y-41024D01*
X53603Y-41025D01*
X53797Y-40945D01*
X53944Y-40797D01*
X54000Y-40664D01*
X54054Y-40797D01*
X54202Y-40944D01*
X54395Y-41024D01*
X54603Y-41025D01*
X54797Y-40945D01*
X54944Y-40797D01*
X55000Y-40664D01*
X55054Y-40797D01*
X55202Y-40944D01*
X55395Y-41024D01*
X55603Y-41025D01*
X55797Y-40945D01*
X55944Y-40797D01*
X56000Y-40664D01*
X56054Y-40797D01*
X56202Y-40944D01*
X56395Y-41024D01*
X56603Y-41025D01*
X56797Y-40945D01*
X56944Y-40797D01*
X57000Y-40664D01*
X57054Y-40797D01*
X57200Y-40942D01*
X57200Y-41198D01*
X57139Y-41258D01*
X57075Y-41415D01*
X57074Y-41584D01*
X57139Y-41740D01*
X57258Y-41860D01*
X57415Y-41924D01*
X57584Y-41925D01*
X57740Y-41860D01*
X57860Y-41741D01*
X57924Y-41584D01*
X57925Y-41415D01*
X57860Y-41259D01*
X57800Y-41198D01*
X57800Y-40942D01*
X57944Y-40797D01*
X58000Y-40664D01*
X58054Y-40797D01*
X58200Y-40942D01*
X58200Y-41198D01*
X58139Y-41258D01*
X58075Y-41415D01*
X58074Y-41584D01*
X58139Y-41740D01*
X58258Y-41860D01*
X58415Y-41924D01*
X58584Y-41925D01*
X58740Y-41860D01*
X58860Y-41741D01*
X58924Y-41584D01*
X58925Y-41415D01*
X58860Y-41259D01*
X58800Y-41198D01*
X58800Y-40942D01*
X58944Y-40797D01*
X59000Y-40664D01*
X59054Y-40797D01*
X59202Y-40944D01*
X59395Y-41024D01*
X59603Y-41025D01*
X59797Y-40945D01*
X59944Y-40797D01*
X60000Y-40664D01*
X60054Y-40797D01*
X60202Y-40944D01*
X60395Y-41024D01*
X60603Y-41025D01*
X60797Y-40945D01*
X60944Y-40797D01*
X61000Y-40664D01*
X61054Y-40797D01*
X61202Y-40944D01*
X61395Y-41024D01*
X61603Y-41025D01*
X61797Y-40945D01*
X61944Y-40797D01*
X62024Y-40604D01*
X62025Y-40396D01*
X61945Y-40203D01*
X61797Y-40055D01*
X61604Y-39975D01*
X61396Y-39974D01*
X61203Y-40054D01*
X61055Y-40202D01*
X60999Y-40335D01*
X60945Y-40203D01*
X60797Y-40055D01*
X60604Y-39975D01*
X60396Y-39974D01*
X60203Y-40054D01*
X60055Y-40202D01*
X59999Y-40335D01*
X59945Y-40203D01*
X59797Y-40055D01*
X59604Y-39975D01*
X59396Y-39974D01*
X59203Y-40054D01*
X59055Y-40202D01*
X58999Y-40335D01*
X58945Y-40203D01*
X58797Y-40055D01*
X58604Y-39975D01*
X58396Y-39974D01*
X58203Y-40054D01*
X58055Y-40202D01*
X57999Y-40335D01*
X57945Y-40203D01*
X57797Y-40055D01*
X57604Y-39975D01*
X57396Y-39974D01*
X57203Y-40054D01*
X57055Y-40202D01*
X56999Y-40335D01*
X56945Y-40203D01*
X56797Y-40055D01*
X56604Y-39975D01*
X56396Y-39974D01*
X56203Y-40054D01*
X56055Y-40202D01*
X55999Y-40335D01*
X55945Y-40203D01*
X55797Y-40055D01*
X55604Y-39975D01*
X55396Y-39974D01*
X55203Y-40054D01*
X55055Y-40202D01*
X54999Y-40335D01*
X54945Y-40203D01*
X54797Y-40055D01*
X54604Y-39975D01*
X54396Y-39974D01*
X54203Y-40054D01*
X54055Y-40202D01*
X53999Y-40335D01*
X53945Y-40203D01*
X53797Y-40055D01*
X53604Y-39975D01*
X53396Y-39974D01*
X53284Y-40021D01*
X53277Y-39985D01*
X53212Y-39887D01*
X53212Y-39887D01*
X52912Y-39587D01*
X52814Y-39522D01*
X52700Y-39500D01*
X52200Y-39500D01*
X52085Y-39522D01*
X51987Y-39587D01*
X51800Y-39775D01*
X51800Y-39750D01*
X51800Y-38124D01*
X52712Y-37212D01*
X52712Y-37212D01*
X52777Y-37114D01*
X52799Y-37000D01*
X52800Y-37000D01*
X52800Y-34942D01*
X52944Y-34797D01*
X53000Y-34664D01*
X53054Y-34797D01*
X53202Y-34944D01*
X53395Y-35024D01*
X53603Y-35025D01*
X53797Y-34945D01*
X53944Y-34797D01*
X54000Y-34664D01*
X54054Y-34797D01*
X54202Y-34944D01*
X54395Y-35024D01*
X54603Y-35025D01*
X54797Y-34945D01*
X54944Y-34797D01*
X55000Y-34664D01*
X55054Y-34797D01*
X55202Y-34944D01*
X55395Y-35024D01*
X55603Y-35025D01*
X55797Y-34945D01*
X55944Y-34797D01*
X56000Y-34664D01*
X56054Y-34797D01*
X56202Y-34944D01*
X56395Y-35024D01*
X56603Y-35025D01*
X56797Y-34945D01*
X56944Y-34797D01*
X57000Y-34664D01*
X57054Y-34797D01*
X57202Y-34944D01*
X57395Y-35024D01*
X57603Y-35025D01*
X57797Y-34945D01*
X57944Y-34797D01*
X58000Y-34664D01*
X58054Y-34797D01*
X58202Y-34944D01*
X58395Y-35024D01*
X58603Y-35025D01*
X58797Y-34945D01*
X58944Y-34797D01*
X59000Y-34664D01*
X59054Y-34797D01*
X59202Y-34944D01*
X59395Y-35024D01*
X59603Y-35025D01*
X59700Y-34985D01*
X59700Y-35000D01*
X59722Y-35114D01*
X59787Y-35212D01*
X62187Y-37612D01*
X62187Y-37612D01*
X62285Y-37677D01*
X62399Y-37699D01*
X62400Y-37700D01*
X62957Y-37700D01*
X63102Y-37844D01*
X63235Y-37900D01*
X63103Y-37954D01*
X62955Y-38102D01*
X62875Y-38295D01*
X62874Y-38503D01*
X62954Y-38697D01*
X63102Y-38844D01*
X63295Y-38924D01*
X63503Y-38925D01*
X63697Y-38845D01*
X63844Y-38697D01*
X63924Y-38504D01*
X63925Y-38296D01*
X63845Y-38103D01*
X63697Y-37955D01*
X63564Y-37899D01*
X63697Y-37845D01*
X63844Y-37697D01*
X63924Y-37504D01*
X63925Y-37296D01*
X63845Y-37103D01*
X63697Y-36955D01*
X63625Y-36925D01*
X63724Y-36925D01*
X63816Y-36887D01*
X63886Y-36816D01*
X63924Y-36724D01*
X63925Y-36625D01*
X63925Y-36075D01*
X63887Y-35983D01*
X63816Y-35913D01*
X63724Y-35875D01*
X63625Y-35874D01*
X63075Y-35874D01*
X62983Y-35912D01*
X62913Y-35983D01*
X62875Y-36075D01*
X62874Y-36174D01*
X62874Y-36724D01*
X62912Y-36816D01*
X62983Y-36886D01*
X63075Y-36924D01*
X63174Y-36925D01*
X63174Y-36925D01*
X63103Y-36954D01*
X62957Y-37100D01*
X62524Y-37100D01*
X60449Y-35024D01*
X60603Y-35025D01*
X60797Y-34945D01*
X60944Y-34797D01*
X61000Y-34664D01*
X61054Y-34797D01*
X61202Y-34944D01*
X61395Y-35024D01*
X61603Y-35025D01*
X61797Y-34945D01*
X61944Y-34797D01*
X62024Y-34604D01*
X62025Y-34396D01*
X61945Y-34203D01*
X61842Y-34100D01*
X62000Y-34100D01*
X62000Y-34099D01*
X62114Y-34077D01*
X62114Y-34077D01*
X62212Y-34012D01*
X62699Y-33524D01*
X62903Y-33525D01*
X63097Y-33445D01*
X63244Y-33297D01*
X63324Y-33104D01*
X63325Y-32896D01*
X63285Y-32800D01*
X65175Y-32800D01*
X65275Y-32899D01*
X65274Y-33103D01*
X65354Y-33297D01*
X65502Y-33444D01*
X65695Y-33524D01*
X65903Y-33525D01*
X66097Y-33445D01*
X66244Y-33297D01*
X66301Y-33162D01*
X66301Y-42758D01*
X66301Y-42758D01*
G37*
G54D20*
X66301Y-42758D02*
X66197Y-42655D01*
X66004Y-42575D01*
X65796Y-42574D01*
X65603Y-42654D01*
X65457Y-42800D01*
X63877Y-42800D01*
X63860Y-42759D01*
X63741Y-42639D01*
X63584Y-42575D01*
X63415Y-42574D01*
X63259Y-42639D01*
X63139Y-42758D01*
X63075Y-42915D01*
X63074Y-43084D01*
X63139Y-43240D01*
X63258Y-43360D01*
X63415Y-43424D01*
X63584Y-43425D01*
X63644Y-43400D01*
X65457Y-43400D01*
X65602Y-43544D01*
X65735Y-43600D01*
X65603Y-43654D01*
X65455Y-43802D01*
X65393Y-43950D01*
X63551Y-43950D01*
X63491Y-43889D01*
X63334Y-43825D01*
X63165Y-43824D01*
X63009Y-43889D01*
X62948Y-43950D01*
X61624Y-43950D01*
X60674Y-43000D01*
X60675Y-42915D01*
X60610Y-42759D01*
X60491Y-42639D01*
X60455Y-42625D01*
X60503Y-42625D01*
X60697Y-42545D01*
X60844Y-42397D01*
X60924Y-42204D01*
X60925Y-41996D01*
X60845Y-41803D01*
X60697Y-41655D01*
X60504Y-41575D01*
X60296Y-41574D01*
X60103Y-41654D01*
X59955Y-41802D01*
X59899Y-41935D01*
X59845Y-41803D01*
X59697Y-41655D01*
X59504Y-41575D01*
X59296Y-41574D01*
X59103Y-41654D01*
X58955Y-41802D01*
X58875Y-41995D01*
X58874Y-42203D01*
X58914Y-42300D01*
X55400Y-42300D01*
X54724Y-42300D01*
X53449Y-41024D01*
X53603Y-41025D01*
X53797Y-40945D01*
X53944Y-40797D01*
X54000Y-40664D01*
X54054Y-40797D01*
X54202Y-40944D01*
X54395Y-41024D01*
X54603Y-41025D01*
X54797Y-40945D01*
X54944Y-40797D01*
X55000Y-40664D01*
X55054Y-40797D01*
X55202Y-40944D01*
X55395Y-41024D01*
X55603Y-41025D01*
X55797Y-40945D01*
X55944Y-40797D01*
X56000Y-40664D01*
X56054Y-40797D01*
X56202Y-40944D01*
X56395Y-41024D01*
X56603Y-41025D01*
X56797Y-40945D01*
X56944Y-40797D01*
X57000Y-40664D01*
X57054Y-40797D01*
X57200Y-40942D01*
X57200Y-41198D01*
X57139Y-41258D01*
X57075Y-41415D01*
X57074Y-41584D01*
X57139Y-41740D01*
X57258Y-41860D01*
X57415Y-41924D01*
X57584Y-41925D01*
X57740Y-41860D01*
X57860Y-41741D01*
X57924Y-41584D01*
X57925Y-41415D01*
X57860Y-41259D01*
X57800Y-41198D01*
X57800Y-40942D01*
X57944Y-40797D01*
X58000Y-40664D01*
X58054Y-40797D01*
X58200Y-40942D01*
X58200Y-41198D01*
X58139Y-41258D01*
X58075Y-41415D01*
X58074Y-41584D01*
X58139Y-41740D01*
X58258Y-41860D01*
X58415Y-41924D01*
X58584Y-41925D01*
X58740Y-41860D01*
X58860Y-41741D01*
X58924Y-41584D01*
X58925Y-41415D01*
X58860Y-41259D01*
X58800Y-41198D01*
X58800Y-40942D01*
X58944Y-40797D01*
X59000Y-40664D01*
X59054Y-40797D01*
X59202Y-40944D01*
X59395Y-41024D01*
X59603Y-41025D01*
X59797Y-40945D01*
X59944Y-40797D01*
X60000Y-40664D01*
X60054Y-40797D01*
X60202Y-40944D01*
X60395Y-41024D01*
X60603Y-41025D01*
X60797Y-40945D01*
X60944Y-40797D01*
X61000Y-40664D01*
X61054Y-40797D01*
X61202Y-40944D01*
X61395Y-41024D01*
X61603Y-41025D01*
X61797Y-40945D01*
X61944Y-40797D01*
X62024Y-40604D01*
X62025Y-40396D01*
X61945Y-40203D01*
X61797Y-40055D01*
X61604Y-39975D01*
X61396Y-39974D01*
X61203Y-40054D01*
X61055Y-40202D01*
X60999Y-40335D01*
X60945Y-40203D01*
X60797Y-40055D01*
X60604Y-39975D01*
X60396Y-39974D01*
X60203Y-40054D01*
X60055Y-40202D01*
X59999Y-40335D01*
X59945Y-40203D01*
X59797Y-40055D01*
X59604Y-39975D01*
X59396Y-39974D01*
X59203Y-40054D01*
X59055Y-40202D01*
X58999Y-40335D01*
X58945Y-40203D01*
X58797Y-40055D01*
X58604Y-39975D01*
X58396Y-39974D01*
X58203Y-40054D01*
X58055Y-40202D01*
X57999Y-40335D01*
X57945Y-40203D01*
X57797Y-40055D01*
X57604Y-39975D01*
X57396Y-39974D01*
X57203Y-40054D01*
X57055Y-40202D01*
X56999Y-40335D01*
X56945Y-40203D01*
X56797Y-40055D01*
X56604Y-39975D01*
X56396Y-39974D01*
X56203Y-40054D01*
X56055Y-40202D01*
X55999Y-40335D01*
X55945Y-40203D01*
X55797Y-40055D01*
X55604Y-39975D01*
X55396Y-39974D01*
X55203Y-40054D01*
X55055Y-40202D01*
X54999Y-40335D01*
X54945Y-40203D01*
X54797Y-40055D01*
X54604Y-39975D01*
X54396Y-39974D01*
X54203Y-40054D01*
X54055Y-40202D01*
X53999Y-40335D01*
X53945Y-40203D01*
X53797Y-40055D01*
X53604Y-39975D01*
X53396Y-39974D01*
X53284Y-40021D01*
X53277Y-39985D01*
X53212Y-39887D01*
X53212Y-39887D01*
X52912Y-39587D01*
X52814Y-39522D01*
X52700Y-39500D01*
X52200Y-39500D01*
X52085Y-39522D01*
X51987Y-39587D01*
X51800Y-39775D01*
X51800Y-39750D01*
X51800Y-38124D01*
X52712Y-37212D01*
X52712Y-37212D01*
X52777Y-37114D01*
X52799Y-37000D01*
X52800Y-37000D01*
X52800Y-34942D01*
X52944Y-34797D01*
X53000Y-34664D01*
X53054Y-34797D01*
X53202Y-34944D01*
X53395Y-35024D01*
X53603Y-35025D01*
X53797Y-34945D01*
X53944Y-34797D01*
X54000Y-34664D01*
X54054Y-34797D01*
X54202Y-34944D01*
X54395Y-35024D01*
X54603Y-35025D01*
X54797Y-34945D01*
X54944Y-34797D01*
X55000Y-34664D01*
X55054Y-34797D01*
X55202Y-34944D01*
X55395Y-35024D01*
X55603Y-35025D01*
X55797Y-34945D01*
X55944Y-34797D01*
X56000Y-34664D01*
X56054Y-34797D01*
X56202Y-34944D01*
X56395Y-35024D01*
X56603Y-35025D01*
X56797Y-34945D01*
X56944Y-34797D01*
X57000Y-34664D01*
X57054Y-34797D01*
X57202Y-34944D01*
X57395Y-35024D01*
X57603Y-35025D01*
X57797Y-34945D01*
X57944Y-34797D01*
X58000Y-34664D01*
X58054Y-34797D01*
X58202Y-34944D01*
X58395Y-35024D01*
X58603Y-35025D01*
X58797Y-34945D01*
X58944Y-34797D01*
X59000Y-34664D01*
X59054Y-34797D01*
X59202Y-34944D01*
X59395Y-35024D01*
X59603Y-35025D01*
X59700Y-34985D01*
X59700Y-35000D01*
X59722Y-35114D01*
X59787Y-35212D01*
X62187Y-37612D01*
X62187Y-37612D01*
X62285Y-37677D01*
X62399Y-37699D01*
X62400Y-37700D01*
X62957Y-37700D01*
X63102Y-37844D01*
X63235Y-37900D01*
X63103Y-37954D01*
X62955Y-38102D01*
X62875Y-38295D01*
X62874Y-38503D01*
X62954Y-38697D01*
X63102Y-38844D01*
X63295Y-38924D01*
X63503Y-38925D01*
X63697Y-38845D01*
X63844Y-38697D01*
X63924Y-38504D01*
X63925Y-38296D01*
X63845Y-38103D01*
X63697Y-37955D01*
X63564Y-37899D01*
X63697Y-37845D01*
X63844Y-37697D01*
X63924Y-37504D01*
X63925Y-37296D01*
X63845Y-37103D01*
X63697Y-36955D01*
X63625Y-36925D01*
X63724Y-36925D01*
X63816Y-36887D01*
X63886Y-36816D01*
X63924Y-36724D01*
X63925Y-36625D01*
X63925Y-36075D01*
X63887Y-35983D01*
X63816Y-35913D01*
X63724Y-35875D01*
X63625Y-35874D01*
X63075Y-35874D01*
X62983Y-35912D01*
X62913Y-35983D01*
X62875Y-36075D01*
X62874Y-36174D01*
X62874Y-36724D01*
X62912Y-36816D01*
X62983Y-36886D01*
X63075Y-36924D01*
X63174Y-36925D01*
X63174Y-36925D01*
X63103Y-36954D01*
X62957Y-37100D01*
X62524Y-37100D01*
X60449Y-35024D01*
X60603Y-35025D01*
X60797Y-34945D01*
X60944Y-34797D01*
X61000Y-34664D01*
X61054Y-34797D01*
X61202Y-34944D01*
X61395Y-35024D01*
X61603Y-35025D01*
X61797Y-34945D01*
X61944Y-34797D01*
X62024Y-34604D01*
X62025Y-34396D01*
X61945Y-34203D01*
X61842Y-34100D01*
X62000Y-34100D01*
X62000Y-34099D01*
X62114Y-34077D01*
X62114Y-34077D01*
X62212Y-34012D01*
X62699Y-33524D01*
X62903Y-33525D01*
X63097Y-33445D01*
X63244Y-33297D01*
X63324Y-33104D01*
X63325Y-32896D01*
X63285Y-32800D01*
X65175Y-32800D01*
X65275Y-32899D01*
X65274Y-33103D01*
X65354Y-33297D01*
X65502Y-33444D01*
X65695Y-33524D01*
X65903Y-33525D01*
X66097Y-33445D01*
X66244Y-33297D01*
X66301Y-33162D01*
X66301Y-42758D01*
G54D10*
G36*
X66301Y-43758D02*
X66197Y-43655D01*
X66064Y-43599D01*
X66197Y-43545D01*
X66301Y-43441D01*
X66301Y-43758D01*
X66301Y-43758D01*
G37*
G54D20*
X66301Y-43758D02*
X66197Y-43655D01*
X66064Y-43599D01*
X66197Y-43545D01*
X66301Y-43441D01*
X66301Y-43758D01*
G54D10*
G36*
X66301Y-45717D02*
X65991Y-45407D01*
X65451Y-45183D01*
X64866Y-45182D01*
X64325Y-45406D01*
X63911Y-45819D01*
X63687Y-46359D01*
X63686Y-46944D01*
X63910Y-47485D01*
X64182Y-47757D01*
X59786Y-47757D01*
X60026Y-47517D01*
X60202Y-47590D01*
X60536Y-47590D01*
X60845Y-47463D01*
X61082Y-47226D01*
X61210Y-46917D01*
X61210Y-46583D01*
X61083Y-46274D01*
X60846Y-46037D01*
X60538Y-45909D01*
X60203Y-45909D01*
X59894Y-46037D01*
X59657Y-46273D01*
X59529Y-46582D01*
X59529Y-46916D01*
X59602Y-47093D01*
X59245Y-47450D01*
X58937Y-47450D01*
X58954Y-47433D01*
X59037Y-47232D01*
X59037Y-47016D01*
X59037Y-45736D01*
X58954Y-45536D01*
X58801Y-45382D01*
X58601Y-45299D01*
X58384Y-45299D01*
X58183Y-45381D01*
X58030Y-45535D01*
X58000Y-45607D01*
X57970Y-45536D01*
X57817Y-45382D01*
X57616Y-45299D01*
X57399Y-45299D01*
X57199Y-45381D01*
X57045Y-45535D01*
X56962Y-45735D01*
X56962Y-45952D01*
X57045Y-46152D01*
X57198Y-46306D01*
X57398Y-46389D01*
X57615Y-46389D01*
X57816Y-46307D01*
X57969Y-46153D01*
X57999Y-46081D01*
X58029Y-46152D01*
X58182Y-46306D01*
X58383Y-46389D01*
X58600Y-46389D01*
X58800Y-46307D01*
X58954Y-46153D01*
X59037Y-45953D01*
X59037Y-45736D01*
X59037Y-47016D01*
X58954Y-46815D01*
X58801Y-46662D01*
X58601Y-46578D01*
X58384Y-46578D01*
X58183Y-46661D01*
X58030Y-46814D01*
X58000Y-46887D01*
X57970Y-46815D01*
X57817Y-46662D01*
X57616Y-46578D01*
X57399Y-46578D01*
X57199Y-46661D01*
X57045Y-46814D01*
X56962Y-47015D01*
X56962Y-47232D01*
X57045Y-47432D01*
X57062Y-47450D01*
X56754Y-47450D01*
X56397Y-47093D01*
X56470Y-46917D01*
X56470Y-46583D01*
X56342Y-46274D01*
X56106Y-46037D01*
X55797Y-45909D01*
X55463Y-45909D01*
X55286Y-45982D01*
X54620Y-45316D01*
X54741Y-45195D01*
X54824Y-44994D01*
X54824Y-44777D01*
X54742Y-44577D01*
X54588Y-44423D01*
X54388Y-44340D01*
X54171Y-44340D01*
X53971Y-44423D01*
X53817Y-44576D01*
X53734Y-44776D01*
X53734Y-44993D01*
X53816Y-45194D01*
X53970Y-45347D01*
X53979Y-45351D01*
X53979Y-45399D01*
X54002Y-45514D01*
X54067Y-45611D01*
X54862Y-46406D01*
X54789Y-46582D01*
X54789Y-46916D01*
X54916Y-47225D01*
X55153Y-47462D01*
X55461Y-47590D01*
X55796Y-47590D01*
X55973Y-47517D01*
X56213Y-47757D01*
X53211Y-47757D01*
X53274Y-47604D01*
X53275Y-47396D01*
X53195Y-47203D01*
X53047Y-47055D01*
X52854Y-46975D01*
X52646Y-46974D01*
X52453Y-47054D01*
X52305Y-47202D01*
X52265Y-47296D01*
X52265Y-44777D01*
X52265Y-43006D01*
X52183Y-42805D01*
X52029Y-42652D01*
X51829Y-42568D01*
X51612Y-42568D01*
X51412Y-42651D01*
X51258Y-42804D01*
X51175Y-43005D01*
X51175Y-43222D01*
X51257Y-43422D01*
X51411Y-43576D01*
X51611Y-43659D01*
X51828Y-43659D01*
X52028Y-43576D01*
X52182Y-43423D01*
X52265Y-43223D01*
X52265Y-43006D01*
X52265Y-44777D01*
X52183Y-44577D01*
X52029Y-44423D01*
X51829Y-44340D01*
X51612Y-44340D01*
X51412Y-44423D01*
X51258Y-44576D01*
X51175Y-44776D01*
X51175Y-44993D01*
X51257Y-45194D01*
X51411Y-45347D01*
X51611Y-45431D01*
X51828Y-45431D01*
X52028Y-45348D01*
X52182Y-45195D01*
X52265Y-44994D01*
X52265Y-44777D01*
X52265Y-47296D01*
X52249Y-47335D01*
X52195Y-47203D01*
X52047Y-47055D01*
X51854Y-46975D01*
X51646Y-46974D01*
X51453Y-47054D01*
X51305Y-47202D01*
X51225Y-47395D01*
X51224Y-47603D01*
X51288Y-47757D01*
X48725Y-47757D01*
X48725Y-45796D01*
X48645Y-45603D01*
X48497Y-45455D01*
X48304Y-45375D01*
X48096Y-45374D01*
X47903Y-45454D01*
X47755Y-45602D01*
X47675Y-45795D01*
X47674Y-46003D01*
X47754Y-46197D01*
X47902Y-46344D01*
X48095Y-46424D01*
X48303Y-46425D01*
X48497Y-46345D01*
X48644Y-46197D01*
X48724Y-46004D01*
X48725Y-45796D01*
X48725Y-47757D01*
X43297Y-47757D01*
X43568Y-47487D01*
X43793Y-46947D01*
X43793Y-46362D01*
X43570Y-45821D01*
X43156Y-45407D01*
X42897Y-45300D01*
X44175Y-45300D01*
X44675Y-45799D01*
X44674Y-46003D01*
X44754Y-46197D01*
X44902Y-46344D01*
X45095Y-46424D01*
X45303Y-46425D01*
X45497Y-46345D01*
X45644Y-46197D01*
X45724Y-46004D01*
X45725Y-45796D01*
X45645Y-45603D01*
X45497Y-45455D01*
X45304Y-45375D01*
X45099Y-45374D01*
X44722Y-44998D01*
X44808Y-44962D01*
X44961Y-44809D01*
X44999Y-44717D01*
X45037Y-44808D01*
X45190Y-44961D01*
X45391Y-45045D01*
X45607Y-45045D01*
X45808Y-44962D01*
X45961Y-44809D01*
X45999Y-44717D01*
X46037Y-44808D01*
X46190Y-44961D01*
X46391Y-45045D01*
X46607Y-45045D01*
X46808Y-44962D01*
X46961Y-44809D01*
X46999Y-44717D01*
X47037Y-44808D01*
X47190Y-44961D01*
X47391Y-45045D01*
X47607Y-45045D01*
X47808Y-44962D01*
X47961Y-44809D01*
X47999Y-44717D01*
X48037Y-44808D01*
X48190Y-44961D01*
X48391Y-45045D01*
X48607Y-45045D01*
X48808Y-44962D01*
X48961Y-44809D01*
X48999Y-44717D01*
X49037Y-44808D01*
X49190Y-44961D01*
X49391Y-45045D01*
X49607Y-45045D01*
X49808Y-44962D01*
X49961Y-44809D01*
X49999Y-44717D01*
X50037Y-44808D01*
X50190Y-44961D01*
X50391Y-45045D01*
X50607Y-45045D01*
X50808Y-44962D01*
X50961Y-44809D01*
X51045Y-44608D01*
X51045Y-44392D01*
X50962Y-44191D01*
X50809Y-44038D01*
X50717Y-44000D01*
X50808Y-43962D01*
X50961Y-43809D01*
X51045Y-43608D01*
X51045Y-43392D01*
X50962Y-43191D01*
X50809Y-43038D01*
X50608Y-42954D01*
X50392Y-42954D01*
X50191Y-43037D01*
X50038Y-43190D01*
X50000Y-43282D01*
X49962Y-43191D01*
X49809Y-43038D01*
X49608Y-42954D01*
X49392Y-42954D01*
X49300Y-42992D01*
X49300Y-40985D01*
X49395Y-41024D01*
X49603Y-41025D01*
X49797Y-40945D01*
X49944Y-40797D01*
X50000Y-40664D01*
X50054Y-40797D01*
X50202Y-40944D01*
X50395Y-41024D01*
X50603Y-41025D01*
X50700Y-40985D01*
X50700Y-41000D01*
X50722Y-41114D01*
X50787Y-41212D01*
X50885Y-41277D01*
X51000Y-41300D01*
X52000Y-41300D01*
X52000Y-41299D01*
X52114Y-41277D01*
X52114Y-41277D01*
X52212Y-41212D01*
X52399Y-41024D01*
X52603Y-41025D01*
X52700Y-40985D01*
X52700Y-41000D01*
X52722Y-41114D01*
X52787Y-41212D01*
X54152Y-42576D01*
X53971Y-42651D01*
X53817Y-42804D01*
X53734Y-43005D01*
X53734Y-43222D01*
X53816Y-43422D01*
X53970Y-43576D01*
X54170Y-43659D01*
X54387Y-43659D01*
X54587Y-43576D01*
X54741Y-43423D01*
X54824Y-43223D01*
X54824Y-43006D01*
X54781Y-42900D01*
X54870Y-42900D01*
X54850Y-42950D01*
X54849Y-43049D01*
X54849Y-43649D01*
X54887Y-43741D01*
X54958Y-43811D01*
X55050Y-43849D01*
X55149Y-43850D01*
X55749Y-43850D01*
X55841Y-43812D01*
X55911Y-43741D01*
X55949Y-43649D01*
X55949Y-43627D01*
X56088Y-43765D01*
X56290Y-43849D01*
X56508Y-43850D01*
X56711Y-43766D01*
X56865Y-43611D01*
X56899Y-43530D01*
X56933Y-43611D01*
X57088Y-43765D01*
X57290Y-43849D01*
X57508Y-43850D01*
X57711Y-43766D01*
X57865Y-43611D01*
X57899Y-43530D01*
X57933Y-43611D01*
X58088Y-43765D01*
X58290Y-43849D01*
X58508Y-43850D01*
X58711Y-43766D01*
X58865Y-43611D01*
X58949Y-43409D01*
X58950Y-43191D01*
X58866Y-42988D01*
X58777Y-42900D01*
X59725Y-42900D01*
X59825Y-42999D01*
X59824Y-43084D01*
X59889Y-43240D01*
X60008Y-43360D01*
X60165Y-43424D01*
X60250Y-43425D01*
X61287Y-44462D01*
X61385Y-44527D01*
X61500Y-44550D01*
X62948Y-44550D01*
X63008Y-44610D01*
X63165Y-44674D01*
X63334Y-44675D01*
X63490Y-44610D01*
X63551Y-44550D01*
X65614Y-44550D01*
X65795Y-44624D01*
X66003Y-44625D01*
X66197Y-44545D01*
X66301Y-44441D01*
X66301Y-45717D01*
X66301Y-45717D01*
G37*
G54D20*
X66301Y-45717D02*
X65991Y-45407D01*
X65451Y-45183D01*
X64866Y-45182D01*
X64325Y-45406D01*
X63911Y-45819D01*
X63687Y-46359D01*
X63686Y-46944D01*
X63910Y-47485D01*
X64182Y-47757D01*
X59786Y-47757D01*
X60026Y-47517D01*
X60202Y-47590D01*
X60536Y-47590D01*
X60845Y-47463D01*
X61082Y-47226D01*
X61210Y-46917D01*
X61210Y-46583D01*
X61083Y-46274D01*
X60846Y-46037D01*
X60538Y-45909D01*
X60203Y-45909D01*
X59894Y-46037D01*
X59657Y-46273D01*
X59529Y-46582D01*
X59529Y-46916D01*
X59602Y-47093D01*
X59245Y-47450D01*
X58937Y-47450D01*
X58954Y-47433D01*
X59037Y-47232D01*
X59037Y-47016D01*
X59037Y-45736D01*
X58954Y-45536D01*
X58801Y-45382D01*
X58601Y-45299D01*
X58384Y-45299D01*
X58183Y-45381D01*
X58030Y-45535D01*
X58000Y-45607D01*
X57970Y-45536D01*
X57817Y-45382D01*
X57616Y-45299D01*
X57399Y-45299D01*
X57199Y-45381D01*
X57045Y-45535D01*
X56962Y-45735D01*
X56962Y-45952D01*
X57045Y-46152D01*
X57198Y-46306D01*
X57398Y-46389D01*
X57615Y-46389D01*
X57816Y-46307D01*
X57969Y-46153D01*
X57999Y-46081D01*
X58029Y-46152D01*
X58182Y-46306D01*
X58383Y-46389D01*
X58600Y-46389D01*
X58800Y-46307D01*
X58954Y-46153D01*
X59037Y-45953D01*
X59037Y-45736D01*
X59037Y-47016D01*
X58954Y-46815D01*
X58801Y-46662D01*
X58601Y-46578D01*
X58384Y-46578D01*
X58183Y-46661D01*
X58030Y-46814D01*
X58000Y-46887D01*
X57970Y-46815D01*
X57817Y-46662D01*
X57616Y-46578D01*
X57399Y-46578D01*
X57199Y-46661D01*
X57045Y-46814D01*
X56962Y-47015D01*
X56962Y-47232D01*
X57045Y-47432D01*
X57062Y-47450D01*
X56754Y-47450D01*
X56397Y-47093D01*
X56470Y-46917D01*
X56470Y-46583D01*
X56342Y-46274D01*
X56106Y-46037D01*
X55797Y-45909D01*
X55463Y-45909D01*
X55286Y-45982D01*
X54620Y-45316D01*
X54741Y-45195D01*
X54824Y-44994D01*
X54824Y-44777D01*
X54742Y-44577D01*
X54588Y-44423D01*
X54388Y-44340D01*
X54171Y-44340D01*
X53971Y-44423D01*
X53817Y-44576D01*
X53734Y-44776D01*
X53734Y-44993D01*
X53816Y-45194D01*
X53970Y-45347D01*
X53979Y-45351D01*
X53979Y-45399D01*
X54002Y-45514D01*
X54067Y-45611D01*
X54862Y-46406D01*
X54789Y-46582D01*
X54789Y-46916D01*
X54916Y-47225D01*
X55153Y-47462D01*
X55461Y-47590D01*
X55796Y-47590D01*
X55973Y-47517D01*
X56213Y-47757D01*
X53211Y-47757D01*
X53274Y-47604D01*
X53275Y-47396D01*
X53195Y-47203D01*
X53047Y-47055D01*
X52854Y-46975D01*
X52646Y-46974D01*
X52453Y-47054D01*
X52305Y-47202D01*
X52265Y-47296D01*
X52265Y-44777D01*
X52265Y-43006D01*
X52183Y-42805D01*
X52029Y-42652D01*
X51829Y-42568D01*
X51612Y-42568D01*
X51412Y-42651D01*
X51258Y-42804D01*
X51175Y-43005D01*
X51175Y-43222D01*
X51257Y-43422D01*
X51411Y-43576D01*
X51611Y-43659D01*
X51828Y-43659D01*
X52028Y-43576D01*
X52182Y-43423D01*
X52265Y-43223D01*
X52265Y-43006D01*
X52265Y-44777D01*
X52183Y-44577D01*
X52029Y-44423D01*
X51829Y-44340D01*
X51612Y-44340D01*
X51412Y-44423D01*
X51258Y-44576D01*
X51175Y-44776D01*
X51175Y-44993D01*
X51257Y-45194D01*
X51411Y-45347D01*
X51611Y-45431D01*
X51828Y-45431D01*
X52028Y-45348D01*
X52182Y-45195D01*
X52265Y-44994D01*
X52265Y-44777D01*
X52265Y-47296D01*
X52249Y-47335D01*
X52195Y-47203D01*
X52047Y-47055D01*
X51854Y-46975D01*
X51646Y-46974D01*
X51453Y-47054D01*
X51305Y-47202D01*
X51225Y-47395D01*
X51224Y-47603D01*
X51288Y-47757D01*
X48725Y-47757D01*
X48725Y-45796D01*
X48645Y-45603D01*
X48497Y-45455D01*
X48304Y-45375D01*
X48096Y-45374D01*
X47903Y-45454D01*
X47755Y-45602D01*
X47675Y-45795D01*
X47674Y-46003D01*
X47754Y-46197D01*
X47902Y-46344D01*
X48095Y-46424D01*
X48303Y-46425D01*
X48497Y-46345D01*
X48644Y-46197D01*
X48724Y-46004D01*
X48725Y-45796D01*
X48725Y-47757D01*
X43297Y-47757D01*
X43568Y-47487D01*
X43793Y-46947D01*
X43793Y-46362D01*
X43570Y-45821D01*
X43156Y-45407D01*
X42897Y-45300D01*
X44175Y-45300D01*
X44675Y-45799D01*
X44674Y-46003D01*
X44754Y-46197D01*
X44902Y-46344D01*
X45095Y-46424D01*
X45303Y-46425D01*
X45497Y-46345D01*
X45644Y-46197D01*
X45724Y-46004D01*
X45725Y-45796D01*
X45645Y-45603D01*
X45497Y-45455D01*
X45304Y-45375D01*
X45099Y-45374D01*
X44722Y-44998D01*
X44808Y-44962D01*
X44961Y-44809D01*
X44999Y-44717D01*
X45037Y-44808D01*
X45190Y-44961D01*
X45391Y-45045D01*
X45607Y-45045D01*
X45808Y-44962D01*
X45961Y-44809D01*
X45999Y-44717D01*
X46037Y-44808D01*
X46190Y-44961D01*
X46391Y-45045D01*
X46607Y-45045D01*
X46808Y-44962D01*
X46961Y-44809D01*
X46999Y-44717D01*
X47037Y-44808D01*
X47190Y-44961D01*
X47391Y-45045D01*
X47607Y-45045D01*
X47808Y-44962D01*
X47961Y-44809D01*
X47999Y-44717D01*
X48037Y-44808D01*
X48190Y-44961D01*
X48391Y-45045D01*
X48607Y-45045D01*
X48808Y-44962D01*
X48961Y-44809D01*
X48999Y-44717D01*
X49037Y-44808D01*
X49190Y-44961D01*
X49391Y-45045D01*
X49607Y-45045D01*
X49808Y-44962D01*
X49961Y-44809D01*
X49999Y-44717D01*
X50037Y-44808D01*
X50190Y-44961D01*
X50391Y-45045D01*
X50607Y-45045D01*
X50808Y-44962D01*
X50961Y-44809D01*
X51045Y-44608D01*
X51045Y-44392D01*
X50962Y-44191D01*
X50809Y-44038D01*
X50717Y-44000D01*
X50808Y-43962D01*
X50961Y-43809D01*
X51045Y-43608D01*
X51045Y-43392D01*
X50962Y-43191D01*
X50809Y-43038D01*
X50608Y-42954D01*
X50392Y-42954D01*
X50191Y-43037D01*
X50038Y-43190D01*
X50000Y-43282D01*
X49962Y-43191D01*
X49809Y-43038D01*
X49608Y-42954D01*
X49392Y-42954D01*
X49300Y-42992D01*
X49300Y-40985D01*
X49395Y-41024D01*
X49603Y-41025D01*
X49797Y-40945D01*
X49944Y-40797D01*
X50000Y-40664D01*
X50054Y-40797D01*
X50202Y-40944D01*
X50395Y-41024D01*
X50603Y-41025D01*
X50700Y-40985D01*
X50700Y-41000D01*
X50722Y-41114D01*
X50787Y-41212D01*
X50885Y-41277D01*
X51000Y-41300D01*
X52000Y-41300D01*
X52000Y-41299D01*
X52114Y-41277D01*
X52114Y-41277D01*
X52212Y-41212D01*
X52399Y-41024D01*
X52603Y-41025D01*
X52700Y-40985D01*
X52700Y-41000D01*
X52722Y-41114D01*
X52787Y-41212D01*
X54152Y-42576D01*
X53971Y-42651D01*
X53817Y-42804D01*
X53734Y-43005D01*
X53734Y-43222D01*
X53816Y-43422D01*
X53970Y-43576D01*
X54170Y-43659D01*
X54387Y-43659D01*
X54587Y-43576D01*
X54741Y-43423D01*
X54824Y-43223D01*
X54824Y-43006D01*
X54781Y-42900D01*
X54870Y-42900D01*
X54850Y-42950D01*
X54849Y-43049D01*
X54849Y-43649D01*
X54887Y-43741D01*
X54958Y-43811D01*
X55050Y-43849D01*
X55149Y-43850D01*
X55749Y-43850D01*
X55841Y-43812D01*
X55911Y-43741D01*
X55949Y-43649D01*
X55949Y-43627D01*
X56088Y-43765D01*
X56290Y-43849D01*
X56508Y-43850D01*
X56711Y-43766D01*
X56865Y-43611D01*
X56899Y-43530D01*
X56933Y-43611D01*
X57088Y-43765D01*
X57290Y-43849D01*
X57508Y-43850D01*
X57711Y-43766D01*
X57865Y-43611D01*
X57899Y-43530D01*
X57933Y-43611D01*
X58088Y-43765D01*
X58290Y-43849D01*
X58508Y-43850D01*
X58711Y-43766D01*
X58865Y-43611D01*
X58949Y-43409D01*
X58950Y-43191D01*
X58866Y-42988D01*
X58777Y-42900D01*
X59725Y-42900D01*
X59825Y-42999D01*
X59824Y-43084D01*
X59889Y-43240D01*
X60008Y-43360D01*
X60165Y-43424D01*
X60250Y-43425D01*
X61287Y-44462D01*
X61385Y-44527D01*
X61500Y-44550D01*
X62948Y-44550D01*
X63008Y-44610D01*
X63165Y-44674D01*
X63334Y-44675D01*
X63490Y-44610D01*
X63551Y-44550D01*
X65614Y-44550D01*
X65795Y-44624D01*
X66003Y-44625D01*
X66197Y-44545D01*
X66301Y-44441D01*
X66301Y-45717D01*
M02*
