M48
;DRILL file {Pcbnew (2013-07-07 BZR 4022)-stable} date 9/25/2014 9:46:01 PM
;FORMAT={-:-/ absolute / metric / decimal}
FMAT,2
METRIC,TZ
T1C0.635
T2C0.813
T3C0.920
T4C0.990
T5C1.016
T6C2.300
T7C2.750
%
G90
G05
M71
T1
X128.27Y-90.932
X135.5Y-79.5
X143.Y-79.5
X146.05Y-105.41
X148.59Y-105.41
X153.035Y-109.22
X160.655Y-112.395
X161.29Y-109.22
T2
X107.95Y-87.63
X107.95Y-102.87
X110.49Y-87.63
X110.49Y-102.87
X113.03Y-87.63
X113.03Y-102.87
X114.808Y-116.586
X115.57Y-87.63
X115.57Y-102.87
X118.11Y-87.63
X118.11Y-102.87
X120.65Y-87.63
X120.65Y-102.87
X122.428Y-116.586
X123.19Y-87.63
X123.19Y-102.87
X125.73Y-79.756
X125.73Y-87.63
X125.73Y-102.87
X128.27Y-79.756
X128.27Y-87.63
X128.27Y-102.87
X130.81Y-87.63
X130.81Y-102.87
X131.445Y-120.65
X133.35Y-87.63
X133.35Y-102.87
X133.985Y-120.65
X135.89Y-87.63
X135.89Y-102.87
X138.43Y-87.63
X138.43Y-102.87
X140.97Y-87.63
X140.97Y-102.87
X143.51Y-87.63
X143.51Y-102.87
X146.05Y-87.63
X146.05Y-102.87
X148.59Y-87.63
X148.59Y-102.87
X150.876Y-106.934
X151.13Y-87.63
X151.13Y-102.87
X153.416Y-106.934
X153.67Y-87.63
X153.67Y-102.87
X156.21Y-87.63
X156.21Y-102.87
X159.512Y-76.2
X159.512Y-78.74
X159.512Y-81.28
X159.512Y-83.82
X161.036Y-92.456
X161.036Y-94.996
X161.036Y-97.536
X167.132Y-76.2
X167.132Y-78.74
X167.132Y-81.28
X167.132Y-83.82
X167.386Y-109.474
X167.386Y-112.014
T3
X146.07Y-116.445
X146.07Y-119.695
X148.57Y-116.445
X148.57Y-119.695
T4
X131.37Y-109.51
X131.37Y-114.01
X137.87Y-109.51
X137.87Y-114.01
T5
X105.41Y-110.49
X105.41Y-113.03
X107.95Y-110.49
X107.95Y-113.03
X110.49Y-75.692
X110.49Y-78.232
X110.49Y-80.772
X110.49Y-110.49
X110.49Y-113.03
X112.37Y-68.73
X112.37Y-71.27
X113.03Y-110.49
X113.03Y-113.03
X114.808Y-75.438
X114.91Y-68.73
X114.91Y-71.27
X115.57Y-110.49
X115.57Y-113.03
X117.348Y-75.438
X117.45Y-68.73
X117.45Y-71.27
X118.11Y-110.49
X118.11Y-113.03
X119.888Y-75.438
X119.99Y-68.73
X119.99Y-71.27
X120.65Y-110.49
X120.65Y-113.03
X122.428Y-75.438
X122.53Y-68.73
X122.53Y-71.27
X123.19Y-110.49
X123.19Y-113.03
X124.968Y-75.438
X125.07Y-68.73
X125.07Y-71.27
X125.73Y-110.49
X125.73Y-113.03
X127.61Y-68.73
X127.61Y-71.27
X128.27Y-110.49
X128.27Y-113.03
X130.15Y-68.73
X130.15Y-71.27
X132.69Y-68.73
X132.69Y-71.27
X135.23Y-68.73
X135.23Y-71.27
X137.77Y-68.73
X137.77Y-71.27
X140.31Y-68.73
X140.31Y-71.27
X140.716Y-109.982
X142.85Y-68.73
X142.85Y-71.27
X143.256Y-109.982
X145.39Y-68.73
X145.39Y-71.27
X145.796Y-109.982
X147.93Y-68.73
X147.93Y-71.27
X148.336Y-109.982
X149.86Y-83.566
X150.47Y-68.73
X150.47Y-71.27
X152.4Y-83.566
X153.01Y-68.73
X153.01Y-71.27
X154.94Y-83.566
X155.55Y-68.73
X155.55Y-71.27
X158.09Y-68.73
X158.09Y-71.27
X160.63Y-68.73
X160.63Y-71.27
T6
X141.3Y-118.745
X153.34Y-118.745
T7
X107.5Y-70.
X107.5Y-118.5
X165.5Y-70.
X165.5Y-118.5
T0
M30
