G04 (created by PCBNEW (2013-07-07 BZR 4022)-stable) date 9/26/2014 8:17:29 AM*
%MOIN*%
G04 Gerber Fmt 3.4, Leading zero omitted, Abs format*
%FSLAX34Y34*%
G01*
G70*
G90*
G04 APERTURE LIST*
%ADD10C,0.00590551*%
%ADD11R,0.05X0.016*%
%ADD12R,0.0276X0.0394*%
G04 APERTURE END LIST*
G54D10*
G54D11*
X64400Y-44900D03*
X64400Y-44650D03*
X64400Y-44390D03*
X64400Y-44130D03*
X64400Y-43880D03*
X64400Y-43620D03*
X64400Y-43360D03*
X64400Y-43110D03*
X64400Y-42850D03*
X64400Y-42600D03*
X64400Y-42340D03*
X64400Y-42080D03*
X64400Y-41830D03*
X64400Y-41570D03*
X61600Y-41570D03*
X61600Y-41830D03*
X61600Y-42070D03*
X61600Y-42340D03*
X61600Y-42600D03*
X61600Y-42850D03*
X61600Y-43110D03*
X61600Y-43360D03*
X61600Y-43620D03*
X61600Y-43880D03*
X61600Y-44130D03*
X61600Y-44390D03*
X61600Y-44650D03*
X61600Y-44900D03*
G54D12*
X56375Y-30500D03*
X56000Y-30500D03*
X55625Y-30500D03*
X55625Y-29500D03*
X56000Y-29500D03*
X56375Y-29500D03*
X54875Y-30500D03*
X54500Y-30500D03*
X54125Y-30500D03*
X54125Y-29500D03*
X54500Y-29500D03*
X54875Y-29500D03*
X53375Y-30500D03*
X53000Y-30500D03*
X52625Y-30500D03*
X52625Y-29500D03*
X53000Y-29500D03*
X53375Y-29500D03*
M02*
