G04 (created by PCBNEW (2013-07-07 BZR 4022)-stable) date 9/25/2014 9:46:07 PM*
%MOIN*%
G04 Gerber Fmt 3.4, Leading zero omitted, Abs format*
%FSLAX34Y34*%
G01*
G70*
G90*
G04 APERTURE LIST*
%ADD10C,0.005*%
%ADD11C,0.00393701*%
%ADD12C,0.00787402*%
%ADD13C,0.011811*%
G04 APERTURE END LIST*
G54D10*
G54D11*
X65389Y-25980D02*
X42161Y-25980D01*
X66570Y-27161D02*
G75*
G03X65389Y-25980I-1181J0D01*
G74*
G01*
X66570Y-46846D02*
X66570Y-27161D01*
X65389Y-48027D02*
G75*
G03X66570Y-46846I0J1181D01*
G74*
G01*
X42161Y-48027D02*
X65389Y-48027D01*
X40980Y-46846D02*
G75*
G03X42161Y-48027I1181J0D01*
G74*
G01*
X40980Y-27161D02*
X40980Y-46846D01*
X42161Y-25980D02*
G75*
G03X40980Y-27161I0J-1181D01*
G74*
G01*
G54D12*
X50375Y-35675D02*
X50625Y-35925D01*
X50625Y-35675D02*
X50375Y-35925D01*
X53221Y-31174D02*
X53471Y-31424D01*
X53471Y-31174D02*
X53221Y-31424D01*
X56174Y-31174D02*
X56424Y-31424D01*
X56424Y-31174D02*
X56174Y-31424D01*
X57375Y-41375D02*
X57625Y-41625D01*
X57625Y-41375D02*
X57375Y-41625D01*
X58375Y-41375D02*
X58625Y-41625D01*
X58625Y-41375D02*
X58375Y-41625D01*
X60125Y-42875D02*
X60375Y-43125D01*
X60375Y-42875D02*
X60125Y-43125D01*
X63125Y-44125D02*
X63375Y-44375D01*
X63375Y-44125D02*
X63125Y-44375D01*
X63375Y-42875D02*
X63625Y-43125D01*
X63625Y-42875D02*
X63375Y-43125D01*
X42660Y-34500D02*
G75*
G03X42660Y-34500I-160J0D01*
G74*
G01*
X42660Y-40500D02*
G75*
G03X42660Y-40500I-160J0D01*
G74*
G01*
X43660Y-34500D02*
G75*
G03X43660Y-34500I-160J0D01*
G74*
G01*
X43660Y-40500D02*
G75*
G03X43660Y-40500I-160J0D01*
G74*
G01*
X44660Y-34500D02*
G75*
G03X44660Y-34500I-160J0D01*
G74*
G01*
X44660Y-40500D02*
G75*
G03X44660Y-40500I-160J0D01*
G74*
G01*
X45360Y-45900D02*
G75*
G03X45360Y-45900I-160J0D01*
G74*
G01*
X45660Y-34500D02*
G75*
G03X45660Y-34500I-160J0D01*
G74*
G01*
X45660Y-40500D02*
G75*
G03X45660Y-40500I-160J0D01*
G74*
G01*
X46660Y-34500D02*
G75*
G03X46660Y-34500I-160J0D01*
G74*
G01*
X46660Y-40500D02*
G75*
G03X46660Y-40500I-160J0D01*
G74*
G01*
X47660Y-34500D02*
G75*
G03X47660Y-34500I-160J0D01*
G74*
G01*
X47660Y-40500D02*
G75*
G03X47660Y-40500I-160J0D01*
G74*
G01*
X48360Y-45900D02*
G75*
G03X48360Y-45900I-160J0D01*
G74*
G01*
X48660Y-34500D02*
G75*
G03X48660Y-34500I-160J0D01*
G74*
G01*
X48660Y-40500D02*
G75*
G03X48660Y-40500I-160J0D01*
G74*
G01*
X49660Y-31400D02*
G75*
G03X49660Y-31400I-160J0D01*
G74*
G01*
X49660Y-34500D02*
G75*
G03X49660Y-34500I-160J0D01*
G74*
G01*
X49660Y-40500D02*
G75*
G03X49660Y-40500I-160J0D01*
G74*
G01*
X50660Y-31400D02*
G75*
G03X50660Y-31400I-160J0D01*
G74*
G01*
X50660Y-34500D02*
G75*
G03X50660Y-34500I-160J0D01*
G74*
G01*
X50660Y-40500D02*
G75*
G03X50660Y-40500I-160J0D01*
G74*
G01*
X51660Y-34500D02*
G75*
G03X51660Y-34500I-160J0D01*
G74*
G01*
X51660Y-40500D02*
G75*
G03X51660Y-40500I-160J0D01*
G74*
G01*
X51910Y-47500D02*
G75*
G03X51910Y-47500I-160J0D01*
G74*
G01*
X52660Y-34500D02*
G75*
G03X52660Y-34500I-160J0D01*
G74*
G01*
X52660Y-40500D02*
G75*
G03X52660Y-40500I-160J0D01*
G74*
G01*
X52910Y-47500D02*
G75*
G03X52910Y-47500I-160J0D01*
G74*
G01*
X53660Y-34500D02*
G75*
G03X53660Y-34500I-160J0D01*
G74*
G01*
X53660Y-40500D02*
G75*
G03X53660Y-40500I-160J0D01*
G74*
G01*
X54660Y-34500D02*
G75*
G03X54660Y-34500I-160J0D01*
G74*
G01*
X54660Y-40500D02*
G75*
G03X54660Y-40500I-160J0D01*
G74*
G01*
X55660Y-34500D02*
G75*
G03X55660Y-34500I-160J0D01*
G74*
G01*
X55660Y-40500D02*
G75*
G03X55660Y-40500I-160J0D01*
G74*
G01*
X56660Y-34500D02*
G75*
G03X56660Y-34500I-160J0D01*
G74*
G01*
X56660Y-40500D02*
G75*
G03X56660Y-40500I-160J0D01*
G74*
G01*
X57660Y-34500D02*
G75*
G03X57660Y-34500I-160J0D01*
G74*
G01*
X57660Y-40500D02*
G75*
G03X57660Y-40500I-160J0D01*
G74*
G01*
X58660Y-34500D02*
G75*
G03X58660Y-34500I-160J0D01*
G74*
G01*
X58660Y-40500D02*
G75*
G03X58660Y-40500I-160J0D01*
G74*
G01*
X59560Y-42100D02*
G75*
G03X59560Y-42100I-160J0D01*
G74*
G01*
X59660Y-34500D02*
G75*
G03X59660Y-34500I-160J0D01*
G74*
G01*
X59660Y-40500D02*
G75*
G03X59660Y-40500I-160J0D01*
G74*
G01*
X60560Y-42100D02*
G75*
G03X60560Y-42100I-160J0D01*
G74*
G01*
X60660Y-34500D02*
G75*
G03X60660Y-34500I-160J0D01*
G74*
G01*
X60660Y-40500D02*
G75*
G03X60660Y-40500I-160J0D01*
G74*
G01*
X61660Y-34500D02*
G75*
G03X61660Y-34500I-160J0D01*
G74*
G01*
X61660Y-40500D02*
G75*
G03X61660Y-40500I-160J0D01*
G74*
G01*
X62960Y-30000D02*
G75*
G03X62960Y-30000I-160J0D01*
G74*
G01*
X62960Y-31000D02*
G75*
G03X62960Y-31000I-160J0D01*
G74*
G01*
X62960Y-32000D02*
G75*
G03X62960Y-32000I-160J0D01*
G74*
G01*
X62960Y-33000D02*
G75*
G03X62960Y-33000I-160J0D01*
G74*
G01*
X63560Y-36400D02*
G75*
G03X63560Y-36400I-160J0D01*
G74*
G01*
X63560Y-37400D02*
G75*
G03X63560Y-37400I-160J0D01*
G74*
G01*
X63560Y-38400D02*
G75*
G03X63560Y-38400I-160J0D01*
G74*
G01*
X65960Y-30000D02*
G75*
G03X65960Y-30000I-160J0D01*
G74*
G01*
X65960Y-31000D02*
G75*
G03X65960Y-31000I-160J0D01*
G74*
G01*
X65960Y-32000D02*
G75*
G03X65960Y-32000I-160J0D01*
G74*
G01*
X65960Y-33000D02*
G75*
G03X65960Y-33000I-160J0D01*
G74*
G01*
X66060Y-43100D02*
G75*
G03X66060Y-43100I-160J0D01*
G74*
G01*
X66060Y-44100D02*
G75*
G03X66060Y-44100I-160J0D01*
G74*
G01*
X57507Y-45663D02*
X57507Y-46025D01*
X57326Y-45844D02*
X57688Y-45844D01*
X57507Y-46942D02*
X57507Y-47305D01*
X57326Y-47124D02*
X57688Y-47124D01*
X58492Y-45663D02*
X58492Y-46025D01*
X58311Y-45844D02*
X58673Y-45844D01*
X58492Y-46942D02*
X58492Y-47305D01*
X58311Y-47124D02*
X58673Y-47124D01*
X51858Y-43251D02*
X51858Y-42976D01*
X51582Y-42976D01*
X51582Y-43251D01*
X51858Y-43251D01*
X51858Y-45023D02*
X51858Y-44748D01*
X51582Y-44748D01*
X51582Y-45023D01*
X51858Y-45023D01*
X54417Y-43251D02*
X54417Y-42976D01*
X54141Y-42976D01*
X54141Y-43251D01*
X54417Y-43251D01*
X54417Y-45023D02*
X54417Y-44748D01*
X54141Y-44748D01*
X54141Y-45023D01*
X54417Y-45023D01*
X41500Y-43700D02*
X41700Y-43500D01*
X41500Y-43300D01*
X41300Y-43500D01*
X41500Y-43700D01*
X41500Y-44700D02*
X41700Y-44500D01*
X41500Y-44300D01*
X41300Y-44500D01*
X41500Y-44700D01*
X42500Y-43700D02*
X42700Y-43500D01*
X42500Y-43300D01*
X42300Y-43500D01*
X42500Y-43700D01*
X42500Y-44700D02*
X42700Y-44500D01*
X42500Y-44300D01*
X42300Y-44500D01*
X42500Y-44700D01*
X43500Y-30000D02*
X43700Y-29800D01*
X43500Y-29600D01*
X43300Y-29800D01*
X43500Y-30000D01*
X43500Y-31000D02*
X43700Y-30800D01*
X43500Y-30600D01*
X43300Y-30800D01*
X43500Y-31000D01*
X43500Y-32000D02*
X43700Y-31800D01*
X43500Y-31600D01*
X43300Y-31800D01*
X43500Y-32000D01*
X43500Y-43700D02*
X43700Y-43500D01*
X43500Y-43300D01*
X43300Y-43500D01*
X43500Y-43700D01*
X43500Y-44700D02*
X43700Y-44500D01*
X43500Y-44300D01*
X43300Y-44500D01*
X43500Y-44700D01*
X44240Y-27259D02*
X44440Y-27059D01*
X44240Y-26859D01*
X44040Y-27059D01*
X44240Y-27259D01*
X44240Y-28259D02*
X44440Y-28059D01*
X44240Y-27859D01*
X44040Y-28059D01*
X44240Y-28259D01*
X44500Y-43700D02*
X44700Y-43500D01*
X44500Y-43300D01*
X44300Y-43500D01*
X44500Y-43700D01*
X44500Y-44700D02*
X44700Y-44500D01*
X44500Y-44300D01*
X44300Y-44500D01*
X44500Y-44700D01*
X45200Y-29900D02*
X45400Y-29700D01*
X45200Y-29500D01*
X45000Y-29700D01*
X45200Y-29900D01*
X45240Y-27259D02*
X45440Y-27059D01*
X45240Y-26859D01*
X45040Y-27059D01*
X45240Y-27259D01*
X45240Y-28259D02*
X45440Y-28059D01*
X45240Y-27859D01*
X45040Y-28059D01*
X45240Y-28259D01*
X45500Y-43700D02*
X45700Y-43500D01*
X45500Y-43300D01*
X45300Y-43500D01*
X45500Y-43700D01*
X45500Y-44700D02*
X45700Y-44500D01*
X45500Y-44300D01*
X45300Y-44500D01*
X45500Y-44700D01*
X46200Y-29900D02*
X46400Y-29700D01*
X46200Y-29500D01*
X46000Y-29700D01*
X46200Y-29900D01*
X46240Y-27259D02*
X46440Y-27059D01*
X46240Y-26859D01*
X46040Y-27059D01*
X46240Y-27259D01*
X46240Y-28259D02*
X46440Y-28059D01*
X46240Y-27859D01*
X46040Y-28059D01*
X46240Y-28259D01*
X46500Y-43700D02*
X46700Y-43500D01*
X46500Y-43300D01*
X46300Y-43500D01*
X46500Y-43700D01*
X46500Y-44700D02*
X46700Y-44500D01*
X46500Y-44300D01*
X46300Y-44500D01*
X46500Y-44700D01*
X47200Y-29900D02*
X47400Y-29700D01*
X47200Y-29500D01*
X47000Y-29700D01*
X47200Y-29900D01*
X47240Y-27259D02*
X47440Y-27059D01*
X47240Y-26859D01*
X47040Y-27059D01*
X47240Y-27259D01*
X47240Y-28259D02*
X47440Y-28059D01*
X47240Y-27859D01*
X47040Y-28059D01*
X47240Y-28259D01*
X47500Y-43700D02*
X47700Y-43500D01*
X47500Y-43300D01*
X47300Y-43500D01*
X47500Y-43700D01*
X47500Y-44700D02*
X47700Y-44500D01*
X47500Y-44300D01*
X47300Y-44500D01*
X47500Y-44700D01*
X48200Y-29900D02*
X48400Y-29700D01*
X48200Y-29500D01*
X48000Y-29700D01*
X48200Y-29900D01*
X48240Y-27259D02*
X48440Y-27059D01*
X48240Y-26859D01*
X48040Y-27059D01*
X48240Y-27259D01*
X48240Y-28259D02*
X48440Y-28059D01*
X48240Y-27859D01*
X48040Y-28059D01*
X48240Y-28259D01*
X48500Y-43700D02*
X48700Y-43500D01*
X48500Y-43300D01*
X48300Y-43500D01*
X48500Y-43700D01*
X48500Y-44700D02*
X48700Y-44500D01*
X48500Y-44300D01*
X48300Y-44500D01*
X48500Y-44700D01*
X49200Y-29900D02*
X49400Y-29700D01*
X49200Y-29500D01*
X49000Y-29700D01*
X49200Y-29900D01*
X49240Y-27259D02*
X49440Y-27059D01*
X49240Y-26859D01*
X49040Y-27059D01*
X49240Y-27259D01*
X49240Y-28259D02*
X49440Y-28059D01*
X49240Y-27859D01*
X49040Y-28059D01*
X49240Y-28259D01*
X49500Y-43700D02*
X49700Y-43500D01*
X49500Y-43300D01*
X49300Y-43500D01*
X49500Y-43700D01*
X49500Y-44700D02*
X49700Y-44500D01*
X49500Y-44300D01*
X49300Y-44500D01*
X49500Y-44700D01*
X50240Y-27259D02*
X50440Y-27059D01*
X50240Y-26859D01*
X50040Y-27059D01*
X50240Y-27259D01*
X50240Y-28259D02*
X50440Y-28059D01*
X50240Y-27859D01*
X50040Y-28059D01*
X50240Y-28259D01*
X50500Y-43700D02*
X50700Y-43500D01*
X50500Y-43300D01*
X50300Y-43500D01*
X50500Y-43700D01*
X50500Y-44700D02*
X50700Y-44500D01*
X50500Y-44300D01*
X50300Y-44500D01*
X50500Y-44700D01*
X51240Y-27259D02*
X51440Y-27059D01*
X51240Y-26859D01*
X51040Y-27059D01*
X51240Y-27259D01*
X51240Y-28259D02*
X51440Y-28059D01*
X51240Y-27859D01*
X51040Y-28059D01*
X51240Y-28259D01*
X52240Y-27259D02*
X52440Y-27059D01*
X52240Y-26859D01*
X52040Y-27059D01*
X52240Y-27259D01*
X52240Y-28259D02*
X52440Y-28059D01*
X52240Y-27859D01*
X52040Y-28059D01*
X52240Y-28259D01*
X53240Y-27259D02*
X53440Y-27059D01*
X53240Y-26859D01*
X53040Y-27059D01*
X53240Y-27259D01*
X53240Y-28259D02*
X53440Y-28059D01*
X53240Y-27859D01*
X53040Y-28059D01*
X53240Y-28259D01*
X54240Y-27259D02*
X54440Y-27059D01*
X54240Y-26859D01*
X54040Y-27059D01*
X54240Y-27259D01*
X54240Y-28259D02*
X54440Y-28059D01*
X54240Y-27859D01*
X54040Y-28059D01*
X54240Y-28259D01*
X55240Y-27259D02*
X55440Y-27059D01*
X55240Y-26859D01*
X55040Y-27059D01*
X55240Y-27259D01*
X55240Y-28259D02*
X55440Y-28059D01*
X55240Y-27859D01*
X55040Y-28059D01*
X55240Y-28259D01*
X55400Y-43500D02*
X55600Y-43300D01*
X55400Y-43100D01*
X55200Y-43300D01*
X55400Y-43500D01*
X56240Y-27259D02*
X56440Y-27059D01*
X56240Y-26859D01*
X56040Y-27059D01*
X56240Y-27259D01*
X56240Y-28259D02*
X56440Y-28059D01*
X56240Y-27859D01*
X56040Y-28059D01*
X56240Y-28259D01*
X56400Y-43500D02*
X56600Y-43300D01*
X56400Y-43100D01*
X56200Y-43300D01*
X56400Y-43500D01*
X57240Y-27259D02*
X57440Y-27059D01*
X57240Y-26859D01*
X57040Y-27059D01*
X57240Y-27259D01*
X57240Y-28259D02*
X57440Y-28059D01*
X57240Y-27859D01*
X57040Y-28059D01*
X57240Y-28259D01*
X57400Y-43500D02*
X57600Y-43300D01*
X57400Y-43100D01*
X57200Y-43300D01*
X57400Y-43500D01*
X58240Y-27259D02*
X58440Y-27059D01*
X58240Y-26859D01*
X58040Y-27059D01*
X58240Y-27259D01*
X58240Y-28259D02*
X58440Y-28059D01*
X58240Y-27859D01*
X58040Y-28059D01*
X58240Y-28259D01*
X58400Y-43500D02*
X58600Y-43300D01*
X58400Y-43100D01*
X58200Y-43300D01*
X58400Y-43500D01*
X59000Y-33100D02*
X59200Y-32900D01*
X59000Y-32700D01*
X58800Y-32900D01*
X59000Y-33100D01*
X59240Y-27259D02*
X59440Y-27059D01*
X59240Y-26859D01*
X59040Y-27059D01*
X59240Y-27259D01*
X59240Y-28259D02*
X59440Y-28059D01*
X59240Y-27859D01*
X59040Y-28059D01*
X59240Y-28259D01*
X60000Y-33100D02*
X60200Y-32900D01*
X60000Y-32700D01*
X59800Y-32900D01*
X60000Y-33100D01*
X60240Y-27259D02*
X60440Y-27059D01*
X60240Y-26859D01*
X60040Y-27059D01*
X60240Y-27259D01*
X60240Y-28259D02*
X60440Y-28059D01*
X60240Y-27859D01*
X60040Y-28059D01*
X60240Y-28259D01*
X61000Y-33100D02*
X61200Y-32900D01*
X61000Y-32700D01*
X60800Y-32900D01*
X61000Y-33100D01*
X61240Y-27259D02*
X61440Y-27059D01*
X61240Y-26859D01*
X61040Y-27059D01*
X61240Y-27259D01*
X61240Y-28259D02*
X61440Y-28059D01*
X61240Y-27859D01*
X61040Y-28059D01*
X61240Y-28259D01*
X62240Y-27259D02*
X62440Y-27059D01*
X62240Y-26859D01*
X62040Y-27059D01*
X62240Y-27259D01*
X62240Y-28259D02*
X62440Y-28059D01*
X62240Y-27859D01*
X62040Y-28059D01*
X62240Y-28259D01*
X63240Y-27259D02*
X63440Y-27059D01*
X63240Y-26859D01*
X63040Y-27059D01*
X63240Y-27259D01*
X63240Y-28259D02*
X63440Y-28059D01*
X63240Y-27859D01*
X63040Y-28059D01*
X63240Y-28259D01*
X55177Y-46297D02*
X56082Y-47202D01*
X56082Y-46297D02*
X55177Y-47202D01*
X56082Y-46750D02*
G75*
G03X56082Y-46750I-452J0D01*
G74*
G01*
X59917Y-46297D02*
X60822Y-47202D01*
X60822Y-46297D02*
X59917Y-47202D01*
X60822Y-46750D02*
G75*
G03X60822Y-46750I-452J0D01*
G74*
G01*
X41781Y-27017D02*
X42864Y-28100D01*
X42864Y-27017D02*
X41781Y-28100D01*
X42322Y-27017D02*
X42322Y-28100D01*
X41781Y-27559D02*
X42864Y-27559D01*
X41781Y-46112D02*
X42864Y-47194D01*
X42864Y-46112D02*
X41781Y-47194D01*
X42322Y-46112D02*
X42322Y-47194D01*
X41781Y-46653D02*
X42864Y-46653D01*
X64616Y-27017D02*
X65698Y-28100D01*
X65698Y-27017D02*
X64616Y-28100D01*
X65157Y-27017D02*
X65157Y-28100D01*
X64616Y-27559D02*
X65698Y-27559D01*
X64616Y-46112D02*
X65698Y-47194D01*
X65698Y-46112D02*
X64616Y-47194D01*
X65157Y-46112D02*
X65157Y-47194D01*
X64616Y-46653D02*
X65698Y-46653D01*
G54D13*
X42029Y-49824D02*
X42029Y-48643D01*
X42310Y-48643D01*
X42479Y-48699D01*
X42591Y-48812D01*
X42647Y-48924D01*
X42704Y-49149D01*
X42704Y-49318D01*
X42647Y-49543D01*
X42591Y-49655D01*
X42479Y-49768D01*
X42310Y-49824D01*
X42029Y-49824D01*
X43210Y-49824D02*
X43210Y-49037D01*
X43210Y-49262D02*
X43266Y-49149D01*
X43322Y-49093D01*
X43435Y-49037D01*
X43547Y-49037D01*
X43941Y-49824D02*
X43941Y-49037D01*
X43941Y-48643D02*
X43885Y-48699D01*
X43941Y-48755D01*
X43997Y-48699D01*
X43941Y-48643D01*
X43941Y-48755D01*
X44672Y-49824D02*
X44560Y-49768D01*
X44503Y-49655D01*
X44503Y-48643D01*
X45291Y-49824D02*
X45178Y-49768D01*
X45122Y-49655D01*
X45122Y-48643D01*
X46641Y-49824D02*
X46641Y-48643D01*
X47034Y-49487D01*
X47428Y-48643D01*
X47428Y-49824D01*
X48497Y-49824D02*
X48497Y-49205D01*
X48440Y-49093D01*
X48328Y-49037D01*
X48103Y-49037D01*
X47991Y-49093D01*
X48497Y-49768D02*
X48384Y-49824D01*
X48103Y-49824D01*
X47991Y-49768D01*
X47934Y-49655D01*
X47934Y-49543D01*
X47991Y-49430D01*
X48103Y-49374D01*
X48384Y-49374D01*
X48497Y-49318D01*
X49059Y-49037D02*
X49059Y-50218D01*
X49059Y-49093D02*
X49172Y-49037D01*
X49397Y-49037D01*
X49509Y-49093D01*
X49565Y-49149D01*
X49622Y-49262D01*
X49622Y-49599D01*
X49565Y-49712D01*
X49509Y-49768D01*
X49397Y-49824D01*
X49172Y-49824D01*
X49059Y-49768D01*
X50128Y-49712D02*
X50184Y-49768D01*
X50128Y-49824D01*
X50071Y-49768D01*
X50128Y-49712D01*
X50128Y-49824D01*
X50128Y-49093D02*
X50184Y-49149D01*
X50128Y-49205D01*
X50071Y-49149D01*
X50128Y-49093D01*
X50128Y-49205D01*
X40710Y-51701D02*
X40960Y-51951D01*
X40960Y-51701D02*
X40710Y-51951D01*
X42254Y-51123D02*
X42366Y-51123D01*
X42479Y-51179D01*
X42535Y-51236D01*
X42591Y-51348D01*
X42647Y-51573D01*
X42647Y-51854D01*
X42591Y-52079D01*
X42535Y-52192D01*
X42479Y-52248D01*
X42366Y-52304D01*
X42254Y-52304D01*
X42141Y-52248D01*
X42085Y-52192D01*
X42029Y-52079D01*
X41973Y-51854D01*
X41973Y-51573D01*
X42029Y-51348D01*
X42085Y-51236D01*
X42141Y-51179D01*
X42254Y-51123D01*
X43154Y-52192D02*
X43210Y-52248D01*
X43154Y-52304D01*
X43097Y-52248D01*
X43154Y-52192D01*
X43154Y-52304D01*
X44222Y-51123D02*
X43997Y-51123D01*
X43885Y-51179D01*
X43829Y-51236D01*
X43716Y-51404D01*
X43660Y-51629D01*
X43660Y-52079D01*
X43716Y-52192D01*
X43772Y-52248D01*
X43885Y-52304D01*
X44110Y-52304D01*
X44222Y-52248D01*
X44278Y-52192D01*
X44335Y-52079D01*
X44335Y-51798D01*
X44278Y-51686D01*
X44222Y-51629D01*
X44110Y-51573D01*
X43885Y-51573D01*
X43772Y-51629D01*
X43716Y-51686D01*
X43660Y-51798D01*
X45347Y-51517D02*
X45347Y-52304D01*
X45066Y-51067D02*
X44785Y-51911D01*
X45516Y-51911D01*
X45966Y-52304D02*
X45966Y-51517D01*
X45966Y-51629D02*
X46022Y-51573D01*
X46134Y-51517D01*
X46303Y-51517D01*
X46416Y-51573D01*
X46472Y-51686D01*
X46472Y-52304D01*
X46472Y-51686D02*
X46528Y-51573D01*
X46641Y-51517D01*
X46809Y-51517D01*
X46922Y-51573D01*
X46978Y-51686D01*
X46978Y-52304D01*
X47541Y-52304D02*
X47541Y-51517D01*
X47541Y-51629D02*
X47597Y-51573D01*
X47709Y-51517D01*
X47878Y-51517D01*
X47991Y-51573D01*
X48047Y-51686D01*
X48047Y-52304D01*
X48047Y-51686D02*
X48103Y-51573D01*
X48215Y-51517D01*
X48384Y-51517D01*
X48497Y-51573D01*
X48553Y-51686D01*
X48553Y-52304D01*
X50859Y-51067D02*
X49847Y-52586D01*
X52377Y-51123D02*
X52490Y-51123D01*
X52602Y-51179D01*
X52659Y-51236D01*
X52715Y-51348D01*
X52771Y-51573D01*
X52771Y-51854D01*
X52715Y-52079D01*
X52659Y-52192D01*
X52602Y-52248D01*
X52490Y-52304D01*
X52377Y-52304D01*
X52265Y-52248D01*
X52209Y-52192D01*
X52152Y-52079D01*
X52096Y-51854D01*
X52096Y-51573D01*
X52152Y-51348D01*
X52209Y-51236D01*
X52265Y-51179D01*
X52377Y-51123D01*
X53277Y-52192D02*
X53334Y-52248D01*
X53277Y-52304D01*
X53221Y-52248D01*
X53277Y-52192D01*
X53277Y-52304D01*
X54065Y-51123D02*
X54177Y-51123D01*
X54290Y-51179D01*
X54346Y-51236D01*
X54402Y-51348D01*
X54458Y-51573D01*
X54458Y-51854D01*
X54402Y-52079D01*
X54346Y-52192D01*
X54290Y-52248D01*
X54177Y-52304D01*
X54065Y-52304D01*
X53952Y-52248D01*
X53896Y-52192D01*
X53840Y-52079D01*
X53784Y-51854D01*
X53784Y-51573D01*
X53840Y-51348D01*
X53896Y-51236D01*
X53952Y-51179D01*
X54065Y-51123D01*
X54908Y-51236D02*
X54965Y-51179D01*
X55077Y-51123D01*
X55358Y-51123D01*
X55471Y-51179D01*
X55527Y-51236D01*
X55583Y-51348D01*
X55583Y-51461D01*
X55527Y-51629D01*
X54852Y-52304D01*
X55583Y-52304D01*
X56652Y-51123D02*
X56089Y-51123D01*
X56033Y-51686D01*
X56089Y-51629D01*
X56202Y-51573D01*
X56483Y-51573D01*
X56596Y-51629D01*
X56652Y-51686D01*
X56708Y-51798D01*
X56708Y-52079D01*
X56652Y-52192D01*
X56596Y-52248D01*
X56483Y-52304D01*
X56202Y-52304D01*
X56089Y-52248D01*
X56033Y-52192D01*
X57158Y-51123D02*
X57158Y-51348D01*
X57608Y-51123D02*
X57608Y-51348D01*
X59352Y-52754D02*
X59295Y-52698D01*
X59183Y-52529D01*
X59127Y-52417D01*
X59070Y-52248D01*
X59014Y-51967D01*
X59014Y-51742D01*
X59070Y-51461D01*
X59127Y-51292D01*
X59183Y-51179D01*
X59295Y-51011D01*
X59352Y-50955D01*
X59970Y-51629D02*
X59858Y-51573D01*
X59802Y-51517D01*
X59745Y-51404D01*
X59745Y-51348D01*
X59802Y-51236D01*
X59858Y-51179D01*
X59970Y-51123D01*
X60195Y-51123D01*
X60308Y-51179D01*
X60364Y-51236D01*
X60420Y-51348D01*
X60420Y-51404D01*
X60364Y-51517D01*
X60308Y-51573D01*
X60195Y-51629D01*
X59970Y-51629D01*
X59858Y-51686D01*
X59802Y-51742D01*
X59745Y-51854D01*
X59745Y-52079D01*
X59802Y-52192D01*
X59858Y-52248D01*
X59970Y-52304D01*
X60195Y-52304D01*
X60308Y-52248D01*
X60364Y-52192D01*
X60420Y-52079D01*
X60420Y-51854D01*
X60364Y-51742D01*
X60308Y-51686D01*
X60195Y-51629D01*
X61826Y-52304D02*
X61826Y-51123D01*
X62332Y-52304D02*
X62332Y-51686D01*
X62276Y-51573D01*
X62164Y-51517D01*
X61995Y-51517D01*
X61883Y-51573D01*
X61826Y-51629D01*
X63064Y-52304D02*
X62951Y-52248D01*
X62895Y-52192D01*
X62839Y-52079D01*
X62839Y-51742D01*
X62895Y-51629D01*
X62951Y-51573D01*
X63064Y-51517D01*
X63232Y-51517D01*
X63345Y-51573D01*
X63401Y-51629D01*
X63457Y-51742D01*
X63457Y-52079D01*
X63401Y-52192D01*
X63345Y-52248D01*
X63232Y-52304D01*
X63064Y-52304D01*
X64132Y-52304D02*
X64020Y-52248D01*
X63964Y-52136D01*
X63964Y-51123D01*
X65032Y-52248D02*
X64920Y-52304D01*
X64695Y-52304D01*
X64582Y-52248D01*
X64526Y-52136D01*
X64526Y-51686D01*
X64582Y-51573D01*
X64695Y-51517D01*
X64920Y-51517D01*
X65032Y-51573D01*
X65088Y-51686D01*
X65088Y-51798D01*
X64526Y-51911D01*
X65538Y-52248D02*
X65651Y-52304D01*
X65876Y-52304D01*
X65988Y-52248D01*
X66044Y-52136D01*
X66044Y-52079D01*
X65988Y-51967D01*
X65876Y-51911D01*
X65707Y-51911D01*
X65595Y-51854D01*
X65538Y-51742D01*
X65538Y-51686D01*
X65595Y-51573D01*
X65707Y-51517D01*
X65876Y-51517D01*
X65988Y-51573D01*
X66438Y-52754D02*
X66494Y-52698D01*
X66607Y-52529D01*
X66663Y-52417D01*
X66719Y-52248D01*
X66776Y-51967D01*
X66776Y-51742D01*
X66719Y-51461D01*
X66663Y-51292D01*
X66607Y-51179D01*
X66494Y-51011D01*
X66438Y-50955D01*
G54D12*
X40960Y-53385D02*
G75*
G03X40960Y-53385I-160J0D01*
G74*
G01*
G54D13*
X42254Y-52682D02*
X42366Y-52682D01*
X42479Y-52739D01*
X42535Y-52795D01*
X42591Y-52907D01*
X42647Y-53132D01*
X42647Y-53413D01*
X42591Y-53638D01*
X42535Y-53751D01*
X42479Y-53807D01*
X42366Y-53863D01*
X42254Y-53863D01*
X42141Y-53807D01*
X42085Y-53751D01*
X42029Y-53638D01*
X41973Y-53413D01*
X41973Y-53132D01*
X42029Y-52907D01*
X42085Y-52795D01*
X42141Y-52739D01*
X42254Y-52682D01*
X43154Y-53751D02*
X43210Y-53807D01*
X43154Y-53863D01*
X43097Y-53807D01*
X43154Y-53751D01*
X43154Y-53863D01*
X43885Y-53188D02*
X43772Y-53132D01*
X43716Y-53076D01*
X43660Y-52964D01*
X43660Y-52907D01*
X43716Y-52795D01*
X43772Y-52739D01*
X43885Y-52682D01*
X44110Y-52682D01*
X44222Y-52739D01*
X44278Y-52795D01*
X44335Y-52907D01*
X44335Y-52964D01*
X44278Y-53076D01*
X44222Y-53132D01*
X44110Y-53188D01*
X43885Y-53188D01*
X43772Y-53245D01*
X43716Y-53301D01*
X43660Y-53413D01*
X43660Y-53638D01*
X43716Y-53751D01*
X43772Y-53807D01*
X43885Y-53863D01*
X44110Y-53863D01*
X44222Y-53807D01*
X44278Y-53751D01*
X44335Y-53638D01*
X44335Y-53413D01*
X44278Y-53301D01*
X44222Y-53245D01*
X44110Y-53188D01*
X45460Y-53863D02*
X44785Y-53863D01*
X45122Y-53863D02*
X45122Y-52682D01*
X45010Y-52851D01*
X44897Y-52964D01*
X44785Y-53020D01*
X45966Y-53863D02*
X45966Y-53076D01*
X45966Y-53188D02*
X46022Y-53132D01*
X46134Y-53076D01*
X46303Y-53076D01*
X46416Y-53132D01*
X46472Y-53245D01*
X46472Y-53863D01*
X46472Y-53245D02*
X46528Y-53132D01*
X46641Y-53076D01*
X46809Y-53076D01*
X46922Y-53132D01*
X46978Y-53245D01*
X46978Y-53863D01*
X47541Y-53863D02*
X47541Y-53076D01*
X47541Y-53188D02*
X47597Y-53132D01*
X47709Y-53076D01*
X47878Y-53076D01*
X47991Y-53132D01*
X48047Y-53245D01*
X48047Y-53863D01*
X48047Y-53245D02*
X48103Y-53132D01*
X48215Y-53076D01*
X48384Y-53076D01*
X48497Y-53132D01*
X48553Y-53245D01*
X48553Y-53863D01*
X50859Y-52626D02*
X49847Y-54145D01*
X52377Y-52682D02*
X52490Y-52682D01*
X52602Y-52739D01*
X52659Y-52795D01*
X52715Y-52907D01*
X52771Y-53132D01*
X52771Y-53413D01*
X52715Y-53638D01*
X52659Y-53751D01*
X52602Y-53807D01*
X52490Y-53863D01*
X52377Y-53863D01*
X52265Y-53807D01*
X52209Y-53751D01*
X52152Y-53638D01*
X52096Y-53413D01*
X52096Y-53132D01*
X52152Y-52907D01*
X52209Y-52795D01*
X52265Y-52739D01*
X52377Y-52682D01*
X53277Y-53751D02*
X53334Y-53807D01*
X53277Y-53863D01*
X53221Y-53807D01*
X53277Y-53751D01*
X53277Y-53863D01*
X54065Y-52682D02*
X54177Y-52682D01*
X54290Y-52739D01*
X54346Y-52795D01*
X54402Y-52907D01*
X54458Y-53132D01*
X54458Y-53413D01*
X54402Y-53638D01*
X54346Y-53751D01*
X54290Y-53807D01*
X54177Y-53863D01*
X54065Y-53863D01*
X53952Y-53807D01*
X53896Y-53751D01*
X53840Y-53638D01*
X53784Y-53413D01*
X53784Y-53132D01*
X53840Y-52907D01*
X53896Y-52795D01*
X53952Y-52739D01*
X54065Y-52682D01*
X54852Y-52682D02*
X55583Y-52682D01*
X55190Y-53132D01*
X55358Y-53132D01*
X55471Y-53188D01*
X55527Y-53245D01*
X55583Y-53357D01*
X55583Y-53638D01*
X55527Y-53751D01*
X55471Y-53807D01*
X55358Y-53863D01*
X55021Y-53863D01*
X54908Y-53807D01*
X54852Y-53751D01*
X56033Y-52795D02*
X56089Y-52739D01*
X56202Y-52682D01*
X56483Y-52682D01*
X56596Y-52739D01*
X56652Y-52795D01*
X56708Y-52907D01*
X56708Y-53020D01*
X56652Y-53188D01*
X55977Y-53863D01*
X56708Y-53863D01*
X57158Y-52682D02*
X57158Y-52907D01*
X57608Y-52682D02*
X57608Y-52907D01*
X59352Y-54313D02*
X59295Y-54257D01*
X59183Y-54088D01*
X59127Y-53976D01*
X59070Y-53807D01*
X59014Y-53526D01*
X59014Y-53301D01*
X59070Y-53020D01*
X59127Y-52851D01*
X59183Y-52739D01*
X59295Y-52570D01*
X59352Y-52514D01*
X60308Y-52682D02*
X60083Y-52682D01*
X59970Y-52739D01*
X59914Y-52795D01*
X59802Y-52964D01*
X59745Y-53188D01*
X59745Y-53638D01*
X59802Y-53751D01*
X59858Y-53807D01*
X59970Y-53863D01*
X60195Y-53863D01*
X60308Y-53807D01*
X60364Y-53751D01*
X60420Y-53638D01*
X60420Y-53357D01*
X60364Y-53245D01*
X60308Y-53188D01*
X60195Y-53132D01*
X59970Y-53132D01*
X59858Y-53188D01*
X59802Y-53245D01*
X59745Y-53357D01*
X61545Y-53863D02*
X60870Y-53863D01*
X61208Y-53863D02*
X61208Y-52682D01*
X61095Y-52851D01*
X60983Y-52964D01*
X60870Y-53020D01*
X62951Y-53863D02*
X62951Y-52682D01*
X63457Y-53863D02*
X63457Y-53245D01*
X63401Y-53132D01*
X63289Y-53076D01*
X63120Y-53076D01*
X63007Y-53132D01*
X62951Y-53188D01*
X64188Y-53863D02*
X64076Y-53807D01*
X64020Y-53751D01*
X63964Y-53638D01*
X63964Y-53301D01*
X64020Y-53188D01*
X64076Y-53132D01*
X64188Y-53076D01*
X64357Y-53076D01*
X64470Y-53132D01*
X64526Y-53188D01*
X64582Y-53301D01*
X64582Y-53638D01*
X64526Y-53751D01*
X64470Y-53807D01*
X64357Y-53863D01*
X64188Y-53863D01*
X65257Y-53863D02*
X65145Y-53807D01*
X65088Y-53695D01*
X65088Y-52682D01*
X66157Y-53807D02*
X66044Y-53863D01*
X65820Y-53863D01*
X65707Y-53807D01*
X65651Y-53695D01*
X65651Y-53245D01*
X65707Y-53132D01*
X65820Y-53076D01*
X66044Y-53076D01*
X66157Y-53132D01*
X66213Y-53245D01*
X66213Y-53357D01*
X65651Y-53470D01*
X66663Y-53807D02*
X66776Y-53863D01*
X67001Y-53863D01*
X67113Y-53807D01*
X67169Y-53695D01*
X67169Y-53638D01*
X67113Y-53526D01*
X67001Y-53470D01*
X66832Y-53470D01*
X66719Y-53413D01*
X66663Y-53301D01*
X66663Y-53245D01*
X66719Y-53132D01*
X66832Y-53076D01*
X67001Y-53076D01*
X67113Y-53132D01*
X67563Y-54313D02*
X67619Y-54257D01*
X67732Y-54088D01*
X67788Y-53976D01*
X67844Y-53807D01*
X67901Y-53526D01*
X67901Y-53301D01*
X67844Y-53020D01*
X67788Y-52851D01*
X67732Y-52739D01*
X67619Y-52570D01*
X67563Y-52514D01*
X40779Y-54763D02*
X40779Y-55125D01*
X40598Y-54944D02*
X40960Y-54944D01*
X42254Y-54241D02*
X42366Y-54241D01*
X42479Y-54298D01*
X42535Y-54354D01*
X42591Y-54466D01*
X42647Y-54691D01*
X42647Y-54973D01*
X42591Y-55197D01*
X42535Y-55310D01*
X42479Y-55366D01*
X42366Y-55422D01*
X42254Y-55422D01*
X42141Y-55366D01*
X42085Y-55310D01*
X42029Y-55197D01*
X41973Y-54973D01*
X41973Y-54691D01*
X42029Y-54466D01*
X42085Y-54354D01*
X42141Y-54298D01*
X42254Y-54241D01*
X43154Y-55310D02*
X43210Y-55366D01*
X43154Y-55422D01*
X43097Y-55366D01*
X43154Y-55310D01*
X43154Y-55422D01*
X43772Y-55422D02*
X43997Y-55422D01*
X44110Y-55366D01*
X44166Y-55310D01*
X44278Y-55141D01*
X44335Y-54916D01*
X44335Y-54466D01*
X44278Y-54354D01*
X44222Y-54298D01*
X44110Y-54241D01*
X43885Y-54241D01*
X43772Y-54298D01*
X43716Y-54354D01*
X43660Y-54466D01*
X43660Y-54748D01*
X43716Y-54860D01*
X43772Y-54916D01*
X43885Y-54973D01*
X44110Y-54973D01*
X44222Y-54916D01*
X44278Y-54860D01*
X44335Y-54748D01*
X44785Y-54354D02*
X44841Y-54298D01*
X44953Y-54241D01*
X45235Y-54241D01*
X45347Y-54298D01*
X45403Y-54354D01*
X45460Y-54466D01*
X45460Y-54579D01*
X45403Y-54748D01*
X44728Y-55422D01*
X45460Y-55422D01*
X45966Y-55422D02*
X45966Y-54635D01*
X45966Y-54748D02*
X46022Y-54691D01*
X46134Y-54635D01*
X46303Y-54635D01*
X46416Y-54691D01*
X46472Y-54804D01*
X46472Y-55422D01*
X46472Y-54804D02*
X46528Y-54691D01*
X46641Y-54635D01*
X46809Y-54635D01*
X46922Y-54691D01*
X46978Y-54804D01*
X46978Y-55422D01*
X47541Y-55422D02*
X47541Y-54635D01*
X47541Y-54748D02*
X47597Y-54691D01*
X47709Y-54635D01*
X47878Y-54635D01*
X47991Y-54691D01*
X48047Y-54804D01*
X48047Y-55422D01*
X48047Y-54804D02*
X48103Y-54691D01*
X48215Y-54635D01*
X48384Y-54635D01*
X48497Y-54691D01*
X48553Y-54804D01*
X48553Y-55422D01*
X50859Y-54185D02*
X49847Y-55704D01*
X52377Y-54241D02*
X52490Y-54241D01*
X52602Y-54298D01*
X52659Y-54354D01*
X52715Y-54466D01*
X52771Y-54691D01*
X52771Y-54973D01*
X52715Y-55197D01*
X52659Y-55310D01*
X52602Y-55366D01*
X52490Y-55422D01*
X52377Y-55422D01*
X52265Y-55366D01*
X52209Y-55310D01*
X52152Y-55197D01*
X52096Y-54973D01*
X52096Y-54691D01*
X52152Y-54466D01*
X52209Y-54354D01*
X52265Y-54298D01*
X52377Y-54241D01*
X53277Y-55310D02*
X53334Y-55366D01*
X53277Y-55422D01*
X53221Y-55366D01*
X53277Y-55310D01*
X53277Y-55422D01*
X54065Y-54241D02*
X54177Y-54241D01*
X54290Y-54298D01*
X54346Y-54354D01*
X54402Y-54466D01*
X54458Y-54691D01*
X54458Y-54973D01*
X54402Y-55197D01*
X54346Y-55310D01*
X54290Y-55366D01*
X54177Y-55422D01*
X54065Y-55422D01*
X53952Y-55366D01*
X53896Y-55310D01*
X53840Y-55197D01*
X53784Y-54973D01*
X53784Y-54691D01*
X53840Y-54466D01*
X53896Y-54354D01*
X53952Y-54298D01*
X54065Y-54241D01*
X54852Y-54241D02*
X55583Y-54241D01*
X55190Y-54691D01*
X55358Y-54691D01*
X55471Y-54748D01*
X55527Y-54804D01*
X55583Y-54916D01*
X55583Y-55197D01*
X55527Y-55310D01*
X55471Y-55366D01*
X55358Y-55422D01*
X55021Y-55422D01*
X54908Y-55366D01*
X54852Y-55310D01*
X56596Y-54241D02*
X56371Y-54241D01*
X56258Y-54298D01*
X56202Y-54354D01*
X56089Y-54523D01*
X56033Y-54748D01*
X56033Y-55197D01*
X56089Y-55310D01*
X56146Y-55366D01*
X56258Y-55422D01*
X56483Y-55422D01*
X56596Y-55366D01*
X56652Y-55310D01*
X56708Y-55197D01*
X56708Y-54916D01*
X56652Y-54804D01*
X56596Y-54748D01*
X56483Y-54691D01*
X56258Y-54691D01*
X56146Y-54748D01*
X56089Y-54804D01*
X56033Y-54916D01*
X57158Y-54241D02*
X57158Y-54466D01*
X57608Y-54241D02*
X57608Y-54466D01*
X59352Y-55872D02*
X59295Y-55816D01*
X59183Y-55647D01*
X59127Y-55535D01*
X59070Y-55366D01*
X59014Y-55085D01*
X59014Y-54860D01*
X59070Y-54579D01*
X59127Y-54410D01*
X59183Y-54298D01*
X59295Y-54129D01*
X59352Y-54073D01*
X60308Y-54635D02*
X60308Y-55422D01*
X60026Y-54185D02*
X59745Y-55029D01*
X60476Y-55029D01*
X61826Y-55422D02*
X61826Y-54241D01*
X62332Y-55422D02*
X62332Y-54804D01*
X62276Y-54691D01*
X62164Y-54635D01*
X61995Y-54635D01*
X61883Y-54691D01*
X61826Y-54748D01*
X63064Y-55422D02*
X62951Y-55366D01*
X62895Y-55310D01*
X62839Y-55197D01*
X62839Y-54860D01*
X62895Y-54748D01*
X62951Y-54691D01*
X63064Y-54635D01*
X63232Y-54635D01*
X63345Y-54691D01*
X63401Y-54748D01*
X63457Y-54860D01*
X63457Y-55197D01*
X63401Y-55310D01*
X63345Y-55366D01*
X63232Y-55422D01*
X63064Y-55422D01*
X64132Y-55422D02*
X64020Y-55366D01*
X63964Y-55254D01*
X63964Y-54241D01*
X65032Y-55366D02*
X64920Y-55422D01*
X64695Y-55422D01*
X64582Y-55366D01*
X64526Y-55254D01*
X64526Y-54804D01*
X64582Y-54691D01*
X64695Y-54635D01*
X64920Y-54635D01*
X65032Y-54691D01*
X65088Y-54804D01*
X65088Y-54916D01*
X64526Y-55029D01*
X65538Y-55366D02*
X65651Y-55422D01*
X65876Y-55422D01*
X65988Y-55366D01*
X66044Y-55254D01*
X66044Y-55197D01*
X65988Y-55085D01*
X65876Y-55029D01*
X65707Y-55029D01*
X65595Y-54973D01*
X65538Y-54860D01*
X65538Y-54804D01*
X65595Y-54691D01*
X65707Y-54635D01*
X65876Y-54635D01*
X65988Y-54691D01*
X66438Y-55872D02*
X66494Y-55816D01*
X66607Y-55647D01*
X66663Y-55535D01*
X66719Y-55366D01*
X66776Y-55085D01*
X66776Y-54860D01*
X66719Y-54579D01*
X66663Y-54410D01*
X66607Y-54298D01*
X66494Y-54129D01*
X66438Y-54073D01*
G54D12*
X40903Y-56641D02*
X40903Y-56366D01*
X40627Y-56366D01*
X40627Y-56641D01*
X40903Y-56641D01*
G54D13*
X42254Y-55800D02*
X42366Y-55800D01*
X42479Y-55857D01*
X42535Y-55913D01*
X42591Y-56025D01*
X42647Y-56250D01*
X42647Y-56532D01*
X42591Y-56757D01*
X42535Y-56869D01*
X42479Y-56925D01*
X42366Y-56982D01*
X42254Y-56982D01*
X42141Y-56925D01*
X42085Y-56869D01*
X42029Y-56757D01*
X41973Y-56532D01*
X41973Y-56250D01*
X42029Y-56025D01*
X42085Y-55913D01*
X42141Y-55857D01*
X42254Y-55800D01*
X43154Y-56869D02*
X43210Y-56925D01*
X43154Y-56982D01*
X43097Y-56925D01*
X43154Y-56869D01*
X43154Y-56982D01*
X43772Y-56982D02*
X43997Y-56982D01*
X44110Y-56925D01*
X44166Y-56869D01*
X44278Y-56700D01*
X44335Y-56475D01*
X44335Y-56025D01*
X44278Y-55913D01*
X44222Y-55857D01*
X44110Y-55800D01*
X43885Y-55800D01*
X43772Y-55857D01*
X43716Y-55913D01*
X43660Y-56025D01*
X43660Y-56307D01*
X43716Y-56419D01*
X43772Y-56475D01*
X43885Y-56532D01*
X44110Y-56532D01*
X44222Y-56475D01*
X44278Y-56419D01*
X44335Y-56307D01*
X44897Y-56982D02*
X45122Y-56982D01*
X45235Y-56925D01*
X45291Y-56869D01*
X45403Y-56700D01*
X45460Y-56475D01*
X45460Y-56025D01*
X45403Y-55913D01*
X45347Y-55857D01*
X45235Y-55800D01*
X45010Y-55800D01*
X44897Y-55857D01*
X44841Y-55913D01*
X44785Y-56025D01*
X44785Y-56307D01*
X44841Y-56419D01*
X44897Y-56475D01*
X45010Y-56532D01*
X45235Y-56532D01*
X45347Y-56475D01*
X45403Y-56419D01*
X45460Y-56307D01*
X45966Y-56982D02*
X45966Y-56194D01*
X45966Y-56307D02*
X46022Y-56250D01*
X46134Y-56194D01*
X46303Y-56194D01*
X46416Y-56250D01*
X46472Y-56363D01*
X46472Y-56982D01*
X46472Y-56363D02*
X46528Y-56250D01*
X46641Y-56194D01*
X46809Y-56194D01*
X46922Y-56250D01*
X46978Y-56363D01*
X46978Y-56982D01*
X47541Y-56982D02*
X47541Y-56194D01*
X47541Y-56307D02*
X47597Y-56250D01*
X47709Y-56194D01*
X47878Y-56194D01*
X47991Y-56250D01*
X48047Y-56363D01*
X48047Y-56982D01*
X48047Y-56363D02*
X48103Y-56250D01*
X48215Y-56194D01*
X48384Y-56194D01*
X48497Y-56250D01*
X48553Y-56363D01*
X48553Y-56982D01*
X50859Y-55744D02*
X49847Y-57263D01*
X52377Y-55800D02*
X52490Y-55800D01*
X52602Y-55857D01*
X52659Y-55913D01*
X52715Y-56025D01*
X52771Y-56250D01*
X52771Y-56532D01*
X52715Y-56757D01*
X52659Y-56869D01*
X52602Y-56925D01*
X52490Y-56982D01*
X52377Y-56982D01*
X52265Y-56925D01*
X52209Y-56869D01*
X52152Y-56757D01*
X52096Y-56532D01*
X52096Y-56250D01*
X52152Y-56025D01*
X52209Y-55913D01*
X52265Y-55857D01*
X52377Y-55800D01*
X53277Y-56869D02*
X53334Y-56925D01*
X53277Y-56982D01*
X53221Y-56925D01*
X53277Y-56869D01*
X53277Y-56982D01*
X54065Y-55800D02*
X54177Y-55800D01*
X54290Y-55857D01*
X54346Y-55913D01*
X54402Y-56025D01*
X54458Y-56250D01*
X54458Y-56532D01*
X54402Y-56757D01*
X54346Y-56869D01*
X54290Y-56925D01*
X54177Y-56982D01*
X54065Y-56982D01*
X53952Y-56925D01*
X53896Y-56869D01*
X53840Y-56757D01*
X53784Y-56532D01*
X53784Y-56250D01*
X53840Y-56025D01*
X53896Y-55913D01*
X53952Y-55857D01*
X54065Y-55800D01*
X54852Y-55800D02*
X55583Y-55800D01*
X55190Y-56250D01*
X55358Y-56250D01*
X55471Y-56307D01*
X55527Y-56363D01*
X55583Y-56475D01*
X55583Y-56757D01*
X55527Y-56869D01*
X55471Y-56925D01*
X55358Y-56982D01*
X55021Y-56982D01*
X54908Y-56925D01*
X54852Y-56869D01*
X56146Y-56982D02*
X56371Y-56982D01*
X56483Y-56925D01*
X56539Y-56869D01*
X56652Y-56700D01*
X56708Y-56475D01*
X56708Y-56025D01*
X56652Y-55913D01*
X56596Y-55857D01*
X56483Y-55800D01*
X56258Y-55800D01*
X56146Y-55857D01*
X56089Y-55913D01*
X56033Y-56025D01*
X56033Y-56307D01*
X56089Y-56419D01*
X56146Y-56475D01*
X56258Y-56532D01*
X56483Y-56532D01*
X56596Y-56475D01*
X56652Y-56419D01*
X56708Y-56307D01*
X57158Y-55800D02*
X57158Y-56025D01*
X57608Y-55800D02*
X57608Y-56025D01*
X59352Y-57431D02*
X59295Y-57375D01*
X59183Y-57206D01*
X59127Y-57094D01*
X59070Y-56925D01*
X59014Y-56644D01*
X59014Y-56419D01*
X59070Y-56138D01*
X59127Y-55969D01*
X59183Y-55857D01*
X59295Y-55688D01*
X59352Y-55632D01*
X60308Y-56194D02*
X60308Y-56982D01*
X60026Y-55744D02*
X59745Y-56588D01*
X60476Y-56588D01*
X61826Y-56982D02*
X61826Y-55800D01*
X62332Y-56982D02*
X62332Y-56363D01*
X62276Y-56250D01*
X62164Y-56194D01*
X61995Y-56194D01*
X61883Y-56250D01*
X61826Y-56307D01*
X63064Y-56982D02*
X62951Y-56925D01*
X62895Y-56869D01*
X62839Y-56757D01*
X62839Y-56419D01*
X62895Y-56307D01*
X62951Y-56250D01*
X63064Y-56194D01*
X63232Y-56194D01*
X63345Y-56250D01*
X63401Y-56307D01*
X63457Y-56419D01*
X63457Y-56757D01*
X63401Y-56869D01*
X63345Y-56925D01*
X63232Y-56982D01*
X63064Y-56982D01*
X64132Y-56982D02*
X64020Y-56925D01*
X63964Y-56813D01*
X63964Y-55800D01*
X65032Y-56925D02*
X64920Y-56982D01*
X64695Y-56982D01*
X64582Y-56925D01*
X64526Y-56813D01*
X64526Y-56363D01*
X64582Y-56250D01*
X64695Y-56194D01*
X64920Y-56194D01*
X65032Y-56250D01*
X65088Y-56363D01*
X65088Y-56475D01*
X64526Y-56588D01*
X65538Y-56925D02*
X65651Y-56982D01*
X65876Y-56982D01*
X65988Y-56925D01*
X66044Y-56813D01*
X66044Y-56757D01*
X65988Y-56644D01*
X65876Y-56588D01*
X65707Y-56588D01*
X65595Y-56532D01*
X65538Y-56419D01*
X65538Y-56363D01*
X65595Y-56250D01*
X65707Y-56194D01*
X65876Y-56194D01*
X65988Y-56250D01*
X66438Y-57431D02*
X66494Y-57375D01*
X66607Y-57206D01*
X66663Y-57094D01*
X66719Y-56925D01*
X66776Y-56644D01*
X66776Y-56419D01*
X66719Y-56138D01*
X66663Y-55969D01*
X66607Y-55857D01*
X66494Y-55688D01*
X66438Y-55632D01*
G54D12*
X40760Y-58262D02*
X40960Y-58062D01*
X40760Y-57862D01*
X40560Y-58062D01*
X40760Y-58262D01*
G54D13*
X42647Y-58541D02*
X41973Y-58541D01*
X42310Y-58541D02*
X42310Y-57359D01*
X42197Y-57528D01*
X42085Y-57641D01*
X41973Y-57697D01*
X43154Y-58428D02*
X43210Y-58484D01*
X43154Y-58541D01*
X43097Y-58484D01*
X43154Y-58428D01*
X43154Y-58541D01*
X43941Y-57359D02*
X44053Y-57359D01*
X44166Y-57416D01*
X44222Y-57472D01*
X44278Y-57584D01*
X44335Y-57809D01*
X44335Y-58091D01*
X44278Y-58316D01*
X44222Y-58428D01*
X44166Y-58484D01*
X44053Y-58541D01*
X43941Y-58541D01*
X43829Y-58484D01*
X43772Y-58428D01*
X43716Y-58316D01*
X43660Y-58091D01*
X43660Y-57809D01*
X43716Y-57584D01*
X43772Y-57472D01*
X43829Y-57416D01*
X43941Y-57359D01*
X44785Y-57472D02*
X44841Y-57416D01*
X44953Y-57359D01*
X45235Y-57359D01*
X45347Y-57416D01*
X45403Y-57472D01*
X45460Y-57584D01*
X45460Y-57697D01*
X45403Y-57866D01*
X44728Y-58541D01*
X45460Y-58541D01*
X45966Y-58541D02*
X45966Y-57753D01*
X45966Y-57866D02*
X46022Y-57809D01*
X46134Y-57753D01*
X46303Y-57753D01*
X46416Y-57809D01*
X46472Y-57922D01*
X46472Y-58541D01*
X46472Y-57922D02*
X46528Y-57809D01*
X46641Y-57753D01*
X46809Y-57753D01*
X46922Y-57809D01*
X46978Y-57922D01*
X46978Y-58541D01*
X47541Y-58541D02*
X47541Y-57753D01*
X47541Y-57866D02*
X47597Y-57809D01*
X47709Y-57753D01*
X47878Y-57753D01*
X47991Y-57809D01*
X48047Y-57922D01*
X48047Y-58541D01*
X48047Y-57922D02*
X48103Y-57809D01*
X48215Y-57753D01*
X48384Y-57753D01*
X48497Y-57809D01*
X48553Y-57922D01*
X48553Y-58541D01*
X50859Y-57303D02*
X49847Y-58822D01*
X52377Y-57359D02*
X52490Y-57359D01*
X52602Y-57416D01*
X52659Y-57472D01*
X52715Y-57584D01*
X52771Y-57809D01*
X52771Y-58091D01*
X52715Y-58316D01*
X52659Y-58428D01*
X52602Y-58484D01*
X52490Y-58541D01*
X52377Y-58541D01*
X52265Y-58484D01*
X52209Y-58428D01*
X52152Y-58316D01*
X52096Y-58091D01*
X52096Y-57809D01*
X52152Y-57584D01*
X52209Y-57472D01*
X52265Y-57416D01*
X52377Y-57359D01*
X53277Y-58428D02*
X53334Y-58484D01*
X53277Y-58541D01*
X53221Y-58484D01*
X53277Y-58428D01*
X53277Y-58541D01*
X54065Y-57359D02*
X54177Y-57359D01*
X54290Y-57416D01*
X54346Y-57472D01*
X54402Y-57584D01*
X54458Y-57809D01*
X54458Y-58091D01*
X54402Y-58316D01*
X54346Y-58428D01*
X54290Y-58484D01*
X54177Y-58541D01*
X54065Y-58541D01*
X53952Y-58484D01*
X53896Y-58428D01*
X53840Y-58316D01*
X53784Y-58091D01*
X53784Y-57809D01*
X53840Y-57584D01*
X53896Y-57472D01*
X53952Y-57416D01*
X54065Y-57359D01*
X55471Y-57753D02*
X55471Y-58541D01*
X55190Y-57303D02*
X54908Y-58147D01*
X55640Y-58147D01*
X56314Y-57359D02*
X56427Y-57359D01*
X56539Y-57416D01*
X56596Y-57472D01*
X56652Y-57584D01*
X56708Y-57809D01*
X56708Y-58091D01*
X56652Y-58316D01*
X56596Y-58428D01*
X56539Y-58484D01*
X56427Y-58541D01*
X56314Y-58541D01*
X56202Y-58484D01*
X56146Y-58428D01*
X56089Y-58316D01*
X56033Y-58091D01*
X56033Y-57809D01*
X56089Y-57584D01*
X56146Y-57472D01*
X56202Y-57416D01*
X56314Y-57359D01*
X57158Y-57359D02*
X57158Y-57584D01*
X57608Y-57359D02*
X57608Y-57584D01*
X59352Y-58991D02*
X59295Y-58934D01*
X59183Y-58766D01*
X59127Y-58653D01*
X59070Y-58484D01*
X59014Y-58203D01*
X59014Y-57978D01*
X59070Y-57697D01*
X59127Y-57528D01*
X59183Y-57416D01*
X59295Y-57247D01*
X59352Y-57191D01*
X59689Y-57359D02*
X60476Y-57359D01*
X59970Y-58541D01*
X61489Y-57359D02*
X60926Y-57359D01*
X60870Y-57922D01*
X60926Y-57866D01*
X61039Y-57809D01*
X61320Y-57809D01*
X61433Y-57866D01*
X61489Y-57922D01*
X61545Y-58034D01*
X61545Y-58316D01*
X61489Y-58428D01*
X61433Y-58484D01*
X61320Y-58541D01*
X61039Y-58541D01*
X60926Y-58484D01*
X60870Y-58428D01*
X62951Y-58541D02*
X62951Y-57359D01*
X63457Y-58541D02*
X63457Y-57922D01*
X63401Y-57809D01*
X63289Y-57753D01*
X63120Y-57753D01*
X63007Y-57809D01*
X62951Y-57866D01*
X64188Y-58541D02*
X64076Y-58484D01*
X64020Y-58428D01*
X63964Y-58316D01*
X63964Y-57978D01*
X64020Y-57866D01*
X64076Y-57809D01*
X64188Y-57753D01*
X64357Y-57753D01*
X64470Y-57809D01*
X64526Y-57866D01*
X64582Y-57978D01*
X64582Y-58316D01*
X64526Y-58428D01*
X64470Y-58484D01*
X64357Y-58541D01*
X64188Y-58541D01*
X65257Y-58541D02*
X65145Y-58484D01*
X65088Y-58372D01*
X65088Y-57359D01*
X66157Y-58484D02*
X66044Y-58541D01*
X65820Y-58541D01*
X65707Y-58484D01*
X65651Y-58372D01*
X65651Y-57922D01*
X65707Y-57809D01*
X65820Y-57753D01*
X66044Y-57753D01*
X66157Y-57809D01*
X66213Y-57922D01*
X66213Y-58034D01*
X65651Y-58147D01*
X66663Y-58484D02*
X66776Y-58541D01*
X67001Y-58541D01*
X67113Y-58484D01*
X67169Y-58372D01*
X67169Y-58316D01*
X67113Y-58203D01*
X67001Y-58147D01*
X66832Y-58147D01*
X66719Y-58091D01*
X66663Y-57978D01*
X66663Y-57922D01*
X66719Y-57809D01*
X66832Y-57753D01*
X67001Y-57753D01*
X67113Y-57809D01*
X67563Y-58991D02*
X67619Y-58934D01*
X67732Y-58766D01*
X67788Y-58653D01*
X67844Y-58484D01*
X67901Y-58203D01*
X67901Y-57978D01*
X67844Y-57697D01*
X67788Y-57528D01*
X67732Y-57416D01*
X67619Y-57247D01*
X67563Y-57191D01*
X40055Y-59169D02*
X40960Y-60074D01*
X40960Y-59169D02*
X40055Y-60074D01*
G54D12*
X40960Y-59622D02*
G75*
G03X40960Y-59622I-452J0D01*
G74*
G01*
G54D13*
X41973Y-59031D02*
X42029Y-58975D01*
X42141Y-58919D01*
X42422Y-58919D01*
X42535Y-58975D01*
X42591Y-59031D01*
X42647Y-59143D01*
X42647Y-59256D01*
X42591Y-59425D01*
X41916Y-60100D01*
X42647Y-60100D01*
X43154Y-59987D02*
X43210Y-60043D01*
X43154Y-60100D01*
X43097Y-60043D01*
X43154Y-59987D01*
X43154Y-60100D01*
X43604Y-58919D02*
X44335Y-58919D01*
X43941Y-59368D01*
X44110Y-59368D01*
X44222Y-59425D01*
X44278Y-59481D01*
X44335Y-59593D01*
X44335Y-59875D01*
X44278Y-59987D01*
X44222Y-60043D01*
X44110Y-60100D01*
X43772Y-60100D01*
X43660Y-60043D01*
X43604Y-59987D01*
X45066Y-58919D02*
X45178Y-58919D01*
X45291Y-58975D01*
X45347Y-59031D01*
X45403Y-59143D01*
X45460Y-59368D01*
X45460Y-59650D01*
X45403Y-59875D01*
X45347Y-59987D01*
X45291Y-60043D01*
X45178Y-60100D01*
X45066Y-60100D01*
X44953Y-60043D01*
X44897Y-59987D01*
X44841Y-59875D01*
X44785Y-59650D01*
X44785Y-59368D01*
X44841Y-59143D01*
X44897Y-59031D01*
X44953Y-58975D01*
X45066Y-58919D01*
X45966Y-60100D02*
X45966Y-59312D01*
X45966Y-59425D02*
X46022Y-59368D01*
X46134Y-59312D01*
X46303Y-59312D01*
X46416Y-59368D01*
X46472Y-59481D01*
X46472Y-60100D01*
X46472Y-59481D02*
X46528Y-59368D01*
X46641Y-59312D01*
X46809Y-59312D01*
X46922Y-59368D01*
X46978Y-59481D01*
X46978Y-60100D01*
X47541Y-60100D02*
X47541Y-59312D01*
X47541Y-59425D02*
X47597Y-59368D01*
X47709Y-59312D01*
X47878Y-59312D01*
X47991Y-59368D01*
X48047Y-59481D01*
X48047Y-60100D01*
X48047Y-59481D02*
X48103Y-59368D01*
X48215Y-59312D01*
X48384Y-59312D01*
X48497Y-59368D01*
X48553Y-59481D01*
X48553Y-60100D01*
X50859Y-58862D02*
X49847Y-60381D01*
X52377Y-58919D02*
X52490Y-58919D01*
X52602Y-58975D01*
X52659Y-59031D01*
X52715Y-59143D01*
X52771Y-59368D01*
X52771Y-59650D01*
X52715Y-59875D01*
X52659Y-59987D01*
X52602Y-60043D01*
X52490Y-60100D01*
X52377Y-60100D01*
X52265Y-60043D01*
X52209Y-59987D01*
X52152Y-59875D01*
X52096Y-59650D01*
X52096Y-59368D01*
X52152Y-59143D01*
X52209Y-59031D01*
X52265Y-58975D01*
X52377Y-58919D01*
X53277Y-59987D02*
X53334Y-60043D01*
X53277Y-60100D01*
X53221Y-60043D01*
X53277Y-59987D01*
X53277Y-60100D01*
X54065Y-58919D02*
X54177Y-58919D01*
X54290Y-58975D01*
X54346Y-59031D01*
X54402Y-59143D01*
X54458Y-59368D01*
X54458Y-59650D01*
X54402Y-59875D01*
X54346Y-59987D01*
X54290Y-60043D01*
X54177Y-60100D01*
X54065Y-60100D01*
X53952Y-60043D01*
X53896Y-59987D01*
X53840Y-59875D01*
X53784Y-59650D01*
X53784Y-59368D01*
X53840Y-59143D01*
X53896Y-59031D01*
X53952Y-58975D01*
X54065Y-58919D01*
X55021Y-60100D02*
X55246Y-60100D01*
X55358Y-60043D01*
X55415Y-59987D01*
X55527Y-59818D01*
X55583Y-59593D01*
X55583Y-59143D01*
X55527Y-59031D01*
X55471Y-58975D01*
X55358Y-58919D01*
X55133Y-58919D01*
X55021Y-58975D01*
X54965Y-59031D01*
X54908Y-59143D01*
X54908Y-59425D01*
X54965Y-59537D01*
X55021Y-59593D01*
X55133Y-59650D01*
X55358Y-59650D01*
X55471Y-59593D01*
X55527Y-59537D01*
X55583Y-59425D01*
X56708Y-60100D02*
X56033Y-60100D01*
X56371Y-60100D02*
X56371Y-58919D01*
X56258Y-59087D01*
X56146Y-59200D01*
X56033Y-59256D01*
X57158Y-58919D02*
X57158Y-59143D01*
X57608Y-58919D02*
X57608Y-59143D01*
X59352Y-60550D02*
X59295Y-60493D01*
X59183Y-60325D01*
X59127Y-60212D01*
X59070Y-60043D01*
X59014Y-59762D01*
X59014Y-59537D01*
X59070Y-59256D01*
X59127Y-59087D01*
X59183Y-58975D01*
X59295Y-58806D01*
X59352Y-58750D01*
X59745Y-59031D02*
X59802Y-58975D01*
X59914Y-58919D01*
X60195Y-58919D01*
X60308Y-58975D01*
X60364Y-59031D01*
X60420Y-59143D01*
X60420Y-59256D01*
X60364Y-59425D01*
X59689Y-60100D01*
X60420Y-60100D01*
X61826Y-60100D02*
X61826Y-58919D01*
X62332Y-60100D02*
X62332Y-59481D01*
X62276Y-59368D01*
X62164Y-59312D01*
X61995Y-59312D01*
X61883Y-59368D01*
X61826Y-59425D01*
X63064Y-60100D02*
X62951Y-60043D01*
X62895Y-59987D01*
X62839Y-59875D01*
X62839Y-59537D01*
X62895Y-59425D01*
X62951Y-59368D01*
X63064Y-59312D01*
X63232Y-59312D01*
X63345Y-59368D01*
X63401Y-59425D01*
X63457Y-59537D01*
X63457Y-59875D01*
X63401Y-59987D01*
X63345Y-60043D01*
X63232Y-60100D01*
X63064Y-60100D01*
X64132Y-60100D02*
X64020Y-60043D01*
X63964Y-59931D01*
X63964Y-58919D01*
X65032Y-60043D02*
X64920Y-60100D01*
X64695Y-60100D01*
X64582Y-60043D01*
X64526Y-59931D01*
X64526Y-59481D01*
X64582Y-59368D01*
X64695Y-59312D01*
X64920Y-59312D01*
X65032Y-59368D01*
X65088Y-59481D01*
X65088Y-59593D01*
X64526Y-59706D01*
X65538Y-60043D02*
X65651Y-60100D01*
X65876Y-60100D01*
X65988Y-60043D01*
X66044Y-59931D01*
X66044Y-59875D01*
X65988Y-59762D01*
X65876Y-59706D01*
X65707Y-59706D01*
X65595Y-59650D01*
X65538Y-59537D01*
X65538Y-59481D01*
X65595Y-59368D01*
X65707Y-59312D01*
X65876Y-59312D01*
X65988Y-59368D01*
X66438Y-60550D02*
X66494Y-60493D01*
X66607Y-60325D01*
X66663Y-60212D01*
X66719Y-60043D01*
X66776Y-59762D01*
X66776Y-59537D01*
X66719Y-59256D01*
X66663Y-59087D01*
X66607Y-58975D01*
X66494Y-58806D01*
X66438Y-58750D01*
X39877Y-60639D02*
X40960Y-61722D01*
X40960Y-60639D02*
X39877Y-61722D01*
X40419Y-60639D02*
X40419Y-61722D01*
X39877Y-61181D02*
X40960Y-61181D01*
X41973Y-60590D02*
X42029Y-60534D01*
X42141Y-60478D01*
X42422Y-60478D01*
X42535Y-60534D01*
X42591Y-60590D01*
X42647Y-60703D01*
X42647Y-60815D01*
X42591Y-60984D01*
X41916Y-61659D01*
X42647Y-61659D01*
X43154Y-61546D02*
X43210Y-61602D01*
X43154Y-61659D01*
X43097Y-61602D01*
X43154Y-61546D01*
X43154Y-61659D01*
X43604Y-60478D02*
X44391Y-60478D01*
X43885Y-61659D01*
X45403Y-60478D02*
X44841Y-60478D01*
X44785Y-61040D01*
X44841Y-60984D01*
X44953Y-60928D01*
X45235Y-60928D01*
X45347Y-60984D01*
X45403Y-61040D01*
X45460Y-61152D01*
X45460Y-61434D01*
X45403Y-61546D01*
X45347Y-61602D01*
X45235Y-61659D01*
X44953Y-61659D01*
X44841Y-61602D01*
X44785Y-61546D01*
X45966Y-61659D02*
X45966Y-60871D01*
X45966Y-60984D02*
X46022Y-60928D01*
X46134Y-60871D01*
X46303Y-60871D01*
X46416Y-60928D01*
X46472Y-61040D01*
X46472Y-61659D01*
X46472Y-61040D02*
X46528Y-60928D01*
X46641Y-60871D01*
X46809Y-60871D01*
X46922Y-60928D01*
X46978Y-61040D01*
X46978Y-61659D01*
X47541Y-61659D02*
X47541Y-60871D01*
X47541Y-60984D02*
X47597Y-60928D01*
X47709Y-60871D01*
X47878Y-60871D01*
X47991Y-60928D01*
X48047Y-61040D01*
X48047Y-61659D01*
X48047Y-61040D02*
X48103Y-60928D01*
X48215Y-60871D01*
X48384Y-60871D01*
X48497Y-60928D01*
X48553Y-61040D01*
X48553Y-61659D01*
X50859Y-60421D02*
X49847Y-61940D01*
X52377Y-60478D02*
X52490Y-60478D01*
X52602Y-60534D01*
X52659Y-60590D01*
X52715Y-60703D01*
X52771Y-60928D01*
X52771Y-61209D01*
X52715Y-61434D01*
X52659Y-61546D01*
X52602Y-61602D01*
X52490Y-61659D01*
X52377Y-61659D01*
X52265Y-61602D01*
X52209Y-61546D01*
X52152Y-61434D01*
X52096Y-61209D01*
X52096Y-60928D01*
X52152Y-60703D01*
X52209Y-60590D01*
X52265Y-60534D01*
X52377Y-60478D01*
X53277Y-61546D02*
X53334Y-61602D01*
X53277Y-61659D01*
X53221Y-61602D01*
X53277Y-61546D01*
X53277Y-61659D01*
X54458Y-61659D02*
X53784Y-61659D01*
X54121Y-61659D02*
X54121Y-60478D01*
X54008Y-60646D01*
X53896Y-60759D01*
X53784Y-60815D01*
X55190Y-60478D02*
X55302Y-60478D01*
X55415Y-60534D01*
X55471Y-60590D01*
X55527Y-60703D01*
X55583Y-60928D01*
X55583Y-61209D01*
X55527Y-61434D01*
X55471Y-61546D01*
X55415Y-61602D01*
X55302Y-61659D01*
X55190Y-61659D01*
X55077Y-61602D01*
X55021Y-61546D01*
X54965Y-61434D01*
X54908Y-61209D01*
X54908Y-60928D01*
X54965Y-60703D01*
X55021Y-60590D01*
X55077Y-60534D01*
X55190Y-60478D01*
X56258Y-60984D02*
X56146Y-60928D01*
X56089Y-60871D01*
X56033Y-60759D01*
X56033Y-60703D01*
X56089Y-60590D01*
X56146Y-60534D01*
X56258Y-60478D01*
X56483Y-60478D01*
X56596Y-60534D01*
X56652Y-60590D01*
X56708Y-60703D01*
X56708Y-60759D01*
X56652Y-60871D01*
X56596Y-60928D01*
X56483Y-60984D01*
X56258Y-60984D01*
X56146Y-61040D01*
X56089Y-61096D01*
X56033Y-61209D01*
X56033Y-61434D01*
X56089Y-61546D01*
X56146Y-61602D01*
X56258Y-61659D01*
X56483Y-61659D01*
X56596Y-61602D01*
X56652Y-61546D01*
X56708Y-61434D01*
X56708Y-61209D01*
X56652Y-61096D01*
X56596Y-61040D01*
X56483Y-60984D01*
X57158Y-60478D02*
X57158Y-60703D01*
X57608Y-60478D02*
X57608Y-60703D01*
X59352Y-62109D02*
X59295Y-62052D01*
X59183Y-61884D01*
X59127Y-61771D01*
X59070Y-61602D01*
X59014Y-61321D01*
X59014Y-61096D01*
X59070Y-60815D01*
X59127Y-60646D01*
X59183Y-60534D01*
X59295Y-60365D01*
X59352Y-60309D01*
X60308Y-60871D02*
X60308Y-61659D01*
X60026Y-60421D02*
X59745Y-61265D01*
X60476Y-61265D01*
X61826Y-61659D02*
X61826Y-60478D01*
X62332Y-61659D02*
X62332Y-61040D01*
X62276Y-60928D01*
X62164Y-60871D01*
X61995Y-60871D01*
X61883Y-60928D01*
X61826Y-60984D01*
X63064Y-61659D02*
X62951Y-61602D01*
X62895Y-61546D01*
X62839Y-61434D01*
X62839Y-61096D01*
X62895Y-60984D01*
X62951Y-60928D01*
X63064Y-60871D01*
X63232Y-60871D01*
X63345Y-60928D01*
X63401Y-60984D01*
X63457Y-61096D01*
X63457Y-61434D01*
X63401Y-61546D01*
X63345Y-61602D01*
X63232Y-61659D01*
X63064Y-61659D01*
X64132Y-61659D02*
X64020Y-61602D01*
X63964Y-61490D01*
X63964Y-60478D01*
X65032Y-61602D02*
X64920Y-61659D01*
X64695Y-61659D01*
X64582Y-61602D01*
X64526Y-61490D01*
X64526Y-61040D01*
X64582Y-60928D01*
X64695Y-60871D01*
X64920Y-60871D01*
X65032Y-60928D01*
X65088Y-61040D01*
X65088Y-61152D01*
X64526Y-61265D01*
X65538Y-61602D02*
X65651Y-61659D01*
X65876Y-61659D01*
X65988Y-61602D01*
X66044Y-61490D01*
X66044Y-61434D01*
X65988Y-61321D01*
X65876Y-61265D01*
X65707Y-61265D01*
X65595Y-61209D01*
X65538Y-61096D01*
X65538Y-61040D01*
X65595Y-60928D01*
X65707Y-60871D01*
X65876Y-60871D01*
X65988Y-60928D01*
X66438Y-62109D02*
X66494Y-62052D01*
X66607Y-61884D01*
X66663Y-61771D01*
X66719Y-61602D01*
X66776Y-61321D01*
X66776Y-61096D01*
X66719Y-60815D01*
X66663Y-60646D01*
X66607Y-60534D01*
X66494Y-60365D01*
X66438Y-60309D01*
M02*
