G04 (created by PCBNEW (2013-07-07 BZR 4022)-stable) date 9/26/2014 8:17:29 AM*
%MOIN*%
G04 Gerber Fmt 3.4, Leading zero omitted, Abs format*
%FSLAX34Y34*%
G01*
G70*
G90*
G04 APERTURE LIST*
%ADD10C,0.00590551*%
%ADD11C,0.0590551*%
%ADD12R,0.055X0.055*%
%ADD13C,0.055*%
%ADD14R,0.06X0.06*%
%ADD15C,0.06*%
%ADD16R,0.0590551X0.0590551*%
%ADD17C,0.11811*%
%ADD18C,0.244094*%
G04 APERTURE END LIST*
G54D10*
G54D11*
X54279Y-43114D03*
X54279Y-44885D03*
X51720Y-44885D03*
X51720Y-43114D03*
G54D12*
X63400Y-36400D03*
G54D13*
X63400Y-37400D03*
X63400Y-38400D03*
X45200Y-45900D03*
X48200Y-45900D03*
G54D14*
X45200Y-29700D03*
G54D15*
X46200Y-29700D03*
X47200Y-29700D03*
X48200Y-29700D03*
X49200Y-29700D03*
G54D14*
X55400Y-43300D03*
G54D15*
X56400Y-43300D03*
X57400Y-43300D03*
X58400Y-43300D03*
G54D14*
X61000Y-32900D03*
G54D15*
X60000Y-32900D03*
X59000Y-32900D03*
G54D14*
X43500Y-31800D03*
G54D15*
X43500Y-30800D03*
X43500Y-29800D03*
G54D14*
X44240Y-28059D03*
G54D15*
X44240Y-27059D03*
X49240Y-28059D03*
X45240Y-27059D03*
X50240Y-28059D03*
X46240Y-27059D03*
X51240Y-28059D03*
X47240Y-27059D03*
X52240Y-28059D03*
X48240Y-27059D03*
X53240Y-28059D03*
X49240Y-27059D03*
X54240Y-28059D03*
X50240Y-27059D03*
X55240Y-28059D03*
X51240Y-27059D03*
X56240Y-28059D03*
X52240Y-27059D03*
X57240Y-28059D03*
X53240Y-27059D03*
X58240Y-28059D03*
X54240Y-27059D03*
X59240Y-28059D03*
X55240Y-27059D03*
X56240Y-27059D03*
X60240Y-28059D03*
X57240Y-27059D03*
X59240Y-27059D03*
X60240Y-27059D03*
X61240Y-27059D03*
X62240Y-27059D03*
X61240Y-28059D03*
X62240Y-28059D03*
X45240Y-28059D03*
X46240Y-28059D03*
X47240Y-28059D03*
X48240Y-28059D03*
X63240Y-28059D03*
X63240Y-27059D03*
X58240Y-27059D03*
G54D16*
X41500Y-44500D03*
G54D11*
X42500Y-43500D03*
X43500Y-43500D03*
X44500Y-44500D03*
X44500Y-43500D03*
X45500Y-44500D03*
X45500Y-43500D03*
X46500Y-44500D03*
X46500Y-43500D03*
X47500Y-44500D03*
X47500Y-43500D03*
X48500Y-44500D03*
X48500Y-43500D03*
X49500Y-44500D03*
X49500Y-43500D03*
X50500Y-44500D03*
X50500Y-43500D03*
X41500Y-43500D03*
X42500Y-44500D03*
X43500Y-44500D03*
G54D12*
X62800Y-30000D03*
G54D13*
X62800Y-31000D03*
X62800Y-32000D03*
X62800Y-33000D03*
X65800Y-33000D03*
X65800Y-32000D03*
X65800Y-31000D03*
X65800Y-30000D03*
G54D12*
X42500Y-40500D03*
G54D13*
X43500Y-40500D03*
X44500Y-40500D03*
X45500Y-40500D03*
X46500Y-40500D03*
X47500Y-40500D03*
X48500Y-40500D03*
X49500Y-40500D03*
X50500Y-40500D03*
X51500Y-40500D03*
X52500Y-40500D03*
X53500Y-40500D03*
X54500Y-40500D03*
X55500Y-40500D03*
X56500Y-40500D03*
X57500Y-40500D03*
X58500Y-40500D03*
X59500Y-40500D03*
X60500Y-40500D03*
X61500Y-40500D03*
X61500Y-34500D03*
X60500Y-34500D03*
X59500Y-34500D03*
X58500Y-34500D03*
X57500Y-34500D03*
X56500Y-34500D03*
X55500Y-34500D03*
X54500Y-34500D03*
X53500Y-34500D03*
X52500Y-34500D03*
X51500Y-34500D03*
X50500Y-34500D03*
X49500Y-34500D03*
X48500Y-34500D03*
X47500Y-34500D03*
X46500Y-34500D03*
X45500Y-34500D03*
X44500Y-34500D03*
X43500Y-34500D03*
X42500Y-34500D03*
X65900Y-43100D03*
X65900Y-44100D03*
X50500Y-31400D03*
X49500Y-31400D03*
X59400Y-42100D03*
X60400Y-42100D03*
X52750Y-47500D03*
X51750Y-47500D03*
G54D17*
X60370Y-46750D03*
X55629Y-46750D03*
G54D11*
X58492Y-45844D03*
X57507Y-45844D03*
X57507Y-47124D03*
X58492Y-47124D03*
G54D18*
X42322Y-46653D03*
X42322Y-27559D03*
X65157Y-27559D03*
X65157Y-46653D03*
M02*
